<svg id="アバウト" data-name="アバウト" xmlns="http://www.w3.org/2000/svg" viewBox="0 0 350 64"><defs><style>.cls-1{fill:#fbfae9;}.cls-2{fill:#040000;}</style></defs><title>アバウト</title><path class="cls-1" d="M127.07,63a14.56,14.56,0,0,1-14.55-14.55v-13a4.11,4.11,0,0,1,4.21-4.09h.42v-6a5.3,5.3,0,0,1,5.29-5.29h.28a5.29,5.29,0,0,1,8.71,0h.28A5.3,5.3,0,0,1,137,25.38v.3a5.31,5.31,0,0,1,4.63,5.25V48.47A14.57,14.57,0,0,1,127.07,63Z"/><path class="cls-1" d="M113.53,24.1a2.93,2.93,0,0,1-1.09-.21,6.38,6.38,0,0,1-1.78-1.23C100.93,14.47,101,13,101,11.87c.09-2.21,4-5.54,6-5.64h.14a3.33,3.33,0,0,1,2.09.81c3.12,2.44,8.28,10.7,8.56,11.32s.76,2.22-1,4A5,5,0,0,1,113.53,24.1Z"/><path class="cls-1" d="M118.11,20.43a3.17,3.17,0,0,1-2.1-.72l-.2-.19-.08-.08-.19-.24c-.07-.09-6-11.26-4.81-14.64.71-2,3.61-2.78,4.48-3a5.61,5.61,0,0,1,1.29-.16,3.34,3.34,0,0,1,2.22.76l.24.22c2.28,2.52,4.05,13.46,3.87,14.72A3.74,3.74,0,0,1,120.1,20,6.32,6.32,0,0,1,118.11,20.43Z"/><path class="cls-1" d="M110.9,28.84c-.09,0-10.36-1.26-12.6-3.12a3.11,3.11,0,0,1-.83-1.09c-.72-1.64.19-3.86.3-4.11a4.08,4.08,0,0,1,2.31-2.4,3.66,3.66,0,0,1,1.26-.21c3.28,0,11.68,4.27,11.74,4.31l.22.17a3.38,3.38,0,0,1,.81,3.89,3.48,3.48,0,0,1-3.2,2.56Z"/><path class="cls-2" d="M136.34,25.5a2.82,2.82,0,0,0-1.76.61V22.82a2.88,2.88,0,0,0-2.87-2.88,2.82,2.82,0,0,0-1.76.61v0a2.88,2.88,0,0,0-5.75,0v0a2.82,2.82,0,0,0-1.76-.61,2.88,2.88,0,0,0-2.87,2.88v9.89a4.72,4.72,0,0,0-.41-.48,3.32,3.32,0,0,0-2.39-1,1.7,1.7,0,0,0-1.83,1.68v13a12.14,12.14,0,0,0,24.27,0V28.37A2.88,2.88,0,0,0,136.34,25.5Zm1.76,20.41a11,11,0,0,1-22,0V41.06h0a.78.78,0,0,0,0-.16v-8c0-.48.46-.56.74-.56a2.15,2.15,0,0,1,1.59.66,4.73,4.73,0,0,1,1.19,3.23v6a.56.56,0,0,0,.56.55.55.55,0,0,0,.55-.55v-6c0-.11,0-.23,0-.34a.34.34,0,0,0,0-.1v-13a1.76,1.76,0,0,1,3.52,0v14a.56.56,0,0,0,.56.56.55.55,0,0,0,.55-.56V20.53a1.76,1.76,0,0,1,3.52,0V36.79a.56.56,0,1,0,1.12,0v-14a1.76,1.76,0,1,1,3.52,0v14a.55.55,0,0,0,.55.56.56.56,0,0,0,.56-.56V28.37a1.76,1.76,0,0,1,3.52,0Z"/><path class="cls-2" d="M112.22,18.25c-1-.88-8.82-7.5-8.77-8.84,0-.81,2.76-3.28,3.71-3.33a1,1,0,0,1,.61.29c2.64,2.07,7.61,9.87,7.87,10.44.16.35,0,.8-.53,1.33,0,.05-1.15,1.19-1.77.95A5,5,0,0,1,112.22,18.25Z"/><path class="cls-2" d="M117.57,15.3l-.08-.09c-.06-.08-5.17-10.49-4.49-12.39.23-.6,1.9-1.25,2.76-1.44a1.66,1.66,0,0,1,1.41.09c1.67,1.84,3.35,12.18,3.26,12.75s-.67.8-1.17,1C119.05,15.28,118,15.65,117.57,15.3Z"/><path class="cls-2" d="M99.85,21.3a.57.57,0,0,1-.17-.22c-.25-.58.24-2.89,1.23-3.25,1.73-.63,10.74,3.78,10.81,3.83h0c.37.31.22.9.1,1.22s-.4,1-.93,1S101.2,22.42,99.85,21.3Z"/><path class="cls-1" d="M153.37,53.16a3.66,3.66,0,0,1-.57,0,3.22,3.22,0,0,1-2.08-1.33,3.27,3.27,0,0,1-.56-2.46l3.58-20.43a3.36,3.36,0,0,1,6.49-.55l7.09,19.47a3.31,3.31,0,0,1-2,4.24,3.39,3.39,0,0,1-1.1.19,3.3,3.3,0,0,1-3.06-2.1l-.7-1.94-3.55.31-.34,2A3.28,3.28,0,0,1,153.37,53.16Zm4.73-11.33h.07l0-.14Z"/><path class="cls-1" d="M175.11,51a3.6,3.6,0,0,1-3.55-3.28L169.89,28.6a3.58,3.58,0,0,1,3.23-3.89l3.07-.27c.28,0,.57,0,.85,0,4.19,0,6.93,2.76,7.34,7.38a8,8,0,0,1-.9,4.81,8.63,8.63,0,0,1,1.92,5.16c.23,2.71-.21,4.78-1.37,6.32a7,7,0,0,1-5.28,2.63l-3.33.29Zm2.72-6.8.53,0c.2,0,.29,0,.41-.33a3.51,3.51,0,0,0,.16-1.51c-.08-.82-.26-1.81-.74-1.81h-.12l-.56,0Zm-.9-10.31.38,0c.3,0,.63-.74.57-1.51,0-.23-.15-1.41-.74-1.41h-.09l-.38,0Z"/><path class="cls-1" d="M197.27,49.17a7.68,7.68,0,0,1-7.5-7.26l-.94-10.75a7.7,7.7,0,0,1,6.71-8.56,5.68,5.68,0,0,1,.59,0,7.71,7.71,0,0,1,7.53,7.29l.94,10.75a7.6,7.6,0,0,1-6.74,8.53A5.68,5.68,0,0,1,197.27,49.17Zm-1.16-20c-.46,0-.91.66-.84,1.47l.94,10.76c.07.78.59,1.3,1,1.3s1-.65.89-1.47l-.94-10.76c-.07-.78-.58-1.3-1-1.3Z"/><path class="cls-1" d="M216.43,47.49a7.68,7.68,0,0,1-7.5-7.25l-1.35-15.42a3.24,3.24,0,0,1,.75-2.39,3.19,3.19,0,0,1,2.19-1.14l.27,0a3.27,3.27,0,0,1,3.23,3l1.35,15.42c.07.77.6,1.3,1,1.3a.8.8,0,0,0,.61-.36,1.59,1.59,0,0,0,.28-1.11l-1.35-15.42a3.27,3.27,0,0,1,3-3.53h.28a3.26,3.26,0,0,1,3.22,3l1.35,15.42A7.61,7.61,0,0,1,217,47.47,5.82,5.82,0,0,1,216.43,47.49Z"/><path class="cls-1" d="M235.69,45.82a3.31,3.31,0,0,1-3.29-3.06L231,26.49l-1.14.1h-.28a3.25,3.25,0,0,1-3.25-3,3.3,3.3,0,0,1,3-3.59l8.83-.77.28,0a3.32,3.32,0,0,1,3.26,3,3.28,3.28,0,0,1-3,3.56l-1.14.1L239,42.19a3.33,3.33,0,0,1-.71,2.4A3.23,3.23,0,0,1,236,45.81Z"/><path class="cls-1" d="M250,45.26a3.6,3.6,0,0,1-.33-7.19l.32,0a3.61,3.61,0,0,1,.31,7.2Z"/><path class="cls-1" d="M153.32,17a.8.8,0,0,1-.72.88l-2.72.23a.8.8,0,0,1-.14-1.59l2.72-.24A.8.8,0,0,1,153.32,17Z"/><path class="cls-1" d="M170.87,7.8a.8.8,0,0,1,.56,1l-.94,3.7a.8.8,0,0,1-1,.57.84.84,0,0,1-.59-1l.66-2.46-5.5.48a1.25,1.25,0,0,1-1.32-1.15l0-.47a.75.75,0,0,1,.68-.85.77.77,0,0,1,.85.72v.18L170.11,8A.82.82,0,0,1,170.87,7.8ZM166.68,11A1.23,1.23,0,0,1,168,12.16l.62,7a1.59,1.59,0,0,1-1.42,1.73l-1.37.12a.89.89,0,0,1-.93-1.09,1,1,0,0,1,1.35-.7l.83.38-.64-7.3-.26,0a.64.64,0,0,1-.11-1.27Z"/><path class="cls-1" d="M183.6,9.16a.81.81,0,0,1,.64.89L183,18.12a1.79,1.79,0,0,1-1.62,1.55l-.33,0a.84.84,0,0,1-.89-1,.79.79,0,0,1,1.18-.56l.09.07,1.25-8.39A.76.76,0,0,1,183.6,9.16Zm6.2,8.21a.79.79,0,0,1,1,.6.8.8,0,0,1-.7,1l-.46,0a1.55,1.55,0,0,1-1.6-1.2L185.53,7.21a.77.77,0,0,1,.57-.94.83.83,0,0,1,1,.62l2.52,10.55Zm-1.5-9.65L187.37,6a.49.49,0,0,1,.23-.67.54.54,0,0,1,.71.23l.91,1.69A.51.51,0,0,1,189,8,.53.53,0,0,1,188.3,7.72Zm2.34-.56a.5.5,0,0,1-.22.68.56.56,0,0,1-.72-.24l-.9-1.69a.49.49,0,0,1,.2-.67.53.53,0,0,1,.71.23Z"/><path class="cls-1" d="M206.25,5.25a.79.79,0,0,1,.54,1l-2.58,10a2.25,2.25,0,0,1-2,1.69l-1,.09a1,1,0,0,1-1-1.2,1.09,1.09,0,0,1,1.51-.76l.77.35,2.35-9-5.31.46.27,3.07a.78.78,0,1,1-1.56.14l-.37-4.2a.79.79,0,0,1,.7-.86.82.82,0,0,1,.72.34l2.09-.18L201.36,5a.77.77,0,1,1,1.54-.14l.1,1.08,2.32-.2A.76.76,0,0,1,206.25,5.25Z"/><path class="cls-1" d="M223.83,9.15a.81.81,0,0,1-.59,1.5l-3.8-1.57s-.06,0-.07,0l.57,6.53a.81.81,0,0,1-.73.86.79.79,0,0,1-.84-.72l-1-11.32-.45,0a.76.76,0,0,1-.81-.71.74.74,0,0,1,.67-.81l.64-.06a1.4,1.4,0,0,1,1.51,1.3l.31,3.53a.74.74,0,0,1,.77-.1Z"/><path class="cls-1" d="M238.84,9.54a.8.8,0,0,1-.72.87l-2.72.24a.8.8,0,0,1-.14-1.6L238,8.82A.8.8,0,0,1,238.84,9.54Z"/><path d="M165.44,46.5a1.29,1.29,0,0,1-.77,1.66A1.27,1.27,0,0,1,163,47.4l-1.2-3.33-6.61.58-.61,3.46a1.27,1.27,0,1,1-2.49-.45l3.58-20.43a1.36,1.36,0,0,1,2.63-.23Zm-9.76-4.45,5.26-.46L157.45,32Z"/><path d="M183.4,39.93c.39,4.45-1.37,6.47-4.83,6.77l-3.33.3a1.59,1.59,0,0,1-1.69-1.45l-1.67-19.13a1.58,1.58,0,0,1,1.41-1.72l3.07-.27c2.81-.24,5.62,1,6,5.53.23,2.54-.61,4.06-1.8,4.95C182.14,35.61,183.15,37,183.4,39.93Zm-5.92-6.08c1.64-.14,2.54-1.94,2.39-3.67-.17-1.94-1.18-3.39-3-3.23l-2.37.21.6,6.9Zm1.05,10.3c2.28-.2,2.51-2.66,2.39-4s-.54-3.84-3-3.62l-2.54.22.66,7.62Z"/><path d="M201.67,28l.94,10.76a5.46,5.46,0,1,1-10.85,1L190.82,29A5.47,5.47,0,1,1,201.67,28Zm-1.54,11-.95-10.76a3,3,0,1,0-5.9.52l.94,10.75a3,3,0,1,0,5.91-.51Z"/><path d="M221.77,37.11a5.46,5.46,0,1,1-10.85,1l-1.35-15.42a1.23,1.23,0,1,1,2.46-.21l1.35,15.42a3,3,0,1,0,5.9-.52l-1.34-15.42a1.25,1.25,0,1,1,2.48-.22Z"/><path d="M239.65,20.43a1.28,1.28,0,0,1-1.15,1.4l-3.13.27L237,40.36a1.29,1.29,0,1,1-2.57.23l-1.6-18.26-3.13.27a1.27,1.27,0,0,1-1.37-1.18A1.29,1.29,0,0,1,229.44,20l8.83-.77A1.29,1.29,0,0,1,239.65,20.43Z"/><path d="M249.83,38.06a1.61,1.61,0,0,1,.28,3.2,1.61,1.61,0,0,1-.28-3.2Z"/></svg>