<svg id="アバウト" xmlns="http://www.w3.org/2000/svg" viewBox="0 0 350 64"><defs><style>.cls-1{fill:#fdfbff;}.cls-2{fill:#fff;}.cls-3{fill:#040000;}</style></defs><title>アバウト</title><path class="cls-1" d="M127.67,62.72a14.57,14.57,0,0,1-14.55-14.56v-13a4.09,4.09,0,0,1,4.11-4.09h.52v-6A5.28,5.28,0,0,1,123,19.78h.28a5.26,5.26,0,0,1,7.32-1.39A5.11,5.11,0,0,1,132,19.78h.27a5.29,5.29,0,0,1,5.29,5.29v.31a5.28,5.28,0,0,1,4.63,5.25V48.16A14.57,14.57,0,0,1,127.67,62.72Z"/><path class="cls-2" d="M114.13,23.79a3.14,3.14,0,0,1-1.09-.2,6.47,6.47,0,0,1-1.78-1.24c-9.74-8.18-9.68-9.69-9.63-10.79.09-2.2,4-5.54,6-5.64h.14a3.31,3.31,0,0,1,2.08.81c3.15,2.44,8.29,10.7,8.58,11.27s.76,2.22-1,4A4.94,4.94,0,0,1,114.13,23.79Z"/><path class="cls-2" d="M118.7,20.12a3.16,3.16,0,0,1-2.1-.72l-.19-.18-.08-.09-.2-.24c-.07-.09-6-11.26-4.81-14.64.72-2,3.61-2.78,4.48-3a5.62,5.62,0,0,1,1.29-.16,3.41,3.41,0,0,1,2.23.76l.23.22c2.29,2.52,4.06,13.47,3.87,14.73a3.69,3.69,0,0,1-2.73,2.91A6.48,6.48,0,0,1,118.7,20.12Z"/><path class="cls-2" d="M111.49,28.54c-.09,0-10.36-1.27-12.59-3.13a3,3,0,0,1-.83-1.09c-.72-1.63.19-3.86.3-4.1a4,4,0,0,1,2.31-2.41,3.59,3.59,0,0,1,1.26-.21c3.27,0,11.67,4.27,11.73,4.31l.22.17A3.37,3.37,0,0,1,114.7,26a3.48,3.48,0,0,1-3.2,2.57Z"/><path class="cls-3" d="M136.93,25.19a2.87,2.87,0,0,0-1.76.61V22.51a2.87,2.87,0,0,0-4.63-2.27h0a2.87,2.87,0,1,0-5.74,0h0a2.87,2.87,0,0,0-4.63,2.27v9.9a3.14,3.14,0,0,0-.42-.48,3.26,3.26,0,0,0-2.39-1,1.7,1.7,0,0,0-1.82,1.55V45.6a12.13,12.13,0,0,0,24.26,0V28.06A2.89,2.89,0,0,0,136.93,25.19Zm1.76,20.41a11,11,0,0,1-22,0V40.75h0a.43.43,0,0,0,0-.16v-8c0-.48.46-.56.73-.56a2.15,2.15,0,0,1,1.59.66,4.7,4.7,0,0,1,1.2,3.23v6a.56.56,0,0,0,1.11,0V22.56a1.76,1.76,0,0,1,3.52,0v14a.56.56,0,0,0,1.11,0V20.22a1.76,1.76,0,0,1,3.52,0h0V36.49a.56.56,0,0,0,1.11,0v-14a1.76,1.76,0,1,1,3.52,0v14a.56.56,0,0,0,1.11,0V28.06a1.76,1.76,0,0,1,3.52,0Z"/><path class="cls-3" d="M112.82,17.94c-1-.87-8.83-7.5-8.77-8.84,0-.8,2.75-3.28,3.7-3.33a1,1,0,0,1,.62.3c2.64,2.06,7.6,9.86,7.86,10.43.17.35,0,.8-.53,1.34,0,.05-1.15,1.19-1.76.94A4.83,4.83,0,0,1,112.82,17.94Z"/><path class="cls-3" d="M118.16,15l-.08-.09c-.06-.08-5.17-10.49-4.48-12.38.22-.61,1.9-1.25,2.75-1.45a1.66,1.66,0,0,1,1.41.09C119.44,3,121.11,13.34,121,13.91s-.68.8-1.17,1C119.65,15,118.58,15.34,118.16,15Z"/><path class="cls-3" d="M100.44,21a.68.68,0,0,1-.17-.21c-.25-.58.24-2.9,1.23-3.26,1.73-.63,10.74,3.78,10.82,3.84h0c.37.31.23.9.11,1.23s-.41,1-.94,1S101.79,22.11,100.44,21Z"/><path class="cls-1" d="M154,52.85a2.59,2.59,0,0,1-.56-.05,3.16,3.16,0,0,1-2.09-1.33A3.31,3.31,0,0,1,150.8,49l3.57-20.43a3.37,3.37,0,0,1,3.33-2.81A3.32,3.32,0,0,1,160.82,28l7.09,19.48a3.29,3.29,0,0,1-2,4.22h0a3.14,3.14,0,0,1-1.1.19,3.26,3.26,0,0,1-3.05-2.1l-.7-1.94-3.56.31-.34,1.95A3.28,3.28,0,0,1,154,52.85Zm4.73-11.32h.08l-.05-.14Z"/><path class="cls-1" d="M175.7,50.69a3.61,3.61,0,0,1-3.55-3.28l-1.67-19.12a3.6,3.6,0,0,1,3.23-3.89l3.07-.27h.86c4.18,0,6.93,2.76,7.33,7.38a8,8,0,0,1-.89,4.8A8.61,8.61,0,0,1,186,41.45c.24,2.71-.21,4.77-1.36,6.31a7,7,0,0,1-5.29,2.63l-3.33.29Zm2.73-6.79H179c.21,0,.29,0,.41-.33a3.52,3.52,0,0,0,.16-1.51c-.07-.82-.26-1.8-.74-1.8h-.67Zm-.91-10.32h.38c.31,0,.64-.74.57-1.5,0-.24-.15-1.42-.73-1.42h-.47Z"/><path class="cls-1" d="M197.86,48.86a7.68,7.68,0,0,1-7.5-7.26l-.94-10.75a7.71,7.71,0,0,1,6.71-8.56h.59a7.73,7.73,0,0,1,7.54,7.29l.94,10.76a7.61,7.61,0,0,1-6.59,8.51l-.16,0Zm-1.16-20c-.45,0-.91.66-.84,1.48L196.8,41c.07.78.59,1.3,1,1.3s1-.65.9-1.47l-.94-10.75c-.07-.78-.59-1.31-1-1.31Z"/><path class="cls-1" d="M217,47.19a7.68,7.68,0,0,1-7.5-7.26l-1.35-15.42a3.24,3.24,0,0,1,.76-2.39,3.15,3.15,0,0,1,2.2-1.12h.28a3.27,3.27,0,0,1,3.23,3L216,39.37c.07.76.6,1.3,1,1.3a.81.81,0,0,0,.61-.37,1.65,1.65,0,0,0,.28-1.1l-1.35-15.42a3.26,3.26,0,0,1,.74-2.38,3.19,3.19,0,0,1,2.22-1.15h.28a3.28,3.28,0,0,1,3.23,3l1.35,15.42a7.61,7.61,0,0,1-6.61,8.51l-.14,0C217.41,47.21,217.2,47.2,217,47.19Z"/><path class="cls-1" d="M236.28,45.51A3.29,3.29,0,0,1,233,42.45l-1.43-16.27-1.13.1h-.29a3.31,3.31,0,0,1-.29-6.6l8.83-.77H239a3.32,3.32,0,0,1,3.25,3,3.28,3.28,0,0,1-3,3.56h0l-1.14.1,1.43,16.27a3.36,3.36,0,0,1-.72,2.4,3.23,3.23,0,0,1-2.27,1.22Z"/><path class="cls-1" d="M250.57,45a3.61,3.61,0,0,1-.32-7.2h.31a3.6,3.6,0,0,1,.32,7.19Z"/><path d="M166,46.19a1.28,1.28,0,0,1-.74,1.65h0a1.27,1.27,0,0,1-1.63-.76h0l-1.21-3.32-6.61.57-.61,3.46a1.26,1.26,0,1,1-2.49-.36.22.22,0,0,1,0-.08l3.57-20.43a1.36,1.36,0,0,1,2.63-.23Zm-9.76-4.45,5.27-.46L158,31.65Z"/><path d="M184,39.62c.39,4.45-1.38,6.47-4.83,6.78l-3.34.29a1.58,1.58,0,0,1-1.68-1.45l-1.68-19.13a1.58,1.58,0,0,1,1.41-1.71l3.08-.27c2.8-.25,5.62.95,6,5.52.22,2.54-.62,4.06-1.81,5C182.74,35.31,183.74,36.69,184,39.62Zm-5.93-6.08c1.64-.14,2.55-1.93,2.39-3.67-.17-1.94-1.18-3.39-3-3.23l-2.37.21.6,6.9Zm1.05,10.3c2.28-.2,2.51-2.66,2.39-4s-.54-3.84-3-3.62l-2.55.22.67,7.62Z"/><path d="M202.26,27.73l.94,10.75a5.46,5.46,0,1,1-10.76,1.86,5,5,0,0,1-.08-.86l-1-10.76a5.47,5.47,0,1,1,10.76-2,5.89,5.89,0,0,1,.09,1Zm-1.54,11L199.78,28a3,3,0,1,0-6-.37,3,3,0,0,0,.08.89l.94,10.76a3,3,0,0,0,6,.37A3,3,0,0,0,200.72,38.73Z"/><path d="M222.36,36.81a5.46,5.46,0,1,1-10.85.94l-1.34-15.42A1.23,1.23,0,0,1,211.25,21a1.21,1.21,0,0,1,1.36,1.08.17.17,0,0,1,0,.07L214,37.54a3,3,0,0,0,6,.37,3,3,0,0,0-.08-.89L218.53,21.6a1.25,1.25,0,0,1,2.48-.29.22.22,0,0,1,0,.08Z"/><path d="M240.24,20.12a1.27,1.27,0,0,1-1.13,1.4h0l-3.13.27,1.59,18.26a1.29,1.29,0,0,1-2.57.23L233.39,22l-3.13.27a1.27,1.27,0,0,1-1.37-1.16h0A1.3,1.3,0,0,1,230,19.69l8.84-.77a1.29,1.29,0,0,1,1.4,1.17Z"/><path d="M250.42,37.75a1.6,1.6,0,0,1,1.72,1.47h0a1.57,1.57,0,1,1-1.72-1.48Z"/><path d="M153.91,16.71a.8.8,0,0,1-.71.88h0l-2.72.24a.8.8,0,0,1-.86-.74h0a.79.79,0,0,1,.71-.86h0l2.72-.24A.8.8,0,0,1,153.91,16.71Z"/><path d="M171.46,7.49a.81.81,0,0,1,.57,1h0l-.95,3.7a.8.8,0,0,1-1,.58h0a.85.85,0,0,1-.58-1l.65-2.46-5.5.48a1.25,1.25,0,0,1-1.32-1.15V8.16a.77.77,0,1,1,1.48-.42.58.58,0,0,1,0,.26v.18l5.84-.51A.8.8,0,0,1,171.46,7.49Zm-4.19,3.23a1.23,1.23,0,0,1,1.34,1.11v0l.61,7a1.58,1.58,0,0,1-1.41,1.73h0l-1.37.12a.89.89,0,0,1-1-.82.82.82,0,0,1,0-.27,1,1,0,0,1,1.2-.75l.16.05.83.38-.64-7.3h-.27a.63.63,0,0,1-.67-.59h0a.62.62,0,0,1,.55-.68h.61Z"/><path d="M184.19,8.86a.78.78,0,0,1,.64.88l-1.2,8.08A1.82,1.82,0,0,1,182,19.37h-.34a.85.85,0,0,1-.89-.81.61.61,0,0,1,0-.19.78.78,0,0,1,1.17-.56l.09.07,1.25-8.39a.77.77,0,0,1,.87-.64Zm6.2,8.2a.78.78,0,0,1,1,.51s0,.06,0,.09a.8.8,0,0,1-.63.94h-.52a1.55,1.55,0,0,1-1.61-1.2L186.13,6.9a.76.76,0,0,1,.57-.9.83.83,0,0,1,1,.62h0l2.52,10.56Zm-1.5-9.65L188,5.73a.51.51,0,0,1,.21-.68h0a.53.53,0,0,1,.71.23L189.81,7a.51.51,0,0,1-.22.69h0A.55.55,0,0,1,188.89,7.41Zm2.34-.56a.51.51,0,0,1-.2.68h0a.57.57,0,0,1-.71-.25l-.91-1.69a.48.48,0,0,1,.2-.66h0a.53.53,0,0,1,.71.23Z"/><path d="M206.84,4.94a.81.81,0,0,1,.55,1l-2.58,10a2.31,2.31,0,0,1-2,1.69l-1,.08a1,1,0,0,1-1-1,1.64,1.64,0,0,1,0-.22,1.08,1.08,0,0,1,1.28-.83.81.81,0,0,1,.22.07l.78.35,2.34-9-5.3.47.27,3.06a.8.8,0,0,1-.73.86.79.79,0,0,1-.84-.72l-.36-4.2a.78.78,0,0,1,1.42-.52L202,5.87l0-1.19a.77.77,0,0,1,.65-.89.78.78,0,0,1,.89.64.49.49,0,0,1,0,.12l.09,1.07,2.32-.2A.76.76,0,0,1,206.84,4.94Z"/><path d="M224.43,8.84a.8.8,0,0,1,.42,1.05.78.78,0,0,1-1,.45L220,8.78h-.07l.57,6.54a.77.77,0,0,1-.71.84.78.78,0,0,1-.85-.71h0L218,4.09h-.46a.75.75,0,0,1-.8-.68v0a.74.74,0,0,1,.65-.82h0l.63-.06a1.4,1.4,0,0,1,1.51,1.3l.31,3.53a.76.76,0,0,1,.77-.1Z"/><path d="M239.44,9.23a.8.8,0,0,1-.71.88h0l-2.72.23a.79.79,0,0,1-.86-.72v0a.78.78,0,0,1,.7-.85h0l2.72-.24A.8.8,0,0,1,239.44,9.23Z"/></svg>