<svg id="お問い合わせ" data-name="お問い合わせ" xmlns="http://www.w3.org/2000/svg" viewBox="0 0 350 70"><defs><style>.cls-1{fill:#fdfbff;}.cls-2{fill:#fff;}.cls-3{fill:#040000;}</style></defs><title>お問い合わせ</title><path class="cls-1" d="M107.7,66.38A14.57,14.57,0,0,1,93.15,51.82v-13a4.11,4.11,0,0,1,4.2-4.09h.43v-6a5.3,5.3,0,0,1,5.29-5.29h.28a5.29,5.29,0,0,1,8.71,0h.27a5.29,5.29,0,0,1,5.29,5.29V29a5.3,5.3,0,0,1,4.63,5.25V51.82A14.57,14.57,0,0,1,107.7,66.38Z"/><path class="cls-2" d="M94.16,27.45a3.1,3.1,0,0,1-1.09-.2A6.77,6.77,0,0,1,91.29,26c-9.73-8.18-9.67-9.69-9.63-10.79.09-2.21,4-5.54,6-5.64h.14a3.34,3.34,0,0,1,2.08.81C93,12.83,98.18,21.09,98.46,21.7s.76,2.22-1,4A4.92,4.92,0,0,1,94.16,27.45Z"/><path class="cls-2" d="M98.74,23.78a3.17,3.17,0,0,1-2.1-.72l-.2-.19-.08-.08-.2-.24c-.06-.09-6-11.26-4.8-14.64.71-2,3.61-2.78,4.48-3a5.61,5.61,0,0,1,1.29-.16,3.34,3.34,0,0,1,2.22.76l.23.22c2.29,2.52,4.06,13.47,3.88,14.73a3.74,3.74,0,0,1-2.73,2.91A6.32,6.32,0,0,1,98.74,23.78Z"/><path class="cls-2" d="M91.53,32.2c-.09,0-10.36-1.27-12.6-3.13A2.91,2.91,0,0,1,78.1,28c-.72-1.64.19-3.86.3-4.11a4.08,4.08,0,0,1,2.31-2.4A3.62,3.62,0,0,1,82,21.26c3.28,0,11.67,4.27,11.74,4.31l.22.17a3.38,3.38,0,0,1,.81,3.89,3.5,3.5,0,0,1-3.21,2.57Z"/><path class="cls-3" d="M117,28.85a2.87,2.87,0,0,0-1.76.61V26.17a2.87,2.87,0,0,0-4.63-2.27v0a2.87,2.87,0,1,0-5.74,0v0a2.84,2.84,0,0,0-1.76-.6,2.87,2.87,0,0,0-2.87,2.87v9.9a5.06,5.06,0,0,0-.41-.49,3.28,3.28,0,0,0-2.39-1,1.7,1.7,0,0,0-1.83,1.67v13a12.14,12.14,0,1,0,24.27,0V31.72A2.88,2.88,0,0,0,117,28.85Zm1.76,20.41a11,11,0,0,1-22,0V44.41h0a.78.78,0,0,0,0-.16v-8c0-.48.46-.56.74-.56a2.15,2.15,0,0,1,1.59.66,4.73,4.73,0,0,1,1.19,3.23v6a.56.56,0,0,0,1.11,0v-6c0-.11,0-.23,0-.34a.34.34,0,0,0,0-.1v-13a1.76,1.76,0,0,1,3.52,0v14a.56.56,0,0,0,1.11,0V23.88a1.76,1.76,0,1,1,3.52,0V40.15a.56.56,0,0,0,.56.55.55.55,0,0,0,.55-.55v-14a1.76,1.76,0,0,1,3.52,0v14a.56.56,0,0,0,.56.55.55.55,0,0,0,.55-.55V31.72a1.76,1.76,0,0,1,3.52,0Z"/><path class="cls-3" d="M92.85,21.6c-1-.87-8.83-7.5-8.77-8.84,0-.81,2.76-3.28,3.71-3.33a1,1,0,0,1,.61.3C91,11.79,96,19.59,96.27,20.16c.16.35,0,.8-.53,1.34,0,0-1.15,1.19-1.77.94A5,5,0,0,1,92.85,21.6Z"/><path class="cls-3" d="M98.2,18.65l-.08-.09C98.06,18.48,93,8.07,93.63,6.17c.22-.6,1.9-1.24,2.75-1.44.69-.16,1.15-.13,1.41.09,1.68,1.84,3.35,12.18,3.27,12.75s-.67.8-1.17,1C99.68,18.63,98.61,19,98.2,18.65Z"/><path class="cls-3" d="M80.48,24.65a.57.57,0,0,1-.17-.22c-.26-.57.23-2.89,1.23-3.25C83.27,20.55,92.27,25,92.35,25h0c.38.31.23.9.11,1.23s-.41,1-.93,1S81.83,25.77,80.48,24.65Z"/><path class="cls-1" d="M137.09,55.66a7.72,7.72,0,0,1-7.52-7.31l-.94-10.67a7.75,7.75,0,0,1,6.77-8.59l.61,0a7.44,7.44,0,0,1,6.68,4.33,3.18,3.18,0,0,1-1.44,4.41l-.11,0a3.25,3.25,0,0,1-1.23.24,3.74,3.74,0,0,1-3.2-2,1,1,0,0,0-.69-.42.8.8,0,0,0-.58.35,1.66,1.66,0,0,0-.28,1.09l.94,10.67c.06.77.58,1.3,1,1.3a1,1,0,0,0,.73-.65,3.6,3.6,0,0,1,3.34-2.63,3.3,3.3,0,0,1,.82.11,3.13,3.13,0,0,1,2.27,3.87l0,.1a7.89,7.89,0,0,1-1.74,3.29,7.17,7.17,0,0,1-4.78,2.46Z"/><path class="cls-1" d="M155.94,54a7.68,7.68,0,0,1-7.5-7.25L147.5,36a8.06,8.06,0,0,1,1.76-5.88,7.28,7.28,0,0,1,5-2.68,5.82,5.82,0,0,1,.59,0,7.71,7.71,0,0,1,7.53,7.28l.94,10.76A7.61,7.61,0,0,1,156.53,54,5.72,5.72,0,0,1,155.94,54Zm-1.16-20c-.45,0-.91.65-.84,1.47l.94,10.75c.07.78.59,1.31,1,1.31A1.25,1.25,0,0,0,156.8,46l-.94-10.75c-.07-.78-.58-1.31-1-1.31Z"/><path class="cls-1" d="M171.36,52.56a3.25,3.25,0,0,1-3.25-3l-1.69-19.33a3.67,3.67,0,0,1,3.31-4h.37a4.26,4.26,0,0,1,4,2.65l.81,2-.15-1.81a3.22,3.22,0,0,1,3-3.53H178a3.22,3.22,0,0,1,3.22,3l1.7,19.43a3.62,3.62,0,0,1-3.28,3.92l-.37,0a4.19,4.19,0,0,1-3.86-2.62L174.43,47l.18,2a3.29,3.29,0,0,1-3,3.57Z"/><path class="cls-1" d="M194.56,50.65a3.3,3.3,0,0,1-3.28-3.06l-1.42-16.27-1.14.1h-.29a3.26,3.26,0,0,1-3.25-3,3.3,3.3,0,0,1,3-3.59l8.84-.77h.28a3.3,3.3,0,0,1,.29,6.59l-1.13.1L197.84,47a3.3,3.3,0,0,1-3,3.63Z"/><path class="cls-1" d="M209.12,49.51a3.64,3.64,0,0,1-.56,0,3.22,3.22,0,0,1-2.09-1.33,3.34,3.34,0,0,1-.55-2.47l3.58-20.42a3.35,3.35,0,0,1,6.48-.55l7.09,19.47a3.3,3.3,0,0,1-2,4.24,3.34,3.34,0,0,1-1.1.19,3.28,3.28,0,0,1-3.05-2.1l-.7-1.94-3.55.31-.35,2A3.27,3.27,0,0,1,209.12,49.51Zm4.73-11.33h.08l-.05-.14Z"/><path class="cls-1" d="M234.35,47.15a7.72,7.72,0,0,1-7.52-7.31l-.94-10.67a7.75,7.75,0,0,1,6.77-8.59l.61,0A7.44,7.44,0,0,1,240,24.88a3.19,3.19,0,0,1-1.44,4.41l-.11,0a3.26,3.26,0,0,1-1.23.25,3.75,3.75,0,0,1-3.2-2,1,1,0,0,0-.69-.42.8.8,0,0,0-.58.35,1.66,1.66,0,0,0-.28,1.09l.94,10.67c.06.77.58,1.3,1,1.3a1,1,0,0,0,.73-.66,3.6,3.6,0,0,1,3.34-2.62,3.3,3.3,0,0,1,.82.11,3.13,3.13,0,0,1,2.27,3.87l0,.1a7.78,7.78,0,0,1-1.74,3.29A7.17,7.17,0,0,1,235,47.12Q234.67,47.15,234.35,47.15Z"/><path class="cls-1" d="M253.3,45.51A3.3,3.3,0,0,1,250,42.45l-1.43-16.27-1.14.1h-.28a3.26,3.26,0,0,1-3.25-3,3.3,3.3,0,0,1,3-3.59l8.83-.77H256a3.31,3.31,0,0,1,.3,6.6l-1.14.1,1.42,16.26a3.35,3.35,0,0,1-.71,2.41,3.26,3.26,0,0,1-2.27,1.22Z"/><path class="cls-1" d="M267.59,45a3.61,3.61,0,0,1-.33-7.2h.32a3.61,3.61,0,0,1,.31,7.2Z"/><path d="M142.42,19.89a.79.79,0,0,1-.72.87L139,21a.8.8,0,0,1-.86-.74.78.78,0,0,1,.72-.85l2.72-.24A.8.8,0,0,1,142.42,19.89Z"/><path d="M159.25,15.71a1.57,1.57,0,0,1,1.7,1.44l.4,4.66a1.57,1.57,0,0,1-1.42,1.73l-.89.08a.72.72,0,0,1-.77-.89.82.82,0,0,1,1.15-.57l.48.21-.46-5.25-3.11.27.38,4.36a1.57,1.57,0,0,1-1.4,1.73l-.88.07a1.56,1.56,0,0,1-1.68-1.46l-.37-4.19a1.57,1.57,0,0,1,1.41-1.72l1-.08-.21-2.46-1.78.16a.7.7,0,0,1-.76-.64.69.69,0,0,1,.64-.76l1.77-.16-.1-1.18a.75.75,0,0,1,.67-.82.74.74,0,0,1,.79.69l.1,1.18,1.27-.11a.7.7,0,0,1,.12,1.4l-1.27.11.22,2.46Zm-4,6.33-.39-4.52-1,.09.4,4.52Zm4.53-8.55a1,1,0,0,1,1.1.93l0,.4a.65.65,0,0,1-1.3.11l0-.2-1.44.13a.61.61,0,0,1-.11-1.22Z"/><path d="M173.59,13.51a1,1,0,0,1-.84,1.05l-2.66.23.68,7.68a.72.72,0,1,1-1.43.12l-1.1-12.66a.94.94,0,0,1,.86-1l3.13-.28a1,1,0,0,1,1,.87ZM172,9.87l-2.34.21.1,1.16,2.34-.2Zm-2,3.68,2.33-.2-.1-1.17-2.34.21Zm5.78,1.87a1,1,0,0,1,1,.87l.35,4a1,1,0,0,1-.85,1L173,21.6a.94.94,0,0,1-1-.86l-.35-4a1,1,0,0,1,.86-1Zm0,4.66-.3-3.36-2.49.22.29,3.36Zm2.15-12A1,1,0,0,1,179,9l1.11,12.66a.74.74,0,0,1-.65.8.73.73,0,0,1-.79-.67L178,14.1l-2.62.23a.94.94,0,0,1-1-.88l-.35-4a.94.94,0,0,1,.84-1Zm-.38,1.27-2.3.2.1,1.16,2.3-.2Zm-2,3.68,2.3-.2-.1-1.17-2.3.2Z"/><path d="M196.47,10.24a.91.91,0,0,1,.35,1.13.63.63,0,0,1-.93.3l-4.67-3.08-4.23,4a.64.64,0,0,1-1-.09.89.89,0,0,1,.1-1.12l4.28-4a1.21,1.21,0,0,1,1.48-.13ZM194.84,14a1,1,0,0,1,1,.89l.44,5a1,1,0,0,1-.85,1l-6.27.55a.93.93,0,0,1-1-.87l-.44-5a.93.93,0,0,1,.84-1l5.78-.53Zm-.42-1.16-5.65.5a.69.69,0,0,1-.12-1.37l5.65-.49a.68.68,0,0,1,.12,1.36Zm.41,6.74-.36-4.14-5.3.46.36,4.15Z"/><path d="M211.65,9.06a1.57,1.57,0,0,1,1.7,1.46l.56,6.4a1.58,1.58,0,0,1-1.42,1.74l-.7.06a1,1,0,0,1-1.07-1.1.77.77,0,0,1,1.15-.61l.63.34-.6-6.87-4,.36.67,7.69a.74.74,0,1,1-1.47.13l-.25-2.83-.91.08a.74.74,0,0,1-.13-1.47l.91-.08-.34-3.88-.68.06a.86.86,0,0,1-.89-1.08A.87.87,0,0,1,206.1,9l.11.06L206,6.54a.74.74,0,1,1,1.47-.13l.27,3Z"/><path d="M227.56,12.84l0,0,.55-5-3.07.27.71,8.09,4.56-.4a.72.72,0,0,1,.13,1.43l-4.65.41a1.43,1.43,0,0,1-1.53-1.31l-.71-8.09-.74.06a.71.71,0,0,1-.76-.65.72.72,0,0,1,.64-.8l.73-.06L223.29,5A.75.75,0,0,1,224,4.2a.76.76,0,0,1,.8.69l.16,1.8,3.35-.3.21-2a.72.72,0,0,1,.81-.65.77.77,0,0,1,.66.83l-.19,1.71.3,0a.72.72,0,0,1,.77.67.72.72,0,0,1-.64.78l-.58,0-.52,4.8a1.73,1.73,0,0,1-1.55,1.54l-.33,0a.74.74,0,0,1-.76-1A.67.67,0,0,1,227.56,12.84Z"/><path d="M245.5,10.87a.8.8,0,0,1-.72.88l-2.72.23a.8.8,0,0,1-.14-1.59l2.72-.24A.8.8,0,0,1,245.5,10.87Z"/><path d="M140.89,32.26a1.18,1.18,0,0,1-.5,1.73c-.56.23-1.31.11-2-1a2.88,2.88,0,0,0-2.56-1.28,3.17,3.17,0,0,0-2.63,3.6L134.1,46a3.21,3.21,0,0,0,3.22,3.12,2.93,2.93,0,0,0,2.35-1.86c.41-1,1-1.57,1.82-1.36a1.14,1.14,0,0,1,.81,1.52A5.77,5.77,0,0,1,141,49.83a5.18,5.18,0,0,1-3.46,1.81,5.73,5.73,0,0,1-6-5.47l-.93-10.67a5.74,5.74,0,0,1,4.94-6.42A5.44,5.44,0,0,1,140.89,32.26Z"/><path d="M160.34,32.88l.94,10.75a5.46,5.46,0,1,1-10.85.95l-.94-10.75a5.47,5.47,0,1,1,10.85-.95Zm-1.54,11-1-10.76a3,3,0,1,0-5.9.52l.94,10.76a3,3,0,1,0,5.91-.52Z"/><path d="M177.85,25.53a1.23,1.23,0,0,1,1.34,1.15l1.7,19.42a1.63,1.63,0,0,1-1.47,1.76,2.19,2.19,0,0,1-2.21-1.37L171.28,32l1.34,15.21a1.26,1.26,0,1,1-2.52.22L168.41,28a1.65,1.65,0,0,1,1.49-1.81,2.24,2.24,0,0,1,2.3,1.39L178,42,176.71,26.9A1.23,1.23,0,0,1,177.85,25.53Z"/><path d="M198.52,25.26a1.26,1.26,0,0,1-1.14,1.39l-3.13.28,1.6,18.26a1.3,1.3,0,1,1-2.58.22l-1.6-18.26-3.13.27a1.26,1.26,0,0,1-1.37-1.17,1.29,1.29,0,0,1,1.15-1.42l8.83-.78A1.29,1.29,0,0,1,198.52,25.26Z"/><path d="M221.2,42.85a1.3,1.3,0,0,1-.77,1.66,1.27,1.27,0,0,1-1.63-.76l-1.21-3.33L211,41l-.61,3.46a1.26,1.26,0,1,1-2.48-.45l3.57-20.43a1.37,1.37,0,0,1,2.64-.23Zm-9.77-4.45,5.27-.46-3.5-9.63Z"/><path d="M238.15,23.75a1.18,1.18,0,0,1-.49,1.73c-.58.23-1.32.11-2-1a2.88,2.88,0,0,0-2.56-1.28,3.17,3.17,0,0,0-2.63,3.6l.93,10.67a3.21,3.21,0,0,0,3.22,3.12,2.93,2.93,0,0,0,2.35-1.86c.41-1,1-1.57,1.82-1.36a1.14,1.14,0,0,1,.81,1.52,5.86,5.86,0,0,1-1.28,2.46,5.2,5.2,0,0,1-3.47,1.81,5.73,5.73,0,0,1-6-5.47L227.88,27a5.75,5.75,0,0,1,5-6.42A5.46,5.46,0,0,1,238.15,23.75Z"/><path d="M257.26,20.12a1.26,1.26,0,0,1-1.15,1.39l-3.13.28,1.6,18.26a1.29,1.29,0,1,1-2.57.22L250.41,22l-3.13.28a1.27,1.27,0,0,1-1.37-1.18,1.29,1.29,0,0,1,1.14-1.42l8.84-.78A1.29,1.29,0,0,1,257.26,20.12Z"/><path d="M267.44,37.75A1.61,1.61,0,1,1,266,39.5,1.59,1.59,0,0,1,267.44,37.75Z"/></svg>