<svg id="コンテンツ" data-name="コンテンツ" xmlns="http://www.w3.org/2000/svg" viewBox="0 0 350 64"><defs><style>.cls-1{fill:#fff;}.cls-2{fill:#fdfbff;}.cls-3{fill:#040000;}.cls-4{fill:#231815;}</style></defs><title>コンテンツ</title><path class="cls-1" d="M158,52.45a7.78,7.78,0,0,1-7.62-7.31l-.93-10.67a7.81,7.81,0,0,1,6.89-8.6q.32,0,.63,0a7.54,7.54,0,0,1,6.76,4.31,3.16,3.16,0,0,1-1.47,4.43l-.09,0a3.34,3.34,0,0,1-1.24.24,3.78,3.78,0,0,1-3.22-2,1,1,0,0,0-.74-.43A1.24,1.24,0,0,0,156,33.9L157,44.56a1.31,1.31,0,0,0,1.06,1.3,1,1,0,0,0,.79-.67,3.65,3.65,0,0,1,3.38-2.61,3.21,3.21,0,0,1,.81.1,3.11,3.11,0,0,1,2.29,3.89l0,.1A7.79,7.79,0,0,1,163.5,50a7.33,7.33,0,0,1-4.84,2.46Z"/><path class="cls-1" d="M171.29,51.29a7.73,7.73,0,0,1-7.6-7.25l-.94-10.76a8,8,0,0,1,1.8-5.9,7.5,7.5,0,0,1,5-2.67,6.08,6.08,0,0,1,.61,0A7.77,7.77,0,0,1,177.82,32l.94,10.76a7.86,7.86,0,0,1-1.93,6,7.6,7.6,0,0,1-4.93,2.51C171.7,51.28,171.49,51.29,171.29,51.29Zm-1.14-20c-.55,0-1,.73-.91,1.47l.94,10.76c.07.71.55,1.3,1.09,1.3a1.27,1.27,0,0,0,1-1.48l-1-10.76a1.3,1.3,0,0,0-1.08-1.3Z"/><path class="cls-1" d="M181.07,50.32a3.26,3.26,0,0,1-3.27-3L176.11,28a3.67,3.67,0,0,1,3.34-4l.39,0a4.29,4.29,0,0,1,4,2.64l.94,2.28-.18-2.08a3.2,3.2,0,0,1,.77-2.41,3.26,3.26,0,0,1,2.22-1.12h.29a3.23,3.23,0,0,1,3.24,3l1.7,19.42a3.56,3.56,0,0,1-.86,2.67,3.63,3.63,0,0,1-2.46,1.26l-.38,0a4.24,4.24,0,0,1-3.9-2.6l-1.06-2.57.2,2.3a3.29,3.29,0,0,1-3,3.56Z"/><path class="cls-1" d="M198.8,48.89a3.31,3.31,0,0,1-3.3-3.06l-1.43-16.27-1.2.11h-.29a3.3,3.3,0,0,1-.29-6.59l9-.79.28,0a3.34,3.34,0,0,1,3.28,3,3.27,3.27,0,0,1-3,3.56l-1.2.11,1.42,16.26a3.32,3.32,0,0,1-3,3.63Z"/><path class="cls-1" d="M208.68,47.9a4,4,0,0,1-4-3.63l-1.61-18.34A3.94,3.94,0,0,1,204,23a4,4,0,0,1,2.71-1.39l6.63-.58h.29a3.25,3.25,0,0,1,3.27,3,3.27,3.27,0,0,1-3,3.57l-4,.35.5,5.78,3.78-.33h.29a3.29,3.29,0,0,1,.28,6.57l-3.77.33.07.88,4-.35h.29a3.28,3.28,0,0,1,2.52,5.38,3.31,3.31,0,0,1-2.24,1.16l-6.63.58Z"/><path class="cls-1" d="M220.34,46.89a3.26,3.26,0,0,1-3.27-3l-1.69-19.33a3.67,3.67,0,0,1,3.34-4h.39a4.27,4.27,0,0,1,4,2.63l.95,2.28-.19-2.07a3.25,3.25,0,0,1,3-3.54h.29a3.24,3.24,0,0,1,3.24,3l1.7,19.42a3.64,3.64,0,0,1-3.32,3.92l-.38,0a4.24,4.24,0,0,1-3.9-2.6L223.42,41l.2,2.3a3.29,3.29,0,0,1-3,3.57Z"/><path class="cls-1" d="M238.07,45.46a3.33,3.33,0,0,1-3.31-3.07l-1.42-16.26-1.2.1-.3,0a3.27,3.27,0,0,1-3.27-3,3.37,3.37,0,0,1,.73-2.4,3.26,3.26,0,0,1,2.26-1.2l9-.79h.29a3.33,3.33,0,0,1,3.28,3,3.29,3.29,0,0,1-3,3.57l-1.2.1,1.42,16.27a3.35,3.35,0,0,1-.73,2.42,3.25,3.25,0,0,1-2.29,1.2Z"/><path class="cls-1" d="M251.28,44.61a7.63,7.63,0,0,1-7.41-5.13,3.44,3.44,0,0,1,.2-2.83,3.18,3.18,0,0,1,2.23-1.57,4.54,4.54,0,0,1,.58,0,4,4,0,0,1,3.43,2.32.85.85,0,0,0,.93.53h.22a1.31,1.31,0,0,0,.94-.38,1.88,1.88,0,0,0,.23-1.23c-.09-1-1.24-1.71-3.11-2.79-2.51-1.45-6-3.44-6.38-7.93a7.1,7.1,0,0,1,6.65-7.82q.36,0,.72,0a7.1,7.1,0,0,1,6.2,3.42,3.43,3.43,0,0,1,.33,2.62,3.17,3.17,0,0,1-1.62,1.89,3.52,3.52,0,0,1-1.55.37,4.16,4.16,0,0,1-3.06-1.54h0a1.37,1.37,0,0,0-.31,0h-.12c-.18,0-.55.05-.51.51.08.93,1.23,1.67,3.12,2.77,2.52,1.48,6,3.5,6.37,8,.42,4.83-2.58,8.5-7.31,8.91Z"/><path class="cls-1" d="M260.94,44.15a3.61,3.61,0,0,1-.31-7.2H261a3.6,3.6,0,0,1,.3,7.19Z"/><path class="cls-2" d="M128.11,62.43a14.57,14.57,0,0,1-14.56-14.55v-13a4.11,4.11,0,0,1,4.21-4.09h.43v-6a5.29,5.29,0,0,1,5.29-5.29h.27a5.29,5.29,0,0,1,8.71,0h.28A5.3,5.3,0,0,1,138,24.78v.31a5.3,5.3,0,0,1,4.63,5.25V47.88A14.57,14.57,0,0,1,128.11,62.43Z"/><path class="cls-1" d="M114.57,23.51a3,3,0,0,1-1.1-.21,6.63,6.63,0,0,1-1.78-1.23c-9.73-8.19-9.67-9.7-9.63-10.79.09-2.21,4-5.55,6-5.65h.14a3.29,3.29,0,0,1,2.09.81c3.12,2.44,8.28,10.7,8.56,11.31s.76,2.22-1,4A5,5,0,0,1,114.57,23.51Z"/><path class="cls-1" d="M119.14,19.83a3.17,3.17,0,0,1-2.1-.72l-.19-.18-.08-.09-.2-.23c-.07-.1-6-11.27-4.81-14.65.71-2,3.61-2.77,4.48-3a6.22,6.22,0,0,1,1.29-.16,3.4,3.4,0,0,1,2.22.76l.24.23c2.29,2.51,4.05,13.46,3.87,14.72a3.73,3.73,0,0,1-2.73,2.91A6,6,0,0,1,119.14,19.83Z"/><path class="cls-1" d="M111.93,28.25c-.09,0-10.36-1.27-12.6-3.13A3.07,3.07,0,0,1,98.5,24c-.72-1.64.2-3.86.3-4.11a4.08,4.08,0,0,1,2.31-2.41,3.68,3.68,0,0,1,1.27-.21c3.27,0,11.67,4.27,11.73,4.32l.22.17a3.38,3.38,0,0,1,.81,3.89,3.49,3.49,0,0,1-3.2,2.56Z"/><path class="cls-3" d="M137.37,24.91a2.82,2.82,0,0,0-1.76.6V22.22A2.87,2.87,0,0,0,131,20h0a2.87,2.87,0,1,0-5.74,0h0a2.92,2.92,0,0,0-1.76-.6,2.88,2.88,0,0,0-2.88,2.87v9.9a3.83,3.83,0,0,0-.41-.48,3.24,3.24,0,0,0-2.39-1A1.7,1.7,0,0,0,116,32.33v13a12.14,12.14,0,0,0,24.27,0V27.78A2.87,2.87,0,0,0,137.37,24.91Zm1.76,20.41a11,11,0,0,1-22,0V40.47h0a.88.88,0,0,0,0-.16v-8c0-.47.46-.55.74-.56a2.15,2.15,0,0,1,1.59.66,4.69,4.69,0,0,1,1.19,3.24v6a.56.56,0,1,0,1.12,0v-6c0-.12,0-.23,0-.35s0-.06,0-.1v-13a1.76,1.76,0,1,1,3.52,0v14a.54.54,0,0,0,.55.55.55.55,0,0,0,.56-.55V19.94a1.76,1.76,0,1,1,3.52,0V36.2a.54.54,0,0,0,.55.55.55.55,0,0,0,.56-.55v-14a1.76,1.76,0,1,1,3.52,0v14a.56.56,0,0,0,1.11,0V27.78a1.76,1.76,0,1,1,3.52,0Z"/><path class="cls-3" d="M113.25,17.66c-1-.88-8.82-7.51-8.77-8.85,0-.8,2.76-3.28,3.71-3.32.18,0,.35.09.62.29,2.63,2.06,7.6,9.86,7.86,10.43.16.35,0,.8-.53,1.34,0,.05-1.15,1.19-1.77.94A5.11,5.11,0,0,1,113.25,17.66Z"/><path class="cls-3" d="M118.6,14.7l-.08-.08c-.06-.09-5.17-10.5-4.48-12.39.22-.61,1.89-1.25,2.75-1.45a1.61,1.61,0,0,1,1.41.1c1.67,1.84,3.35,12.18,3.27,12.74s-.68.81-1.18,1C120.08,14.69,119,15.05,118.6,14.7Z"/><path class="cls-3" d="M100.88,20.7a.56.56,0,0,1-.17-.21c-.25-.58.24-2.9,1.23-3.26,1.73-.62,10.74,3.79,10.81,3.84h0c.37.32.22.9.11,1.23s-.41,1-.94,1S102.23,21.82,100.88,20.7Z"/><path class="cls-4" d="M161.94,29a1.17,1.17,0,0,1-.51,1.73c-.59.23-1.35.12-2.08-1a3,3,0,0,0-2.61-1.28,3.2,3.2,0,0,0-2.7,3.61L155,42.74a3.22,3.22,0,0,0,3.28,3.11,3,3,0,0,0,2.4-1.86c.42-1,1.06-1.57,1.86-1.37a1.15,1.15,0,0,1,.83,1.53A5.94,5.94,0,0,1,162,46.61a5.38,5.38,0,0,1-3.54,1.81A5.77,5.77,0,0,1,152.38,43l-.94-10.67a5.8,5.8,0,0,1,5.07-6.44A5.57,5.57,0,0,1,161.94,29Z"/><path class="cls-4" d="M175.83,30.13l.94,10.76a5.58,5.58,0,1,1-11.09,1l-.94-10.75a5.58,5.58,0,1,1,11.09-1Zm-1.6,11-.94-10.76a3.05,3.05,0,1,0-6,.53l.94,10.75a3.05,3.05,0,1,0,6-.52Z"/><path class="cls-4" d="M187.75,23.28a1.25,1.25,0,0,1,1.37,1.14l1.7,19.43a1.64,1.64,0,0,1-1.5,1.76,2.23,2.23,0,0,1-2.26-1.37l-6-14.53,1.33,15.21a1.29,1.29,0,1,1-2.57.23L178.1,25.81A1.68,1.68,0,0,1,179.63,24,2.31,2.31,0,0,1,182,25.38l5.92,14.33-1.32-15.06A1.26,1.26,0,0,1,187.75,23.28Z"/><path class="cls-4" d="M202.89,23.49a1.28,1.28,0,0,1-1.17,1.4l-3.2.28,1.6,18.26a1.32,1.32,0,1,1-2.63.23l-1.6-18.26-3.2.28a1.31,1.31,0,0,1-.23-2.6l9-.79A1.3,1.3,0,0,1,202.89,23.49Z"/><path class="cls-4" d="M215.27,40.78a1.27,1.27,0,0,1,1.4,1.14,1.29,1.29,0,0,1-1.17,1.4l-6.64.58a2,2,0,0,1-2.17-1.8l-1.61-18.35a2,2,0,0,1,1.83-2.15l6.63-.58a1.28,1.28,0,1,1,.23,2.54l-6,.53.86,9.77,5.76-.5a1.29,1.29,0,1,1,.23,2.57l-5.77.5.43,4.87Z"/><path class="cls-4" d="M227,19.84A1.25,1.25,0,0,1,228.39,21l1.7,19.42a1.64,1.64,0,0,1-1.51,1.76,2.22,2.22,0,0,1-2.25-1.37l-6-14.53,1.33,15.22a1.29,1.29,0,0,1-2.57.22l-1.69-19.33a1.67,1.67,0,0,1,1.52-1.82A2.28,2.28,0,0,1,221.24,22l5.93,14.32-1.32-15.06A1.26,1.26,0,0,1,227,19.84Z"/><path class="cls-4" d="M242.16,20.06A1.28,1.28,0,0,1,241,21.45l-3.2.28L239.39,40a1.32,1.32,0,1,1-2.63.23L235.16,22l-3.2.28a1.28,1.28,0,0,1-1.4-1.17,1.32,1.32,0,0,1,1.17-1.43l9-.79A1.31,1.31,0,0,1,242.16,20.06Z"/><path class="cls-4" d="M245.77,36.84a1.25,1.25,0,0,1,.89-1.79,2,2,0,0,1,1.89,1.25,2.91,2.91,0,0,0,3.09,1.57c2.06-.18,3.17-1.61,3-3.79-.4-4.54-8.87-4.34-9.49-10.73A5.08,5.08,0,0,1,250,17.72a5.17,5.17,0,0,1,5,2.42,1.2,1.2,0,0,1-.49,1.7,1.89,1.89,0,0,1-2.23-.74,2.54,2.54,0,0,0-2.08-.66,2.4,2.4,0,0,0-2.32,2.67c.39,4.45,8.94,4.43,9.49,10.73.36,4.1-2.21,6.46-5.49,6.75A5.7,5.7,0,0,1,245.77,36.84Z"/><path class="cls-4" d="M260.8,36.94a1.61,1.61,0,1,1,.28,3.2,1.59,1.59,0,0,1-1.72-1.44A1.61,1.61,0,0,1,260.8,36.94Z"/><path d="M154.42,16.46a.79.79,0,0,1-.72.87l-2.72.24a.8.8,0,0,1-.14-1.6l2.72-.23A.8.8,0,0,1,154.42,16.46Z"/><path d="M171.44,8.6a.81.81,0,0,1,.87.74l.73,8.33a1.59,1.59,0,0,1-1.42,1.73l-5.74.5a.76.76,0,0,1-.82-.71.74.74,0,0,1,.68-.83l5.71-.5-.63-7.19-5.27.46a1.4,1.4,0,0,1-1.49-1.28L164,9.24a.79.79,0,0,1,.7-.86.78.78,0,0,1,.84.72l0,.47,5.16-.45A.84.84,0,0,1,171.44,8.6Z"/><path d="M182.12,7.24,185,7a.86.86,0,0,1,.8.38,1.09,1.09,0,0,1,.13.93l-.33,1.06a.48.48,0,0,1-.62.32.5.5,0,0,1-.34-.62l.15-.44-2.49.21a.8.8,0,0,1-.14-1.59Zm7.95-.93a.82.82,0,0,1,.5,1l-3.49,9.9A2.47,2.47,0,0,1,185,18.9l-1.14.1a1,1,0,1,1,.48-1.93l.92.54,3.79-10.82A.78.78,0,0,1,190.07,6.31Z"/><path d="M207.87,8.46a.73.73,0,0,1-.67.81l-2.26.2.52,6A1.58,1.58,0,0,1,204,17.23l-1.28.11a.87.87,0,0,1-.89-1.11,1,1,0,0,1,1.46-.67l.61.31-.55-6.26-3.42.3a.76.76,0,0,1-.13-1.51l7.23-.63A.74.74,0,0,1,207.87,8.46ZM207,4.76a.73.73,0,0,1-.67.82l-6,.52a.74.74,0,0,1-.81-.69.75.75,0,0,1,.68-.81l6-.53A.74.74,0,0,1,207,4.76Z"/><path d="M217.22,4.17l2.85-.25a.85.85,0,0,1,.79.38,1.13,1.13,0,0,1,.14.93l-.34,1.06a.48.48,0,0,1-.62.32A.5.5,0,0,1,219.7,6l.16-.45-2.5.22A.8.8,0,0,1,216.5,5,.78.78,0,0,1,217.22,4.17Zm7.95-.93a.82.82,0,0,1,.5,1l-3.49,9.9a2.47,2.47,0,0,1-2.08,1.65l-1.14.09a1,1,0,0,1-1.05-1.26,1,1,0,0,1,1.54-.66l.91.54,3.79-10.82A.77.77,0,0,1,225.17,3.24Z"/><path d="M236.13,6.42a1.14,1.14,0,0,1-1,.77.75.75,0,0,1-.8-.69L234,2.66a.75.75,0,0,1,.66-.8.73.73,0,0,1,.8.67l.24,2.68.08-.41a.39.39,0,0,1,.49-.28.44.44,0,0,1,.28.54Zm6.1-4.73a.81.81,0,0,1,.51,1l-3,9.9a2.36,2.36,0,0,1-2,1.66l-1,.09a1,1,0,0,1-1-1.27,1,1,0,0,1,1.56-.6l.73.47,3.29-10.73A.8.8,0,0,1,242.23,1.69ZM237.93,7a.73.73,0,0,1-.8-.68l-.34-3.85a.72.72,0,1,1,1.44-.13l.23,2.64.1-.44a.38.38,0,0,1,.49-.28.42.42,0,0,1,.28.52l-.46,1.45A1.08,1.08,0,0,1,237.93,7Z"/><path d="M257.5,7.44a.82.82,0,0,1-.72.88l-2.73.23A.8.8,0,0,1,253.91,7l2.73-.24A.8.8,0,0,1,257.5,7.44Z"/></svg>