<svg id="カスタマイズ" data-name="カスタマイズ" xmlns="http://www.w3.org/2000/svg" viewBox="0 0 350 64"><defs><style>.cls-1{fill:#fff;}.cls-2{fill:#040000;}</style></defs><title>カスタマイズ</title><path class="cls-1" d="M147.72,53.05a7.73,7.73,0,0,1-7.52-7.31l-.93-10.67A7.74,7.74,0,0,1,146,26.48c.21,0,.41,0,.62,0a7.46,7.46,0,0,1,6.68,4.33,3.19,3.19,0,0,1-1.45,4.41l-.1,0a3.35,3.35,0,0,1-1.24.25,3.76,3.76,0,0,1-3.2-2,.93.93,0,0,0-.69-.42.82.82,0,0,0-.58.35,1.6,1.6,0,0,0-.27,1.09l.93,10.67c.07.77.58,1.3,1,1.3a1,1,0,0,0,.73-.65,3.59,3.59,0,0,1,3.34-2.62,3.23,3.23,0,0,1,.82.1,3.13,3.13,0,0,1,2.27,3.87l0,.1a7.78,7.78,0,0,1-1.74,3.29A7.17,7.17,0,0,1,148.36,53Z"/><path class="cls-1" d="M160.61,51.93a7.69,7.69,0,0,1-7.5-7.26l-1.35-15.42a3.25,3.25,0,0,1,2.93-3.53H155a3.28,3.28,0,0,1,3.23,3l1.35,15.43a1.32,1.32,0,0,0,1,1.3,1.26,1.26,0,0,0,.89-1.47l-1.35-15.42a3.22,3.22,0,0,1,.75-2.38A3.17,3.17,0,0,1,163.09,25l.27,0a3.27,3.27,0,0,1,3.23,3l1.35,15.42a7.6,7.6,0,0,1-6.74,8.53A5.83,5.83,0,0,1,160.61,51.93Z"/><path class="cls-1" d="M174,51.08a7.55,7.55,0,0,1-7.31-5.14,3.49,3.49,0,0,1,.21-2.85,3.09,3.09,0,0,1,2.2-1.54,3.24,3.24,0,0,1,.58,0,3.94,3.94,0,0,1,3.4,2.32.81.81,0,0,0,.88.54h.2A1.19,1.19,0,0,0,175,44a1.86,1.86,0,0,0,.22-1.25c-.09-1-1.22-1.72-3.05-2.8-2.46-1.46-5.83-3.45-6.26-7.93a7,7,0,0,1,6.54-7.8l.7,0a7,7,0,0,1,6.13,3.44,3.47,3.47,0,0,1,.31,2.61A3.13,3.13,0,0,1,178,32.09a3.41,3.41,0,0,1-1.55.38,4.09,4.09,0,0,1-3.05-1.56s0,0,0,0a1.33,1.33,0,0,0-.26,0H173a.51.51,0,0,0-.37.15.49.49,0,0,0-.09.35c.09,1,1.22,1.69,3.06,2.79,2.47,1.49,5.86,3.52,6.25,8a8.23,8.23,0,0,1-1.82,6.28,7.92,7.92,0,0,1-5.36,2.62Q174.34,51.08,174,51.08Z"/><path class="cls-1" d="M188,49.55a3.32,3.32,0,0,1-3.28-3.06l-1.42-16.27-1.14.1h-.29a3.25,3.25,0,0,1-3.24-3,3.29,3.29,0,0,1,3-3.59l8.83-.77h.28a3.32,3.32,0,0,1,3.26,3,3.27,3.27,0,0,1-3,3.56l-1.14.1,1.42,16.27a3.36,3.36,0,0,1-.71,2.4,3.21,3.21,0,0,1-2.28,1.22Z"/><path class="cls-1" d="M200.86,48.41a7.7,7.7,0,0,1-7.51-7.26l-.94-10.76a8.1,8.1,0,0,1,1.76-5.88,7.3,7.3,0,0,1,5-2.68l.59,0a7.72,7.72,0,0,1,7.54,7.28l.94,10.76a7.61,7.61,0,0,1-6.74,8.53A5.83,5.83,0,0,1,200.86,48.41Zm-1.16-20a.81.81,0,0,0-.57.36,1.71,1.71,0,0,0-.28,1.11l.94,10.75c.07.78.59,1.31,1,1.31a1.25,1.25,0,0,0,.9-1.47l-.94-10.76c-.07-.78-.59-1.3-1-1.3Z"/><path class="cls-1" d="M210.43,47.55a3.26,3.26,0,0,1-3.25-3l-1.75-20a3.29,3.29,0,0,1,3-3.56h.31a3.6,3.6,0,0,1,3.41,2.45l2.5,6.8,1.27-7.17a3.69,3.69,0,0,1,3.27-3h.29a3.26,3.26,0,0,1,3.25,3l1.74,20a3.26,3.26,0,0,1-.72,2.36,3.22,3.22,0,0,1-2.24,1.2h-.27a3.29,3.29,0,0,1-3.12-2.38,3.26,3.26,0,0,1-2.47,1.09,3.3,3.3,0,0,1-2-.66,3.26,3.26,0,0,1-2.92,2.88Z"/><path class="cls-1" d="M226.31,46.16A3.3,3.3,0,0,1,223,43.1l-1.74-19.84a3.41,3.41,0,0,1,.72-2.41,3.23,3.23,0,0,1,2.27-1.22h.29a3.3,3.3,0,0,1,3.28,3.06l1.74,19.84a3.3,3.3,0,0,1-3,3.63Z"/><path class="cls-1" d="M231.81,45.47a3.71,3.71,0,0,1-3-1.53,3.82,3.82,0,0,1-.53-3.42L233,26l-3,.26h-.27a3.27,3.27,0,0,1-2.5-5.34,3.21,3.21,0,0,1,2.21-1.17l7.19-.63H237a3.72,3.72,0,0,1,3,1.52,3.79,3.79,0,0,1,.56,3.37L235.8,38.56l3.43-.3h.28a3.27,3.27,0,0,1,.29,6.53l-7.66.67Z"/><path class="cls-1" d="M244.88,44.44a4,4,0,0,1-3.95-3.63l-1.61-18.35a4,4,0,0,1,3.61-4.31l6.49-.57h.29a3.24,3.24,0,0,1,3.24,3,3.29,3.29,0,0,1-3,3.57l-3.89.34.51,5.79,3.65-.32.28,0a3.29,3.29,0,0,1,.3,6.57l-3.66.32.08.89,3.89-.34.28,0a3.24,3.24,0,0,1,3.25,3,3.28,3.28,0,0,1-3,3.56l-6.5.57Z"/><path class="cls-1" d="M255.7,44.31a3.6,3.6,0,0,1-.33-7.19l.32,0A3.61,3.61,0,0,1,258.43,43,3.51,3.51,0,0,1,256,44.3Z"/><path d="M151.53,29.65c.33.75.21,1.4-.5,1.73s-1.32.11-2-1a2.87,2.87,0,0,0-2.56-1.28,3.18,3.18,0,0,0-2.63,3.6l.94,10.67A3.2,3.2,0,0,0,148,46.46a2.92,2.92,0,0,0,2.34-1.86c.41-1,1-1.56,1.83-1.36s1,.72.81,1.52a5.88,5.88,0,0,1-1.29,2.46A5.18,5.18,0,0,1,148.18,49a5.72,5.72,0,0,1-6-5.46l-.93-10.67a5.75,5.75,0,0,1,5-6.43A5.46,5.46,0,0,1,151.53,29.65Z"/><path d="M166,41.55a5.46,5.46,0,1,1-10.85,1l-1.35-15.42a1.24,1.24,0,1,1,2.46-.22l1.34,15.42a3.24,3.24,0,0,0,3.25,3.12,3.2,3.2,0,0,0,2.66-3.64l-1.35-15.42a1.25,1.25,0,1,1,2.49-.21Z"/><path d="M168.55,43.31a1.27,1.27,0,0,1,.87-1.8,1.93,1.93,0,0,1,1.85,1.26,2.86,2.86,0,0,0,3,1.57c2-.18,3.1-1.6,2.91-3.78-.4-4.54-8.69-4.36-9.31-10.75a5.23,5.23,0,0,1,9.65-3.19,1.2,1.2,0,0,1-.47,1.7c-.87.43-1.63-.13-2.19-.75a2.46,2.46,0,0,0-2-.66,2.38,2.38,0,0,0-2.27,2.67C171,34,179.35,34,179.9,40.33c.36,4.09-2.15,6.45-5.36,6.73A5.6,5.6,0,0,1,168.55,43.31Z"/><path d="M191.93,24.16a1.27,1.27,0,0,1-1.15,1.39l-3.13.28,1.6,18.26a1.3,1.3,0,1,1-2.58.22l-1.59-18.26-3.13.27a1.25,1.25,0,0,1-1.37-1.17,1.3,1.3,0,0,1,1.14-1.43l8.83-.77A1.31,1.31,0,0,1,191.93,24.16Z"/><path d="M205.25,27.27,206.2,38a5.46,5.46,0,1,1-10.85.95l-.94-10.75a5.46,5.46,0,1,1,10.84-.95Zm-1.54,11-.94-10.75a3,3,0,1,0-5.91.51l.94,10.76a3,3,0,1,0,5.91-.52Z"/><path d="M219.33,20.07a1.26,1.26,0,0,1,1.37,1.18l1.75,20a1.25,1.25,0,1,1-2.49.22l-1.07-12.28-2,11.07a1.3,1.3,0,0,1-2.51.22L210.59,30l1.07,12.17a1.25,1.25,0,1,1-2.49.21l-1.74-20a1.27,1.27,0,0,1,1.14-1.4,1.62,1.62,0,0,1,1.66,1.09l5.07,13.81,2.56-14.47A1.68,1.68,0,0,1,219.33,20.07Z"/><path d="M227.6,40.7a1.3,1.3,0,1,1-2.58.23l-1.73-19.85a1.29,1.29,0,0,1,1.16-1.45,1.3,1.3,0,0,1,1.41,1.23Z"/><path d="M238.61,21.37,233,38.81l6.44-.56a1.28,1.28,0,0,1,.22,2.54l-7.67.67a1.74,1.74,0,0,1-1.76-2.31l5.61-17.45-6,.52a1.26,1.26,0,0,1-.22-2.51l7.2-.63A1.76,1.76,0,0,1,238.61,21.37Z"/><path d="M251.32,37.33a1.27,1.27,0,0,1,.22,2.54l-6.49.57a2,2,0,0,1-2.13-1.8l-1.61-18.35a2,2,0,0,1,1.79-2.15l6.49-.56A1.25,1.25,0,0,1,251,18.72a1.27,1.27,0,0,1-1.14,1.4l-5.88.51.85,9.77,5.65-.49a1.29,1.29,0,0,1,1.37,1.17,1.28,1.28,0,0,1-1.15,1.4L245,33l.42,4.87Z"/><path d="M255.55,37.11a1.61,1.61,0,1,1-1.41,1.75A1.59,1.59,0,0,1,255.55,37.11Z"/><path class="cls-1" d="M120.07,63.75A14.57,14.57,0,0,1,105.52,49.2v-13a4.11,4.11,0,0,1,4.21-4.09h.42v-6a5.3,5.3,0,0,1,5.29-5.29h.28a5.29,5.29,0,0,1,8.71,0h.28A5.3,5.3,0,0,1,130,26.1v.31a5.3,5.3,0,0,1,4.63,5.25V49.2A14.57,14.57,0,0,1,120.07,63.75Z"/><path class="cls-1" d="M106.53,24.83a2.93,2.93,0,0,1-1.09-.21,6.63,6.63,0,0,1-1.78-1.23C93.93,15.2,94,13.69,94,12.6c.09-2.21,4-5.55,6-5.65h.14a3.39,3.39,0,0,1,2.09.8c3.12,2.45,8.28,10.71,8.56,11.32s.76,2.22-1,4A5,5,0,0,1,106.53,24.83Z"/><path class="cls-1" d="M111.11,21.15a3.17,3.17,0,0,1-2.1-.72l-.2-.18-.08-.09-.19-.23c-.07-.1-6-11.27-4.81-14.65.71-2,3.61-2.77,4.48-3a5.61,5.61,0,0,1,1.29-.16,3.4,3.4,0,0,1,2.22.76l.24.23c2.28,2.51,4.05,13.46,3.87,14.72a3.73,3.73,0,0,1-2.73,2.91A6,6,0,0,1,111.11,21.15Z"/><path class="cls-1" d="M103.9,29.57c-.09,0-10.36-1.27-12.6-3.13a3,3,0,0,1-.83-1.09c-.72-1.63.19-3.86.3-4.1a4.08,4.08,0,0,1,2.31-2.41,3.66,3.66,0,0,1,1.26-.21c3.28,0,11.68,4.27,11.74,4.32l.22.16a3.39,3.39,0,0,1,.81,3.9,3.5,3.5,0,0,1-3.2,2.56Z"/><path class="cls-2" d="M129.34,26.23a2.82,2.82,0,0,0-1.76.6V23.54a2.88,2.88,0,0,0-2.87-2.87,2.82,2.82,0,0,0-1.76.6h0a2.88,2.88,0,1,0-5.75,0h0a2.82,2.82,0,0,0-1.76-.6,2.88,2.88,0,0,0-2.87,2.87v9.9a3.45,3.45,0,0,0-2.8-1.46,1.7,1.7,0,0,0-1.83,1.67v13a12.14,12.14,0,0,0,24.27,0V29.1A2.87,2.87,0,0,0,129.34,26.23Zm1.76,20.41a11,11,0,0,1-22,0V41.79h0a.88.88,0,0,0,0-.16v-8c0-.48.46-.56.74-.56a2.15,2.15,0,0,1,1.59.66A4.74,4.74,0,0,1,112.57,37v6a.55.55,0,0,0,.56.55.54.54,0,0,0,.55-.55V37c0-.12,0-.23,0-.35a.31.31,0,0,0,0-.1v-13a1.76,1.76,0,0,1,3.52,0v14a.56.56,0,0,0,.56.55.55.55,0,0,0,.55-.55V21.26a1.76,1.76,0,0,1,3.52,0V37.52a.56.56,0,0,0,1.12,0v-14a1.76,1.76,0,0,1,3.52,0v14a.55.55,0,0,0,.55.55.56.56,0,0,0,.56-.55V29.1a1.76,1.76,0,1,1,3.52,0Z"/><path class="cls-2" d="M105.22,19c-1-.87-8.82-7.5-8.77-8.84,0-.8,2.76-3.28,3.71-3.32a.93.93,0,0,1,.61.29c2.64,2.06,7.61,9.86,7.87,10.43.16.35,0,.8-.53,1.34,0,.05-1.15,1.19-1.77.94A5,5,0,0,1,105.22,19Z"/><path class="cls-2" d="M110.57,16l-.08-.08c-.06-.09-5.17-10.5-4.49-12.39.23-.61,1.9-1.25,2.76-1.45a1.66,1.66,0,0,1,1.41.09c1.67,1.84,3.35,12.19,3.26,12.75s-.67.81-1.17,1C112.05,16,111,16.37,110.57,16Z"/><path class="cls-2" d="M92.85,22a.48.48,0,0,1-.17-.21c-.25-.58.24-2.9,1.23-3.26,1.73-.62,10.74,3.79,10.81,3.84h0c.37.32.22.9.1,1.23s-.4,1-.93,1S94.2,23.14,92.85,22Z"/><path class="cls-2" d="M139.91,17.74a.8.8,0,0,1-.72.88l-2.72.24a.8.8,0,0,1-.86-.74.79.79,0,0,1,.72-.86l2.72-.24A.8.8,0,0,1,139.91,17.74Z"/><path class="cls-2" d="M155.27,10a.78.78,0,0,1,.84.73l.79,9a1.59,1.59,0,0,1-1.43,1.74l-1,.08a.84.84,0,0,1-.89-1.07,1,1,0,0,1,1.39-.67l.4.22-.7-8.11L152.6,12l-1.1,8.38A1.85,1.85,0,0,1,149.85,22l-.3,0a.82.82,0,0,1-.85-1,.83.83,0,0,1,1.26-.49l.06,0,1.07-8.38-2.4.22a.73.73,0,0,1-.77-.68.72.72,0,0,1,.64-.8l2.74-.24.23-1.84a.73.73,0,0,1,.82-.63A.77.77,0,0,1,153,9l-.19,1.48,1.86-.16A.8.8,0,0,1,155.27,10Z"/><path class="cls-2" d="M173.25,19a.74.74,0,0,1-.6,1l-.53.05a2.26,2.26,0,0,1-2.22-1.31l-1.2-2.6L168,18.88a2.26,2.26,0,0,1-2,1.69l-.86.08a1,1,0,0,1-1-1.24,1,1,0,0,1,1.52-.62l.63.4,2.55-9.75-4.09.36a1.27,1.27,0,0,1-1.38-1.18l0-.54A.76.76,0,1,1,164.87,8l0,.32,4.37-.38,0-.15a.74.74,0,0,1,.93-.53.76.76,0,0,1,.54.94L169.24,14a.81.81,0,0,1,.58.47l1.92,4.2.2-.14A.89.89,0,0,1,173.25,19Z"/><path class="cls-2" d="M187.15,6.09a.79.79,0,0,1,.52,1l-1.51,5.22.72.2a.79.79,0,0,1,.55,1,.76.76,0,0,1-1,.53l-.76-.2-1.1,3.78a2.32,2.32,0,0,1-2,1.68l-.44,0a1,1,0,0,1-1-1.15.85.85,0,0,1,1.29-.56l.43.28,1.31-4.48-1.4-.39a.79.79,0,0,1-.54-1,.78.78,0,0,1,.94-.56l1.43.4,1-3.43-2.79.25-1,3.52a1.94,1.94,0,0,1-1.68,1.39l-.23,0a.82.82,0,0,1-.88-1,.63.63,0,0,1,1-.39l.14.09L182.07,6a.76.76,0,0,1,1-.54.8.8,0,0,1,.51,1l-.22.73,2.79-.25.08-.27A.76.76,0,0,1,187.15,6.09Z"/><path class="cls-2" d="M202.66,4.59a.8.8,0,0,1,.54,1l-2.64,10,.12.18a1,1,0,0,1,.75.86.93.93,0,0,1-.85,1,1,1,0,0,1-.93-.58l-1.91-3.36a.79.79,0,0,1,.28-1.07.74.74,0,0,1,1,.29l.42.74,1.86-7.09L196.47,7A1.36,1.36,0,0,1,195,5.78l0-.57a.77.77,0,1,1,1.53-.14l0,.42L201.76,5A.77.77,0,0,1,202.66,4.59Z"/><path class="cls-2" d="M218.67,3.46a1,1,0,0,1,0,1.66l-3.23,2.05a.83.83,0,0,1,.52.7l.66,7.53a.8.8,0,1,1-1.6.14L214.38,8a.85.85,0,0,1,0-.16l-2.09,1.32a.78.78,0,0,1-1.09-.25.83.83,0,0,1,.26-1.11L217,4.29l-.34-.21a.78.78,0,0,1,.77-1.35Z"/><path class="cls-2" d="M235.12,13a.89.89,0,0,1,1.31.38.74.74,0,0,1-.6,1l-.52,0a2.26,2.26,0,0,1-2.22-1.31l-1.21-2.6-.71,2.75a2.25,2.25,0,0,1-2,1.69l-.86.08a1,1,0,0,1-1-1.24,1,1,0,0,1,1.52-.62l.64.4,2.54-9.75L228,4.27a1.28,1.28,0,0,1-1.38-1.18l0-.54a.76.76,0,0,1,.68-.84.78.78,0,0,1,.83.71l0,.32,4.38-.38,0-.15a.72.72,0,0,1,.92-.53.78.78,0,0,1,.55,1l-1.54,5.88A.82.82,0,0,1,233,9l1.92,4.21Zm-.11-12,.91,1.69a.49.49,0,0,1-.2.69.58.58,0,0,1-.72-.24l-.9-1.7a.48.48,0,0,1,.22-.67A.51.51,0,0,1,235,1.05Zm2.33,1.57a.5.5,0,0,1-.2.69.56.56,0,0,1-.71-.25l-.91-1.69a.49.49,0,0,1,.21-.67.53.53,0,0,1,.71.23Z"/><path class="cls-2" d="M248.25,8.26a.8.8,0,0,1-.72.88l-2.72.24a.8.8,0,0,1-.14-1.6l2.72-.24A.8.8,0,0,1,248.25,8.26Z"/></svg>