<svg id="ダウンロード" data-name="ダウンロード" xmlns="http://www.w3.org/2000/svg" viewBox="0 0 350 64"><defs><style>.cls-1{fill:#fbfae9;}.cls-2{fill:#040000;}</style></defs><title>ダウンロード</title><path class="cls-1" d="M119.07,63.75A14.57,14.57,0,0,1,104.52,49.2v-13a4.11,4.11,0,0,1,4.21-4.09h.42v-6a5.3,5.3,0,0,1,5.29-5.29h.28a5.29,5.29,0,0,1,8.71,0h.28A5.3,5.3,0,0,1,129,26.1v.31a5.3,5.3,0,0,1,4.63,5.25V49.2A14.57,14.57,0,0,1,119.07,63.75Z"/><path class="cls-1" d="M105.53,24.83a2.93,2.93,0,0,1-1.09-.21,6.63,6.63,0,0,1-1.78-1.23C92.93,15.2,93,13.69,93,12.6c.09-2.21,4-5.55,6-5.65h.14a3.39,3.39,0,0,1,2.09.8c3.12,2.45,8.28,10.71,8.56,11.32s.76,2.22-1,4A5,5,0,0,1,105.53,24.83Z"/><path class="cls-1" d="M110.11,21.15a3.17,3.17,0,0,1-2.1-.72l-.2-.18-.08-.09-.19-.23c-.07-.1-6-11.27-4.81-14.65.71-2,3.61-2.77,4.48-3a5.61,5.61,0,0,1,1.29-.16,3.4,3.4,0,0,1,2.22.76l.24.23c2.28,2.51,4.05,13.46,3.87,14.72a3.73,3.73,0,0,1-2.73,2.91A6,6,0,0,1,110.11,21.15Z"/><path class="cls-1" d="M102.9,29.57c-.09,0-10.36-1.27-12.6-3.13a3,3,0,0,1-.83-1.09c-.72-1.63.19-3.86.3-4.1a4.08,4.08,0,0,1,2.31-2.41,3.66,3.66,0,0,1,1.26-.21c3.28,0,11.68,4.27,11.74,4.32l.22.16a3.39,3.39,0,0,1,.81,3.9,3.5,3.5,0,0,1-3.2,2.56Z"/><path class="cls-2" d="M128.34,26.23a2.82,2.82,0,0,0-1.76.6V23.54a2.88,2.88,0,0,0-2.87-2.87,2.82,2.82,0,0,0-1.76.6h0a2.88,2.88,0,1,0-5.75,0h0a2.82,2.82,0,0,0-1.76-.6,2.88,2.88,0,0,0-2.87,2.87v9.9a3.45,3.45,0,0,0-2.8-1.46,1.7,1.7,0,0,0-1.83,1.67v13a12.14,12.14,0,0,0,24.27,0V29.1A2.87,2.87,0,0,0,128.34,26.23Zm1.76,20.41a11,11,0,0,1-22,0V41.79h0a.88.88,0,0,0,0-.16v-8c0-.48.46-.56.74-.56a2.15,2.15,0,0,1,1.59.66A4.74,4.74,0,0,1,111.57,37v6a.55.55,0,0,0,.56.55.54.54,0,0,0,.55-.55V37c0-.12,0-.23,0-.35a.31.31,0,0,0,0-.1v-13a1.76,1.76,0,0,1,3.52,0v14a.56.56,0,0,0,.56.55.55.55,0,0,0,.55-.55V21.26a1.76,1.76,0,0,1,3.52,0V37.52a.56.56,0,0,0,1.12,0v-14a1.76,1.76,0,0,1,3.52,0v14a.55.55,0,0,0,.55.55.56.56,0,0,0,.56-.55V29.1a1.76,1.76,0,1,1,3.52,0Z"/><path class="cls-2" d="M104.22,19c-1-.87-8.82-7.5-8.77-8.84,0-.8,2.76-3.28,3.71-3.32a.93.93,0,0,1,.61.29c2.64,2.06,7.61,9.86,7.87,10.43.16.35,0,.8-.53,1.34,0,.05-1.15,1.19-1.77.94A5,5,0,0,1,104.22,19Z"/><path class="cls-2" d="M109.57,16l-.08-.08c-.06-.09-5.17-10.5-4.49-12.39.23-.61,1.9-1.25,2.76-1.45a1.66,1.66,0,0,1,1.41.09c1.67,1.84,3.35,12.19,3.26,12.75s-.67.81-1.17,1C111.05,16,110,16.37,109.57,16Z"/><path class="cls-2" d="M91.85,22a.48.48,0,0,1-.17-.21c-.25-.58.24-2.9,1.23-3.26,1.73-.62,10.74,3.79,10.81,3.84h0c.37.32.22.9.1,1.23s-.4,1-.93,1S93.2,23.14,91.85,22Z"/><path class="cls-1" d="M142.91,53.37A3.68,3.68,0,0,1,139.23,50l-1.65-18.89a3.71,3.71,0,0,1,3.36-4L144,26.8l.68,0a7.22,7.22,0,0,1,7.14,6.77l1,11.64a7.38,7.38,0,0,1-1.59,5.29,7.08,7.08,0,0,1-4.94,2.64l-3.09.24Zm2.6-6.76.24,0a.68.68,0,0,0,.45-.25.86.86,0,0,0,.17-.6l-1-11.71a.77.77,0,0,0-.71-.73l-.29,0Z"/><path class="cls-1" d="M159,52.07a7.68,7.68,0,0,1-7.5-7.26l-.94-10.75a7.7,7.7,0,0,1,6.71-8.56,5.83,5.83,0,0,1,.59,0,7.71,7.71,0,0,1,7.53,7.29l.95,10.75A7.61,7.61,0,0,1,159.57,52,5.68,5.68,0,0,1,159,52.07Zm-1.16-20a.81.81,0,0,0-.56.36,1.67,1.67,0,0,0-.28,1.11l.94,10.76c.07.78.59,1.3,1,1.3a1.25,1.25,0,0,0,.9-1.47l-.95-10.76a1.29,1.29,0,0,0-1-1.3Z"/><path class="cls-1" d="M172.43,50.76a3.42,3.42,0,0,1-3.29-2.44L163.28,29.2a3.22,3.22,0,0,1,.19-2.48,3.27,3.27,0,0,1,2-1.65,3,3,0,0,1,.95-.15,3.31,3.31,0,0,1,3.13,2.33l1.69,5.49.72-5.79a3.46,3.46,0,0,1,6.77-.58L180.43,32l.73-5.86a3.27,3.27,0,1,1,6.47.9L185.14,47a3.39,3.39,0,0,1-6.63.53l-1.89-6.12-.78,6.31A3.42,3.42,0,0,1,172.43,50.76Z"/><path class="cls-1" d="M190.78,49.18a3.26,3.26,0,0,1-3.25-3l-1.69-19.33a3.66,3.66,0,0,1,3.31-4,2.42,2.42,0,0,1,.38,0,4.23,4.23,0,0,1,3.95,2.65l.82,2-.16-1.81a3.22,3.22,0,0,1,3-3.53h.29a3.23,3.23,0,0,1,3.22,3l1.7,19.42A3.62,3.62,0,0,1,199,48.47l-.37,0a4.2,4.2,0,0,1-3.87-2.61l-.94-2.3.18,2a3.27,3.27,0,0,1-3,3.56Z"/><path class="cls-1" d="M205.16,47.92a4.35,4.35,0,0,1-4.33-4L199.2,25.19a3.35,3.35,0,0,1,.77-2.47,3.21,3.21,0,0,1,2.21-1.15l.29,0a3.32,3.32,0,0,1,3.31,3.06l1.45,16.54,4.12-.36h.29a3.29,3.29,0,0,1,.28,6.56l-6.37.56Z"/><path class="cls-1" d="M220.26,46.71a7.69,7.69,0,0,1-7.5-7.26l-.94-10.76a7.71,7.71,0,0,1,6.71-8.56l.59,0a7.73,7.73,0,0,1,7.54,7.28l.94,10.76a7.61,7.61,0,0,1-6.75,8.53A5.68,5.68,0,0,1,220.26,46.71Zm-1.16-20a.81.81,0,0,0-.56.36,1.71,1.71,0,0,0-.28,1.11l.94,10.76c.07.78.59,1.3,1,1.3a1.25,1.25,0,0,0,.9-1.47L220.19,28c-.07-.78-.59-1.3-1-1.3Z"/><path class="cls-1" d="M229.51,46.05a3.64,3.64,0,0,1-.56,0,3.27,3.27,0,0,1-2.64-3.8l3.57-20.42A3.37,3.37,0,0,1,233.21,19a3.32,3.32,0,0,1,3.16,2.26l7.09,19.47a3.3,3.3,0,0,1-2,4.24,3.34,3.34,0,0,1-1.1.19,3.27,3.27,0,0,1-3-2.11l-.71-1.93-3.55.31-.34,1.94A3.28,3.28,0,0,1,229.51,46.05Zm4.73-11.33h.08l0-.14Z"/><path class="cls-1" d="M245.53,44.39A3.69,3.69,0,0,1,241.84,41l-1.65-18.89a3.7,3.7,0,0,1,3.36-4l3.08-.27.68,0a7.21,7.21,0,0,1,7.13,6.76l1,11.64a7.29,7.29,0,0,1-6.53,7.94l-3.1.24Zm2.6-6.76.23,0a.66.66,0,0,0,.45-.25.83.83,0,0,0,.18-.6l-1-11.71a.77.77,0,0,0-.71-.73l-.29,0Z"/><path class="cls-1" d="M257.14,44.19a3.61,3.61,0,0,1-.32-7.2h.31a3.6,3.6,0,0,1,.32,7.19Z"/><path d="M150.85,43.35a5.26,5.26,0,0,1-4.71,5.77l-3.07.24a1.71,1.71,0,0,1-1.85-1.56l-1.65-18.88a1.69,1.69,0,0,1,1.55-1.85l3.07-.27a5.2,5.2,0,0,1,5.64,4.83Zm-2.48.22-1-11.72a2.75,2.75,0,0,0-2.93-2.54l-2.23.19,1.52,17.28,2.22-.2A2.75,2.75,0,0,0,148.37,43.57Z"/><path d="M163.38,30.93l.94,10.76a5.46,5.46,0,1,1-10.85,1l-.94-10.76a5.47,5.47,0,1,1,10.85-.95Zm-1.54,11-.94-10.75a3,3,0,1,0-5.91.52l.94,10.75a3,3,0,1,0,5.91-.52Z"/><path d="M184.55,23.3a1.24,1.24,0,0,1,1.1,1.43l-2.49,20a1.39,1.39,0,0,1-2.72.23l-4.65-15-1.94,15.52a1.44,1.44,0,0,1-2.81.25l-5.85-19.09A1.28,1.28,0,0,1,166,25a1.26,1.26,0,0,1,1.57.85L172,40.23l1.86-15a1.47,1.47,0,0,1,2.87-.25l4.49,14.54,1.89-15.07A1.24,1.24,0,0,1,184.55,23.3Z"/><path d="M197.28,22.15a1.24,1.24,0,0,1,1.34,1.15l1.7,19.42a1.63,1.63,0,0,1-1.47,1.76,2.18,2.18,0,0,1-2.21-1.37l-5.93-14.54L192,43.78a1.27,1.27,0,1,1-2.52.22l-1.69-19.33a1.67,1.67,0,0,1,1.49-1.82,2.25,2.25,0,0,1,2.31,1.39l5.82,14.34-1.32-15.06A1.25,1.25,0,0,1,197.28,22.15Z"/><path d="M205.41,41.32l6.11-.54a1.29,1.29,0,0,1,.23,2.57l-6.38.56a2.35,2.35,0,0,1-2.55-2.19L201.19,23a1.31,1.31,0,1,1,2.6-.23Z"/><path d="M224.66,25.57l.94,10.76a5.46,5.46,0,1,1-10.85,1l-.94-10.76a5.47,5.47,0,1,1,10.85-.95Zm-1.54,11-.94-10.75a3,3,0,1,0-5.91.51l.94,10.76a3,3,0,1,0,5.91-.52Z"/><path d="M241.58,39.38a1.29,1.29,0,0,1-.77,1.67,1.26,1.26,0,0,1-1.62-.76L238,37l-6.61.58L230.76,41a1.26,1.26,0,1,1-2.48-.44l3.57-20.43a1.36,1.36,0,0,1,2.63-.23Zm-9.76-4.44,5.27-.46-3.5-9.63Z"/><path d="M253.46,34.37a5.26,5.26,0,0,1-4.71,5.77l-3.07.24a1.7,1.7,0,0,1-1.85-1.55l-1.65-18.89a1.69,1.69,0,0,1,1.55-1.85l3.07-.27a5.2,5.2,0,0,1,5.64,4.84Zm-2.48.22-1-11.72A2.75,2.75,0,0,0,247,20.33l-2.22.19,1.51,17.28,2.22-.2A2.75,2.75,0,0,0,251,34.59Z"/><path d="M257,37a1.61,1.61,0,1,1-1.41,1.75A1.59,1.59,0,0,1,257,37Z"/><path class="cls-1" d="M142.91,17.74a.8.8,0,0,1-.72.88l-2.72.24a.8.8,0,0,1-.86-.74.79.79,0,0,1,.72-.86l2.72-.24A.8.8,0,0,1,142.91,17.74Z"/><path class="cls-1" d="M158.47,8.86a.8.8,0,0,1,.52,1L157.48,15l.78.22a.8.8,0,0,1,.54,1,.76.76,0,0,1-.94.54l-.82-.22-1.1,3.8a2.31,2.31,0,0,1-2,1.68l-.44,0a1,1,0,0,1-1-1.15.85.85,0,0,1,1.29-.56l.43.29,1.31-4.51-1.35-.37a.79.79,0,0,1-.54-1,.77.77,0,0,1,.93-.56l1.39.39,1-3.42-2.73.25-1,3.52a2,2,0,0,1-1.69,1.39l-.22,0a.84.84,0,0,1-.89-1,.66.66,0,0,1,1.05-.4l.11.1,1.87-6.38a.74.74,0,0,1,.94-.53.8.8,0,0,1,.53,1l-.22.73,2.74-.24.08-.28A.77.77,0,0,1,158.47,8.86Zm1.16-.95.93,1.69a.51.51,0,0,1-.23.69.57.57,0,0,1-.71-.25l-.91-1.69a.49.49,0,0,1,.23-.67A.51.51,0,0,1,159.63,7.91ZM162,9.48a.48.48,0,0,1-.2.68.56.56,0,0,1-.72-.24l-.9-1.69a.47.47,0,0,1,.2-.67.53.53,0,0,1,.71.23Z"/><path class="cls-1" d="M174.78,7.81a.8.8,0,0,1,.54,1l-2.58,10a2.26,2.26,0,0,1-2,1.69l-1,.08a1,1,0,0,1-1-1.19,1.09,1.09,0,0,1,1.51-.77l.77.35,2.35-9-5.31.46.27,3.07a.78.78,0,0,1-.72.85.79.79,0,0,1-.84-.72l-.37-4.19a.78.78,0,0,1,1.42-.53L170,8.63l-.09-1.08a.77.77,0,1,1,1.54-.13l.1,1.08,2.32-.21A.77.77,0,0,1,174.78,7.81Z"/><path class="cls-1" d="M182.9,7.45l2.84-.25a.86.86,0,0,1,.8.38,1.12,1.12,0,0,1,.13.93l-.33,1.06a.5.5,0,0,1-.63.32.51.51,0,0,1-.34-.62l.16-.44L183,9a.8.8,0,1,1-.14-1.59Zm7.95-.93a.82.82,0,0,1,.49,1l-3.48,9.9a2.49,2.49,0,0,1-2.09,1.65l-1.14.1a1,1,0,1,1,.49-1.93l.91.54L189.83,7A.77.77,0,0,1,190.85,6.52Z"/><path class="cls-1" d="M205.75,5.23a.79.79,0,0,1,.84.72l.87,9.88a.81.81,0,0,1-.71.88.78.78,0,0,1-.83-.63l-5.51.48a.79.79,0,0,1-1.58,0L198,6.71a.78.78,0,1,1,1.56-.14v0L205,6.13v0A.79.79,0,0,1,205.75,5.23Zm-.59,2.42-5.49.48.6,6.91,5.5-.49Z"/><path class="cls-1" d="M223.48,9.54a.75.75,0,0,1-.68.81l-8.42.74a.76.76,0,0,1-.81-.69.77.77,0,0,1,.68-.82l8.42-.73A.75.75,0,0,1,223.48,9.54Z"/><path class="cls-1" d="M238,7.72a.8.8,0,0,1,.42,1,.79.79,0,0,1-1,.45l-3.8-1.57-.07,0,.57,6.53a.79.79,0,0,1-.72.85.78.78,0,0,1-.84-.72L231.55,3l-.46,0a.74.74,0,0,1-.8-.7.74.74,0,0,1,.67-.82l.63-.06a1.41,1.41,0,0,1,1.51,1.3l.31,3.53a.76.76,0,0,1,.77-.1Zm-1.8-4.09L235.3,2a.52.52,0,0,1,.2-.69.55.55,0,0,1,.71.25l.91,1.69a.47.47,0,0,1-.2.67A.57.57,0,0,1,236.2,3.63Zm2.34-.55a.49.49,0,0,1-.2.67.54.54,0,0,1-.71-.24l-.91-1.68a.5.5,0,0,1,.2-.68.55.55,0,0,1,.72.24Z"/><path class="cls-1" d="M251.25,8.26a.8.8,0,0,1-.72.88l-2.72.24a.8.8,0,0,1-.14-1.6l2.72-.24A.8.8,0,0,1,251.25,8.26Z"/></svg>