<svg id="導入事例" data-name="導入事例" xmlns="http://www.w3.org/2000/svg" viewBox="0 0 350 64"><defs><style>.cls-1{fill:#fdfbff;}.cls-2{fill:#fff;}.cls-3{fill:#040000;}</style></defs><title>導入事例</title><path class="cls-1" d="M134.11,62.59A14.57,14.57,0,0,1,119.55,48v-13A4.11,4.11,0,0,1,123.76,31h.43v-6a5.29,5.29,0,0,1,5.29-5.29h.27a5.27,5.27,0,0,1,8.71,0h.28A5.3,5.3,0,0,1,144,24.94v.31a5.3,5.3,0,0,1,4.63,5.25V48A14.57,14.57,0,0,1,134.11,62.59Z"/><path class="cls-2" d="M120.57,23.67a3,3,0,0,1-1.1-.21,6.51,6.51,0,0,1-1.78-1.24C108,14,108,12.53,108.06,11.43c.09-2.2,4-5.54,6-5.64h.14a3.34,3.34,0,0,1,2.09.8c3.12,2.45,8.28,10.71,8.56,11.32s.76,2.22-1,4A5,5,0,0,1,120.57,23.67Z"/><path class="cls-2" d="M125.14,20a3.17,3.17,0,0,1-2.1-.72l-.19-.18-.08-.09-.2-.24c-.07-.09-6-11.26-4.81-14.64.71-2,3.61-2.78,4.48-3A5.61,5.61,0,0,1,123.53,1a3.34,3.34,0,0,1,2.22.76L126,2c2.29,2.51,4,13.46,3.87,14.72a3.73,3.73,0,0,1-2.73,2.91A6,6,0,0,1,125.14,20Z"/><path class="cls-2" d="M117.93,28.41c-.09,0-10.36-1.27-12.6-3.13a3,3,0,0,1-.83-1.09c-.72-1.63.2-3.86.3-4.1a4.08,4.08,0,0,1,2.31-2.41,3.68,3.68,0,0,1,1.27-.21c3.27,0,11.67,4.27,11.73,4.32l.22.16a3.38,3.38,0,0,1,.81,3.89,3.5,3.5,0,0,1-3.2,2.57Z"/><path class="cls-3" d="M143.37,25.06a2.82,2.82,0,0,0-1.76.61V22.38a2.88,2.88,0,0,0-2.87-2.87,2.82,2.82,0,0,0-1.76.6v0a2.87,2.87,0,1,0-5.74,0v0a2.88,2.88,0,0,0-4.64,2.27v9.9a3.45,3.45,0,0,0-2.8-1.46A1.7,1.7,0,0,0,122,32.49v13a12.14,12.14,0,0,0,24.27,0V27.94A2.88,2.88,0,0,0,143.37,25.06Zm1.76,20.42a11,11,0,0,1-22,0V40.62h0a.88.88,0,0,0,0-.16v-8c0-.48.46-.56.74-.56a2.15,2.15,0,0,1,1.59.66,4.69,4.69,0,0,1,1.19,3.24v6a.56.56,0,0,0,1.12,0v-6c0-.12,0-.23,0-.35s0-.06,0-.1v-13a1.76,1.76,0,0,1,3.52,0v14a.55.55,0,0,0,.55.55.56.56,0,0,0,.56-.55V20.09a1.76,1.76,0,0,1,3.52,0V36.36a.55.55,0,0,0,.55.55.56.56,0,0,0,.56-.55v-14a1.76,1.76,0,1,1,3.52,0v14a.56.56,0,0,0,1.11,0V27.94a1.76,1.76,0,1,1,3.52,0Z"/><path class="cls-3" d="M119.25,17.81c-1-.87-8.82-7.5-8.77-8.84,0-.8,2.76-3.28,3.71-3.32a1,1,0,0,1,.62.29c2.63,2.06,7.6,9.86,7.86,10.43.16.35,0,.8-.53,1.34,0,.05-1.15,1.19-1.77.94A5,5,0,0,1,119.25,17.81Z"/><path class="cls-3" d="M124.6,14.86l-.08-.08c-.06-.09-5.17-10.5-4.48-12.39.22-.61,1.89-1.25,2.75-1.45A1.66,1.66,0,0,1,124.2,1c1.67,1.84,3.35,12.19,3.27,12.75s-.68.81-1.18,1C126.08,14.85,125,15.21,124.6,14.86Z"/><path class="cls-3" d="M106.88,20.86a.78.78,0,0,1-.17-.21c-.25-.58.24-2.9,1.23-3.26,1.73-.62,10.74,3.78,10.81,3.84h0c.37.32.22.9.11,1.23s-.41,1-.94,1S108.23,22,106.88,20.86Z"/><path class="cls-1" d="M160.86,52.93a4,4,0,0,1-4-3.64l-1.61-18.35a4,4,0,0,1,3.61-4.31l6.49-.57h.29a3.23,3.23,0,0,1,3.24,3,3.27,3.27,0,0,1-.73,2.39A3.24,3.24,0,0,1,166,32.59l-3.88.34.5,5.79,3.65-.32h.29a3.29,3.29,0,0,1,.29,6.56l-3.65.32.07.89,3.89-.34h.29a3.23,3.23,0,0,1,3.24,3,3.27,3.27,0,0,1-.73,2.39,3.2,3.2,0,0,1-2.23,1.17l-6.49.57Z"/><path class="cls-1" d="M171.86,52.37a3.26,3.26,0,0,1-3-4.42l3.68-9.3-5-8.12a3.27,3.27,0,0,1,.95-4.41l.1-.07a3.32,3.32,0,0,1,1.68-.46A3.23,3.23,0,0,1,173,27.13l2.46,4,1.74-4.38a3.25,3.25,0,0,1,3-2.07,3.37,3.37,0,0,1,1.17.22,3.27,3.27,0,0,1,1.81,4.28l-3.48,8.87,5.15,8.38a3.29,3.29,0,0,1-1,4.42l-.1.06a3.21,3.21,0,0,1-4.42-1.08l-2.64-4.28-1.86,4.72A3.26,3.26,0,0,1,171.86,52.37Z"/><path class="cls-1" d="M186.39,51a3.77,3.77,0,0,1-.57-.05,3.22,3.22,0,0,1-2.08-1.33,3.33,3.33,0,0,1-.55-2.47l3.57-20.42a3.37,3.37,0,0,1,3.33-2.81,3.32,3.32,0,0,1,3.16,2.26l7.09,19.47a3.31,3.31,0,0,1-2,4.24,3.39,3.39,0,0,1-1.1.19,3.27,3.27,0,0,1-3-2.11L193.5,46,190,46.3l-.34,2A3.28,3.28,0,0,1,186.39,51Zm4.73-11.33h.08l0-.14Z"/><path class="cls-1" d="M202,49.42a3.26,3.26,0,0,1-3.24-3l-1.75-20a3.27,3.27,0,0,1,.73-2.39A3.2,3.2,0,0,1,200,22.89l.31,0a3.61,3.61,0,0,1,3.41,2.46l2.5,6.8L207.48,25a3.67,3.67,0,0,1,3.27-3l.28,0a3.26,3.26,0,0,1,3.25,3l1.75,20a3.32,3.32,0,0,1-.72,2.37,3.23,3.23,0,0,1-2.25,1.19h-.27a3.29,3.29,0,0,1-3.12-2.37,3.31,3.31,0,0,1-4.44.43,3.31,3.31,0,0,1-.71,1.69,3.21,3.21,0,0,1-2.22,1.18Z"/><path class="cls-1" d="M217.91,48.09a3.34,3.34,0,0,1-3.29-3L213,25.9a4,4,0,0,1,3.6-4.31l2.78-.24c.22,0,.43,0,.65,0a7.07,7.07,0,0,1,4.65,1.73,7.51,7.51,0,0,1,2.54,5l.62,7.14a7.41,7.41,0,0,1-1.62,5.32,7.12,7.12,0,0,1-4.93,2.62l-.21,0,.12,1.35a3.3,3.3,0,0,1-3,3.6Zm2.55-11.51.2,0a.74.74,0,0,0,.6-.82l-.62-7.14a.75.75,0,0,0-.69-.7l-.25,0Z"/><path class="cls-1" d="M231.25,46.77a4.35,4.35,0,0,1-4.33-4L225.28,24a3.35,3.35,0,0,1,.78-2.47,3.26,3.26,0,0,1,2.21-1.16h.29a3.32,3.32,0,0,1,3.31,3.06L233.32,40l4.12-.36.29,0a3.29,3.29,0,0,1,.28,6.57l-6.38.56Z"/><path class="cls-1" d="M243.14,45.73a4,4,0,0,1-4-3.63l-1.6-18.35a4,4,0,0,1,3.6-4.32l6.49-.56.29,0a3.25,3.25,0,0,1,3.25,3,3.36,3.36,0,0,1-.73,2.39,3.22,3.22,0,0,1-2.24,1.17l-3.88.34.51,5.79,3.65-.32h.28a3.29,3.29,0,0,1,.29,6.56l-3.65.32.08.89,3.88-.34h.29a3.25,3.25,0,0,1,3.25,3,3.36,3.36,0,0,1-.73,2.39A3.22,3.22,0,0,1,250,45.14l-6.49.57Z"/><path class="cls-1" d="M254,45.6a3.61,3.61,0,0,1-.32-7.2H254a3.6,3.6,0,0,1,.31,7.19Z"/><path d="M161.19,17.51a.8.8,0,0,1-.72.88l-2.72.24a.8.8,0,0,1-.14-1.6l2.72-.24A.8.8,0,0,1,161.19,17.51Z"/><path d="M170.09,9.6a.52.52,0,0,1-.56-.48.51.51,0,0,1,.47-.56l2.05-.18a.51.51,0,0,1,.55.47.52.52,0,0,1-.46.57Zm.91,7a.56.56,0,0,1-.82.11.68.68,0,0,1-.12-.91l1.36-1.91-.2-2.28-.9.08a.6.6,0,0,1-.1-1.2l1.31-.12a1,1,0,0,1,1,.89l.22,2.56.66.67a.8.8,0,0,0,.62.21l6-.52a.59.59,0,0,1,.1,1.17l-6.2.54a2,2,0,0,1-1.61-.6l-.27-.25Zm9.2-.17a.64.64,0,0,1,.69.59.65.65,0,0,1-.57.72l-1.28.11.27,3.1a.76.76,0,0,1-.67.82.74.74,0,0,1-.79-.69l-.27-3.1-6.6.57a.63.63,0,0,1-.69-.6.64.64,0,0,1,.57-.71l6.6-.57,0-.24a.74.74,0,0,1,.66-.81.75.75,0,0,1,.8.69l0,.23Zm-6.72-7.08a.49.49,0,0,1-.09-1l1.32-.12-.21-.2a.41.41,0,0,1,.1-.67.79.79,0,0,1,.93.15l.06,0a.53.53,0,0,1,.1.58l1.06-.09.42-.59a.88.88,0,0,1,.93-.37.4.4,0,0,1,.24.62l-.15.22,1.21-.11a.5.5,0,0,1,.09,1l-2.71.23-.27.39,2.13-.19a.78.78,0,0,1,.84.74l.28,3.19a.78.78,0,0,1-.7.86l-4.11.36a.79.79,0,0,1-.84-.72l-.28-3.19a.8.8,0,0,1,.7-.88l.6-.05.26-.38Zm.94,9.36,1.36,1.36a.58.58,0,0,1-.05.89.74.74,0,0,1-1-.06l-1.43-1.43a.56.56,0,0,1,.08-.87A.81.81,0,0,1,174.42,18.73Zm3.79-8.43-3.09.27,0,.32,3.09-.27Zm.13,1.43,0-.32-3.09.27,0,.32Zm.12,1.44-.05-.65-3.09.27.06.65Z"/><path d="M198.7,18.86a.79.79,0,0,1-.12,1.1.73.73,0,0,1-1.05-.15l-4.46-5.9-3.37,6.6a.76.76,0,0,1-1,.34.74.74,0,0,1-.32-1l3.88-7.62-.4-4.57-2.21.19a.75.75,0,0,1-.78-.67.73.73,0,0,1,.65-.8l2.8-.25a1,1,0,0,1,1,.87l.47,5.35Z"/><path d="M215.7,12.65a.64.64,0,0,1,.11,1.28l-.37,0,.11,1.17a1,1,0,0,1-.85,1l-3.13.27.13,1.49a.94.94,0,0,1-.84,1l-1.28.11a.7.7,0,0,1-.13-1.4l.81-.07-.09-1.06-3.48.31a.66.66,0,0,1-.11-1.31l3.47-.3-.07-.81-4.42.39a.65.65,0,0,1-.69-.6.63.63,0,0,1,.58-.68l4.42-.39-.07-.78-3.47.3a.66.66,0,0,1-.71-.61.65.65,0,0,1,.59-.72l3.48-.3-.05-.59-3.06.26a.94.94,0,0,1-1-.86l-.13-1.51a1,1,0,0,1,.86-1L209.34,7l-.05-.57-4.08.35a.65.65,0,0,1-.11-1.29l4.07-.36v0a.7.7,0,1,1,1.4-.12V5l4.07-.35a.63.63,0,0,1,.69.59.64.64,0,0,1-.58.7l-4.07.35.05.58,3-.27a1,1,0,0,1,1,.89L215,9a1,1,0,0,1-.87,1l-3.05.26.05.6,3.13-.28a1,1,0,0,1,1,.89l.1,1.15Zm-8.8-3.18,2.63-.23-.09-1-2.63.23Zm6.58-1.55-2.63.23.08,1,2.64-.23Zm-2.27,4.33.07.79,2.61-.23-.07-.79Zm2.87,2.64-.08-.8-2.61.23.07.8Z"/><path d="M224.81,3.85l-.53,2.22,1,11a.65.65,0,0,1-.59.72.65.65,0,0,1-.69-.6l-.63-7.29a.64.64,0,0,1-.66.21.71.71,0,0,1-.46-.85l1.32-5.54a.72.72,0,0,1,.8-.57A.59.59,0,0,1,224.81,3.85Zm4.23.39-1.33.12-.31,1.31L229,5.52a.69.69,0,0,1,.71.86L227.2,17.16a.58.58,0,0,1-.76.43.72.72,0,0,1-.46-.86l1.48-6.3a.34.34,0,0,1-.15.14.53.53,0,0,1-.76-.24l-.18-.4-.24,1a.62.62,0,0,1-.78.46.67.67,0,0,1-.46-.81l1.45-6.12-.58,0a.64.64,0,0,1-.11-1.28L228.93,3A.64.64,0,0,1,229,4.24Zm-.78,2.64-1.17.1-.22.89.73,1.77v0Zm2.28-2.7a.64.64,0,0,1,.69.59l.78,9a.63.63,0,0,1-.57.7.63.63,0,0,1-.67-.59l-.79-9A.64.64,0,0,1,230.54,4.18Zm1.71-1.7a.66.66,0,0,1,.71.59l1.15,13.2a.65.65,0,1,1-1.3.11l-1.15-13.2A.64.64,0,0,1,232.25,2.48Z"/><path d="M246.72,10a.8.8,0,0,1-.72.88l-2.72.24a.8.8,0,0,1-.86-.74.79.79,0,0,1,.72-.86l2.72-.24A.8.8,0,0,1,246.72,10Z"/><path d="M167.29,45.81a1.28,1.28,0,0,1,.23,2.54l-6.5.57a2,2,0,0,1-2.13-1.8l-1.6-18.35a2,2,0,0,1,1.78-2.14l6.5-.57a1.27,1.27,0,0,1,.22,2.54l-5.88.51.85,9.77,5.65-.49a1.29,1.29,0,0,1,1.37,1.18A1.27,1.27,0,0,1,166.63,41l-5.64.5.43,4.87Z"/><path d="M183.15,45.51a1.29,1.29,0,0,1-.38,1.72,1.22,1.22,0,0,1-1.68-.4l-4.74-7.71L173,47.57a1.25,1.25,0,0,1-1.62.71,1.3,1.3,0,0,1-.7-1.65l4-10.17-5.53-9a1.28,1.28,0,0,1,.38-1.71,1.25,1.25,0,0,1,1.72.42l4.54,7.43,3.21-8.11a1.24,1.24,0,0,1,1.61-.71,1.25,1.25,0,0,1,.68,1.65l-3.86,9.83Z"/><path d="M198.46,44.29a1.28,1.28,0,0,1-.77,1.66,1.26,1.26,0,0,1-1.62-.76l-1.21-3.33-6.61.58-.61,3.46a1.26,1.26,0,1,1-2.48-.45L188.73,25a1.36,1.36,0,0,1,2.63-.23Zm-9.76-4.45,5.27-.46-3.5-9.63Z"/><path d="M210.92,21.94a1.27,1.27,0,0,1,1.37,1.17l1.75,20a1.25,1.25,0,1,1-2.49.21L210.48,31l-2,11.08a1.3,1.3,0,0,1-2.52.21l-3.8-10.44L203.25,44a1.25,1.25,0,1,1-2.49.22l-1.75-20a1.28,1.28,0,0,1,1.15-1.4A1.62,1.62,0,0,1,201.82,24l5.06,13.8,2.57-14.47A1.67,1.67,0,0,1,210.92,21.94Z"/><path d="M223.33,22.57a5.55,5.55,0,0,1,1.85,3.63l.62,7.14a5.49,5.49,0,0,1-1.19,3.9,5.06,5.06,0,0,1-3.55,1.88l-2.19.19.29,3.35A1.29,1.29,0,0,1,218,44.08a1.31,1.31,0,0,1-1.4-1.2l-1.68-19.16a2,2,0,0,1,1.79-2.14l2.78-.24A5.07,5.07,0,0,1,223.33,22.57Zm-.07,11-.63-7.15a2.73,2.73,0,0,0-2.9-2.51l-2.19.19,1.1,12.64,2.2-.19A2.74,2.74,0,0,0,223.26,33.57Z"/><path d="M231.5,40.16l6.11-.53a1.29,1.29,0,1,1,.23,2.57l-6.38.56a2.35,2.35,0,0,1-2.55-2.19l-1.63-18.71a1.31,1.31,0,0,1,1.16-1.45,1.33,1.33,0,0,1,1.44,1.22Z"/><path d="M249.58,38.61a1.27,1.27,0,0,1,.22,2.54l-6.49.57a2,2,0,0,1-2.14-1.8l-1.6-18.35a2,2,0,0,1,1.79-2.14l6.49-.57a1.27,1.27,0,0,1,.22,2.54l-5.88.51.86,9.78,5.64-.5a1.29,1.29,0,0,1,1.37,1.18,1.26,1.26,0,0,1-1.14,1.39l-5.65.5.43,4.87Z"/><path d="M253.8,38.39a1.61,1.61,0,1,1-1.41,1.75A1.61,1.61,0,0,1,253.8,38.39Z"/></svg>