<svg id="質問" data-name="質問" xmlns="http://www.w3.org/2000/svg" viewBox="0 0 350 64"><defs><style>.cls-1{fill:#fff;}.cls-2{fill:#fdfbff;}.cls-3{fill:#040000;}</style></defs><title>質問</title><path class="cls-1" d="M179.26,53.26a3.31,3.31,0,0,1-3.29-3l-1.66-19a4,4,0,0,1,3.6-4.31l6.5-.57h.29a3.27,3.27,0,0,1,.28,6.53l-3.89.34L181.6,39l3.65-.32h.28a3.29,3.29,0,0,1,.3,6.57l-3.66.32.36,4.1a3.32,3.32,0,0,1-3,3.6Z"/><path class="cls-1" d="M196.81,52a3.66,3.66,0,0,1-.57,0,3.28,3.28,0,0,1-2.64-3.79l3.58-20.43a3.36,3.36,0,0,1,3.33-2.81,3.31,3.31,0,0,1,3.16,2.26l7.09,19.47a3.31,3.31,0,0,1-2,4.24,3.39,3.39,0,0,1-1.1.19A3.3,3.3,0,0,1,204.62,49l-.7-1.93-3.55.31L200,49.27A3.28,3.28,0,0,1,196.81,52Zm4.73-11.33h.08l-.05-.14Z"/><path class="cls-1" d="M222.7,52.53a3.2,3.2,0,0,1-3.19-3l0-.49a7.74,7.74,0,0,1-4.84-6.74l-.94-10.75a8.14,8.14,0,0,1,1.76-5.89,7.35,7.35,0,0,1,5-2.67l.59,0a7.73,7.73,0,0,1,7.54,7.29l.94,10.76a7.75,7.75,0,0,1-3.62,7.48l0,.48a3.23,3.23,0,0,1-2.9,3.5Zm-1.73-23a.82.82,0,0,0-.56.37,1.68,1.68,0,0,0-.28,1.1l.8,9a2.7,2.7,0,0,1,.94-.23l.28,0a3.27,3.27,0,0,1,.7.08l-.79-9c-.07-.78-.59-1.31-1-1.31Z"/><path class="cls-1" d="M237,49a3.61,3.61,0,0,1-.32-7.2H237a3.61,3.61,0,0,1,.32,7.2Z"/><path class="cls-2" d="M153.34,63a14.57,14.57,0,0,1-14.55-14.55v-13a4.11,4.11,0,0,1,4.2-4.09h.43v-6a5.29,5.29,0,0,1,5.29-5.29H149a5.27,5.27,0,0,1,8.71,0H158a5.29,5.29,0,0,1,5.29,5.29v.31a5.29,5.29,0,0,1,4.63,5.25V48.46A14.57,14.57,0,0,1,153.34,63Z"/><path class="cls-1" d="M139.8,24.09a2.86,2.86,0,0,1-1.09-.21,6.51,6.51,0,0,1-1.78-1.24c-9.74-8.18-9.67-9.69-9.63-10.79.09-2.2,4-5.54,6-5.64h.14a3.33,3.33,0,0,1,2.08.8c3.13,2.45,8.29,10.71,8.57,11.32s.76,2.22-1,4A4.93,4.93,0,0,1,139.8,24.09Z"/><path class="cls-1" d="M144.37,20.41a3.17,3.17,0,0,1-2.09-.72l-.2-.18-.08-.09-.2-.24c-.07-.09-6-11.26-4.8-14.64.71-2,3.6-2.78,4.47-3a5.74,5.74,0,0,1,1.29-.16,3.37,3.37,0,0,1,2.23.76l.23.23c2.29,2.51,4.06,13.46,3.88,14.72A3.73,3.73,0,0,1,146.36,20,5.94,5.94,0,0,1,144.37,20.41Z"/><path class="cls-1" d="M137.16,28.83c-.08,0-10.36-1.27-12.59-3.13a2.91,2.91,0,0,1-.83-1.09c-.72-1.63.19-3.86.3-4.1a4.08,4.08,0,0,1,2.31-2.41,3.58,3.58,0,0,1,1.26-.21c3.28,0,11.67,4.27,11.74,4.32l.22.16a3.37,3.37,0,0,1,.8,3.89,3.48,3.48,0,0,1-3.2,2.57Z"/><path class="cls-3" d="M162.6,25.48a2.87,2.87,0,0,0-1.76.61V22.8a2.87,2.87,0,0,0-4.63-2.27v0a2.87,2.87,0,1,0-5.74,0v0a2.87,2.87,0,0,0-4.63,2.27v9.9a3.28,3.28,0,0,0-.42-.48,3.22,3.22,0,0,0-2.39-1,1.7,1.7,0,0,0-1.82,1.67v13a12.13,12.13,0,1,0,24.26,0V28.36A2.87,2.87,0,0,0,162.6,25.48Zm1.76,20.42a11,11,0,0,1-22,0V41h0a.45.45,0,0,0,0-.16v-8c0-.48.46-.56.73-.56a2.14,2.14,0,0,1,1.59.66,4.7,4.7,0,0,1,1.2,3.24v6a.56.56,0,0,0,1.11,0v-6c0-.12,0-.23,0-.35a.31.31,0,0,0,0-.1v-13a1.76,1.76,0,1,1,3.52,0v14a.56.56,0,0,0,1.11,0V20.51a1.76,1.76,0,0,1,3.52,0V36.78a.56.56,0,0,0,1.11,0v-14a1.76,1.76,0,1,1,3.52,0v14a.56.56,0,0,0,1.11,0V28.36a1.76,1.76,0,0,1,3.52,0Z"/><path class="cls-3" d="M138.49,18.23c-1-.87-8.83-7.5-8.77-8.84,0-.8,2.76-3.28,3.71-3.32a1,1,0,0,1,.61.29c2.64,2.06,7.6,9.86,7.87,10.43.16.35,0,.8-.54,1.34,0,.05-1.15,1.19-1.76.94A5,5,0,0,1,138.49,18.23Z"/><path class="cls-3" d="M143.83,15.28l-.08-.08c-.06-.09-5.17-10.5-4.48-12.39.22-.61,1.9-1.25,2.75-1.45.69-.16,1.15-.13,1.41.09,1.68,1.84,3.35,12.19,3.27,12.75s-.68.81-1.17,1C145.32,15.27,144.25,15.63,143.83,15.28Z"/><path class="cls-3" d="M126.11,21.28a.73.73,0,0,1-.16-.21c-.26-.58.23-2.9,1.22-3.26,1.73-.62,10.74,3.78,10.82,3.84h0c.38.32.23.9.11,1.23s-.41,1-.94,1S127.46,22.4,126.11,21.28Z"/><path d="M185.43,38.58a1.29,1.29,0,0,1,1.37,1.17,1.27,1.27,0,0,1-1.15,1.4l-5.64.49.53,6.1A1.29,1.29,0,1,1,178,48l-1.66-19a2,2,0,0,1,1.78-2.15l6.5-.56A1.25,1.25,0,0,1,186,27.39a1.27,1.27,0,0,1-1.14,1.4l-5.88.51.86,9.77Z"/><path d="M208.88,45.23a1.28,1.28,0,0,1-.76,1.66,1.27,1.27,0,0,1-1.63-.76l-1.21-3.33-6.61.58-.61,3.46a1.26,1.26,0,1,1-2.48-.45L199.15,26a1.37,1.37,0,0,1,2.64-.23Zm-9.76-4.45,5.27-.46-3.5-9.63Z"/><path d="M220.58,23a5.71,5.71,0,0,1,6,5.44l.94,10.75a5.71,5.71,0,0,1-3.74,6.11l.16,1.86a1.2,1.2,0,1,1-2.4.21l-.16-1.86a5.69,5.69,0,0,1-4.71-5.37l-.94-10.75A5.68,5.68,0,0,1,220.58,23ZM225,39.36l-.94-10.75a3,3,0,1,0-5.91.51l1,10.76a3.45,3.45,0,0,0,2,2.92L221,41.1a1.21,1.21,0,1,1,2.4-.21l.15,1.7A3.44,3.44,0,0,0,225,39.36Z"/><path d="M236.82,41.73a1.61,1.61,0,0,1,.28,3.2,1.61,1.61,0,0,1-.28-3.2Z"/><path d="M179.13,17.47a.79.79,0,0,1-.72.87l-2.72.24a.8.8,0,0,1-.86-.74.79.79,0,0,1,.72-.85l2.72-.24A.79.79,0,0,1,179.13,17.47Z"/><path d="M188.84,12.55l-.19.24a.67.67,0,0,1-.92.08.62.62,0,0,1-.07-.88l.38-.45a.45.45,0,0,0,.1-.3L188,10a2.37,2.37,0,0,1,.52-1.7l.47-.52a.67.67,0,0,1,.89-.12.53.53,0,0,1,.1.79l-.78.9,0,.36,3.23-.29a.61.61,0,0,1,.63.56.6.6,0,0,1-.53.65l-.59.05.11,1.24a.65.65,0,0,1-.58.7.64.64,0,0,1-.67-.59l-.11-1.24-1.39.12v0A2.22,2.22,0,0,1,188.84,12.55Zm2.54,7.23a.56.56,0,0,1,.27.89L190.48,22a.83.83,0,0,1-1.14.12.76.76,0,0,1-.11-1.09l.72-.86A1.43,1.43,0,0,1,191.38,19.78Zm-2.25-5.92a.94.94,0,0,1,.84-1l6.25-.54a1,1,0,0,1,1,.88l.44,5a1,1,0,0,1-.87,1.05l-6.25.54a.93.93,0,0,1-1-.88Zm1.41.19.06.64,5.34-.46-.06-.65Zm.16,1.83.06.62L196.1,16l-.06-.63Zm.16,1.81.07.75,5.33-.47-.06-.75ZM197.54,9a.6.6,0,0,1,.64.56.59.59,0,0,1-.53.64l-.42,0,.11,1.24a.64.64,0,1,1-1.27.11L196,10.3l-1.33.12a2.26,2.26,0,0,1-.54,1.49l-.24.29a.69.69,0,0,1-.93.1.59.59,0,0,1-.09-.86l.48-.56a.45.45,0,0,0,.1-.3l-.08-.88A2.15,2.15,0,0,1,193.85,8l.65-.76a.7.7,0,0,1,.91-.14.51.51,0,0,1,.11.77l-1,1.17v.14Zm0,10.63.8.67a.72.72,0,0,1,.06,1.06.9.9,0,0,1-1.18.07L196,20.3a.54.54,0,0,1,.12-.92A1.46,1.46,0,0,1,197.57,19.58Z"/><path d="M210.3,11.09a1,1,0,0,1-.84,1.05l-2.65.23.67,7.68a.71.71,0,1,1-1.42.12L205,7.51a1,1,0,0,1,.86-1l3.13-.27a1,1,0,0,1,1,.87Zm-1.57-3.64-2.34.2.11,1.17,2.33-.2Zm-2,3.68,2.33-.2-.1-1.17L206.6,10ZM212.49,13a.93.93,0,0,1,1,.86l.35,4a1,1,0,0,1-.85,1l-3.28.28a1,1,0,0,1-1-.87l-.35-4a1,1,0,0,1,.87-1Zm0,4.66-.29-3.36-2.5.22.3,3.36Zm2.15-12a1,1,0,0,1,1,.87l1.11,12.66a.73.73,0,1,1-1.45.13l-.67-7.68-2.61.23a1,1,0,0,1-1-.89l-.35-4a1,1,0,0,1,.85-1ZM214.26,7l-2.3.2.1,1.16,2.3-.2Zm-2,3.68,2.3-.21-.1-1.16-2.3.2Z"/><path d="M229.56,13.05a.8.8,0,0,1-.72.88l-2.72.24a.8.8,0,0,1-.14-1.6l2.72-.24A.8.8,0,0,1,229.56,13.05Z"/></svg>