<svg xmlns="http://www.w3.org/2000/svg" viewBox="0 0 150.24 61.75"><defs><style>.c7c0c925-9ddb-438b-a61b-75ace7fb55f4{fill:#fff;}.\30 f220aed-171b-4d3f-a95a-b8c020f8f48e{fill:#040000;}</style></defs><title>アセット 2aaa</title><g id="8b833083-41e5-4e75-953a-5cf9bea42108" data-name="レイヤー 2"><g id="925539a9-6a62-4e1f-94c1-a6c0210d7b2e" data-name="【FEATURE】テキスト"><path class="c7c0c925-9ddb-438b-a61b-75ace7fb55f4" d="M57.66,54.31a3.3,3.3,0,0,1-3.57-3l-1.66-19A4,4,0,0,1,56,28l6.49-.57a3.27,3.27,0,0,1,.57,6.52l-3.88.34.5,5.79,3.66-.32a3.29,3.29,0,0,1,.57,6.56l-3.65.32.36,4.1A3.31,3.31,0,0,1,57.66,54.31Z" transform="translate(0 -3.01)"/><path class="c7c0c925-9ddb-438b-a61b-75ace7fb55f4" d="M70.38,53.2a4,4,0,0,1-4.3-3.62l-1.6-18.35a4,4,0,0,1,3.6-4.31l6.49-.57a3.28,3.28,0,0,1,.58,6.53l-3.89.34L71.77,39l3.65-.32A3.29,3.29,0,0,1,76,45.24l-3.65.32.08.89,3.88-.34a3.27,3.27,0,0,1,.57,6.52Z" transform="translate(0 -3.01)"/><path class="c7c0c925-9ddb-438b-a61b-75ace7fb55f4" d="M92.28,51.57a3.27,3.27,0,0,1-3.34-2.09l-.7-1.94-3.55.31-.35,1.95a3.29,3.29,0,0,1-2.93,2.69,3,3,0,0,1-.85,0,3.21,3.21,0,0,1-2.13-1.38,3.27,3.27,0,0,1-.51-2.41l3.57-20.43a3.38,3.38,0,0,1,3-2.79A3.3,3.3,0,0,1,88,27.68l7.09,19.48a3.3,3.3,0,0,1-2,4.23A3.08,3.08,0,0,1,92.28,51.57Zm-6.35-10.4L85.88,41l0,.15Z" transform="translate(0 -3.01)"/><path class="c7c0c925-9ddb-438b-a61b-75ace7fb55f4" d="M101,50.64a3.28,3.28,0,0,1-3.57-3L96,31.33l-1.13.09a3.3,3.3,0,0,1-.58-6.58l8.83-.77a3.3,3.3,0,0,1,.58,6.58l-1.14.1L104,47A3.31,3.31,0,0,1,101,50.64Z" transform="translate(0 -3.01)"/><path class="c7c0c925-9ddb-438b-a61b-75ace7fb55f4" d="M114.06,49.5A7.69,7.69,0,0,1,106,42.27l-1.35-15.42a3.23,3.23,0,1,1,6.44-.57l1.35,15.42c.07.78.64,1.34,1.08,1.3a1.24,1.24,0,0,0,.84-1.46L113,26.11a3.25,3.25,0,1,1,6.48-.56L120.81,41A7.62,7.62,0,0,1,114.06,49.5Z" transform="translate(0 -3.01)"/><path class="c7c0c925-9ddb-438b-a61b-75ace7fb55f4" d="M130.26,48.13A3.27,3.27,0,0,1,127,46.19l-.85-1.84.07.78a3.28,3.28,0,1,1-6.53.58L118,26.55a4,4,0,0,1,3.6-4.31l2.78-.24a7.13,7.13,0,0,1,5.3,1.7,7.51,7.51,0,0,1,2.54,5l.62,7.14a7.44,7.44,0,0,1-1.2,4.74L133,43.45a3.21,3.21,0,0,1,.12,2.51,3.29,3.29,0,0,1-2.82,2.17Zm-4.54-10.92a.74.74,0,0,0,.6-.82l-.62-7.14a.76.76,0,0,0-.74-.7l-.2,0,.76,8.65Z" transform="translate(0 -3.01)"/><path class="c7c0c925-9ddb-438b-a61b-75ace7fb55f4" d="M136.2,47.44a4,4,0,0,1-4.3-3.62l-1.61-18.35a4,4,0,0,1,3.61-4.31l6.49-.56a3.27,3.27,0,0,1,.57,6.52l-3.89.34.51,5.79,3.65-.32a3.29,3.29,0,0,1,.58,6.55l-3.66.32.08.89,3.89-.34a3.27,3.27,0,0,1,.57,6.52Z" transform="translate(0 -3.01)"/><path class="c7c0c925-9ddb-438b-a61b-75ace7fb55f4" d="M147,47.31a3.6,3.6,0,1,1,3.26-3.89A3.57,3.57,0,0,1,147,47.31Z" transform="translate(0 -3.01)"/><path d="M63.37,39.66a1.29,1.29,0,0,1,.22,2.57L58,42.72l.53,6.09a1.29,1.29,0,1,1-2.57.23L54.25,30A2,2,0,0,1,56,27.89l6.5-.57a1.27,1.27,0,0,1,.22,2.54l-5.88.52.85,9.77Z" transform="translate(0 -3.01)"/><path d="M76.31,46a1.27,1.27,0,0,1,.22,2.54L70,49.13a2,2,0,0,1-2.14-1.8L66.3,29a2,2,0,0,1,1.79-2.14l6.49-.57a1.27,1.27,0,0,1,.22,2.54l-5.88.51.86,9.77,5.64-.49a1.29,1.29,0,0,1,1.37,1.18,1.26,1.26,0,0,1-1.14,1.39l-5.65.5.43,4.87Z" transform="translate(0 -3.01)"/><path d="M93,45.76a1.31,1.31,0,0,1-.77,1.67,1.29,1.29,0,0,1-1.63-.76l-1.21-3.33-6.61.58-.61,3.45a1.26,1.26,0,1,1-2.48-.44L83.29,26.5a1.36,1.36,0,0,1,2.64-.23Zm-9.77-4.44,5.27-.46L85,31.22Z" transform="translate(0 -3.01)"/><path d="M104.49,25.19a1.27,1.27,0,0,1-1.15,1.39l-3.13.27,1.6,18.27a1.29,1.29,0,1,1-2.57.22l-1.6-18.26-3.13.27a1.25,1.25,0,0,1-1.37-1.17,1.3,1.3,0,0,1,1.14-1.43l8.83-.77A1.3,1.3,0,0,1,104.49,25.19Z" transform="translate(0 -3.01)"/><path d="M118.64,39.06a5.46,5.46,0,1,1-10.85.95l-1.35-15.42a1.23,1.23,0,1,1,2.46-.21l1.35,15.42a3,3,0,1,0,5.91-.52l-1.35-15.42a1.24,1.24,0,1,1,2.48-.22Z" transform="translate(0 -3.01)"/><path d="M130.69,33.91a5.54,5.54,0,0,1-1.19,3.9,3.06,3.06,0,0,1-.35.37l1.82,4a1.29,1.29,0,0,1-.61,1.74,1.26,1.26,0,0,1-1.71-.63l-1.74-3.79a5.83,5.83,0,0,1-1,.17l-2.2.19.3,3.35a1.29,1.29,0,0,1-1.14,1.42,1.31,1.31,0,0,1-1.41-1.2l-1.67-19.16a2,2,0,0,1,1.78-2.14l2.78-.24a5.08,5.08,0,0,1,3.82,1.23,5.46,5.46,0,0,1,1.85,3.63Zm-7.16,3.4,2.19-.19a2.73,2.73,0,0,0,2.42-3L127.52,27a2.73,2.73,0,0,0-2.9-2.52l-2.2.19Z" transform="translate(0 -3.01)"/><path d="M142.12,40.26a1.27,1.27,0,0,1,.22,2.54l-6.49.57a2,2,0,0,1-2.13-1.8l-1.61-18.35a2,2,0,0,1,1.79-2.14l6.49-.57a1.27,1.27,0,0,1,.22,2.54l-5.87.51.85,9.78,5.65-.5A1.29,1.29,0,0,1,142.61,34a1.27,1.27,0,0,1-1.15,1.39l-5.64.5.42,4.87Z" transform="translate(0 -3.01)"/><path d="M146.35,40a1.61,1.61,0,0,1,.28,3.2,1.58,1.58,0,0,1-1.69-1.45A1.6,1.6,0,0,1,146.35,40Z" transform="translate(0 -3.01)"/><path class="c7c0c925-9ddb-438b-a61b-75ace7fb55f4" d="M29.88,64.76A14.57,14.57,0,0,1,15.33,50.2v-13a4.1,4.1,0,0,1,4.2-4.09H20v-6a5.29,5.29,0,0,1,5.29-5.29h.27a5.29,5.29,0,0,1,8.71,0h.28a5.29,5.29,0,0,1,5.29,5.29v.3a5.3,5.3,0,0,1,4.63,5.25V50.2A14.57,14.57,0,0,1,29.88,64.76Z" transform="translate(0 -3.01)"/><path class="c7c0c925-9ddb-438b-a61b-75ace7fb55f4" d="M16.34,25.83a3.15,3.15,0,0,1-1.1-.2,6.62,6.62,0,0,1-1.77-1.24C3.73,16.21,3.79,14.7,3.84,13.6c.09-2.21,4-5.54,6-5.64H10a3.34,3.34,0,0,1,2.09.81c3.12,2.45,8.28,10.71,8.57,11.32s.75,2.22-1,4A5,5,0,0,1,16.34,25.83Z" transform="translate(0 -3.01)"/><path class="c7c0c925-9ddb-438b-a61b-75ace7fb55f4" d="M20.91,22.16a3.17,3.17,0,0,1-2.1-.72l-.19-.19-.08-.08-.2-.24c-.07-.09-6-11.26-4.81-14.64.71-2,3.61-2.78,4.48-3a5.61,5.61,0,0,1,1.29-.16,3.39,3.39,0,0,1,2.23.76l.23.22c2.29,2.52,4,13.47,3.87,14.73a3.74,3.74,0,0,1-2.73,2.91A6.26,6.26,0,0,1,20.91,22.16Z" transform="translate(0 -3.01)"/><path class="c7c0c925-9ddb-438b-a61b-75ace7fb55f4" d="M13.7,30.58c-.09,0-10.36-1.27-12.6-3.13a3,3,0,0,1-.83-1.09c-.71-1.64.2-3.86.3-4.11a4.07,4.07,0,0,1,2.32-2.4,3.58,3.58,0,0,1,1.26-.21c3.27,0,11.67,4.27,11.73,4.31l.22.17A3.38,3.38,0,0,1,16.91,28a3.49,3.49,0,0,1-3.2,2.57Z" transform="translate(0 -3.01)"/><path class="0f220aed-171b-4d3f-a95a-b8c020f8f48e" d="M39.14,27.23a2.87,2.87,0,0,0-1.76.61V24.55a2.87,2.87,0,0,0-2.87-2.87,2.84,2.84,0,0,0-1.76.6v0a2.87,2.87,0,0,0-5.74,0v0a2.87,2.87,0,0,0-4.63,2.27v9.9A4,4,0,0,0,22,34a3.27,3.27,0,0,0-2.39-1,1.69,1.69,0,0,0-1.82,1.67v13a12.13,12.13,0,1,0,24.26,0V30.1A2.88,2.88,0,0,0,39.14,27.23ZM40.9,47.64a11,11,0,0,1-22,0V42.79h0a.41.41,0,0,0,0-.16v-8c0-.48.46-.56.73-.56a2.15,2.15,0,0,1,1.59.66A4.69,4.69,0,0,1,22.38,38v6a.55.55,0,0,0,.55.55.56.56,0,0,0,.56-.55V38c0-.11,0-.23,0-.34s0-.07,0-.1v-13a1.76,1.76,0,0,1,3.52,0v14a.56.56,0,0,0,1.11,0V22.26a1.76,1.76,0,0,1,3.52,0V38.53a.56.56,0,0,0,1.11,0v-14a1.76,1.76,0,0,1,3.52,0v14a.56.56,0,0,0,1.11,0V30.1a1.76,1.76,0,1,1,3.52,0Z" transform="translate(0 -3.01)"/><path class="0f220aed-171b-4d3f-a95a-b8c020f8f48e" d="M15,20c-1-.87-8.82-7.5-8.77-8.84C6.29,10.33,9,7.86,10,7.81a1,1,0,0,1,.62.3c2.64,2.06,7.6,9.86,7.86,10.43.17.35,0,.8-.53,1.34-.05,0-1.15,1.19-1.76.94A4.87,4.87,0,0,1,15,20Z" transform="translate(0 -3.01)"/><path class="0f220aed-171b-4d3f-a95a-b8c020f8f48e" d="M20.37,17l-.08-.09c-.06-.08-5.17-10.49-4.48-12.39C16,4,17.7,3.3,18.56,3.11A1.66,1.66,0,0,1,20,3.2C21.64,5,23.32,15.38,23.24,16s-.68.8-1.18,1C21.85,17,20.79,17.38,20.37,17Z" transform="translate(0 -3.01)"/><path class="0f220aed-171b-4d3f-a95a-b8c020f8f48e" d="M2.65,23a.69.69,0,0,1-.17-.22c-.25-.57.24-2.89,1.23-3.25,1.73-.63,10.74,3.78,10.82,3.84h0c.37.31.22.9.11,1.23s-.41,1-.94,1S4,24.15,2.65,23Z" transform="translate(0 -3.01)"/><path class="0f220aed-171b-4d3f-a95a-b8c020f8f48e" d="M57.1,18.37a.8.8,0,0,1-.72.87l-2.73.24a.8.8,0,0,1-.14-1.6l2.73-.23A.8.8,0,0,1,57.1,18.37Z" transform="translate(0 -3.01)"/><path class="0f220aed-171b-4d3f-a95a-b8c020f8f48e" d="M67.38,12.44l-.3,0,.27,3a.68.68,0,0,1,.79.29.77.77,0,0,1-.2,1l-.45.31L68,22.51a.68.68,0,1,1-1.35.12L66.21,18l-.72.5a.67.67,0,0,1-.95-.19.76.76,0,0,1,.19-1l1.34-.95-.34-3.8-.58.05-.26,1.45a.7.7,0,0,1-.78.59.67.67,0,0,1-.54-.77l.66-3.76a1,1,0,0,1,.82-.76.56.56,0,0,1,.42.18V9.45a.68.68,0,1,1,1.35-.12L67,11.07l.3,0a.71.71,0,0,1,.75.64A.69.69,0,0,1,67.38,12.44Zm-2-1.23.21,0-.07-.79Zm8.78,3.53a.69.69,0,0,1,.12,1.38l-.61.05L74.2,22a.67.67,0,1,1-1.34.11l-.51-5.79-3.16.28a.69.69,0,0,1-.12-1.38l3.16-.28-.11-1.24L68.91,14a.66.66,0,0,1-.72-.62.67.67,0,0,1,.6-.72l1.87-.17-.12-1.31-1.31.12a.63.63,0,0,1-.69-.59.63.63,0,0,1,.57-.68l1.32-.12-.07-.75A.71.71,0,1,1,71.77,9l.06.76,1.41-.12a.63.63,0,0,1,.69.57.64.64,0,0,1-.58.7L72,11l.11,1.31,2-.17a.67.67,0,0,1,.72.61.68.68,0,0,1-.6.74l-.67.05.11,1.24ZM70.73,17.5,71.65,20a.7.7,0,0,1-.38.9.61.61,0,0,1-.84-.38l-1-2.62a.66.66,0,0,1,.4-.85A.67.67,0,0,1,70.73,17.5Z" transform="translate(0 -3.01)"/><path class="0f220aed-171b-4d3f-a95a-b8c020f8f48e" d="M79.69,11a.72.72,0,0,1-.52-.83L79.62,8a.74.74,0,0,1,.8-.57.62.62,0,0,1,.53.75l-.48,2.23A.66.66,0,0,1,79.69,11Zm1.36,0a.66.66,0,0,1,.51.81l-.22,1.1.74,8.39a.65.65,0,0,1-.58.72.67.67,0,0,1-.71-.6l-.5-5.73a.43.43,0,0,1-.19,0,.66.66,0,0,1-.51-.8l.68-3.35A.65.65,0,0,1,81.05,11Zm1.73,1.71a.81.81,0,0,1-.87-.74l-.3-3.49a.6.6,0,0,1,.54-.67.59.59,0,0,1,.63.56l.28,3.14.26,0L83,7.88a.6.6,0,0,1,.54-.65.58.58,0,0,1,.63.54l.32,3.63.26,0-.27-3.14A.61.61,0,0,1,85,7.57a.63.63,0,0,1,.65.56l.31,3.5a.8.8,0,0,1-.72.87Zm3.8,5.47a.65.65,0,0,1-.2.92L83.47,21a.67.67,0,1,1-.72-1.13L84,19.07l-.19-2.19-.71.06a.63.63,0,0,1-.67-.57.64.64,0,0,1,.56-.7l.7-.06-.09-1.1-1,.09a.65.65,0,0,1-.71-.61.64.64,0,0,1,.59-.7l3.3-.29a.66.66,0,0,1,.12,1.31l-1,.08.09,1.1.67-.06a.63.63,0,0,1,.67.59.63.63,0,0,1-.56.68l-.66.06.12,1.47.39-.25A.65.65,0,0,1,86.58,18.19Zm4.15-9a.57.57,0,0,1-.53.64h-.09a1,1,0,0,1,0,.38l-.93,4.36,2.3,5.69a.66.66,0,0,1-.35.86.62.62,0,0,1-.84-.34l-1.63-4.05-.93,4.31a.61.61,0,1,1-1.19-.26l1.37-6.37-.65-1.59a.6.6,0,0,1-.67.28.66.66,0,0,1-.51-.79l1.06-4.93a.75.75,0,0,1,.79-.6.6.6,0,0,1,.53.71L88.2,8.81l1.9-.16A.58.58,0,0,1,90.73,9.19Zm-2.39,3.42.56-2.67-1,.09-.23,1.05Z" transform="translate(0 -3.01)"/><path class="0f220aed-171b-4d3f-a95a-b8c020f8f48e" d="M98.85,19.41a.68.68,0,0,1-.79.49.71.71,0,0,1-.48-.81l3-12.5a.67.67,0,0,1,.78-.49.67.67,0,0,1,.47.81Z" transform="translate(0 -3.01)"/><path class="0f220aed-171b-4d3f-a95a-b8c020f8f48e" d="M112.17,15.72a.39.39,0,0,1-.63,0l-.36-.55.31,3.59a.67.67,0,1,1-1.33.12l-.22-2.42-.25.56a.52.52,0,0,1-.79.2.89.89,0,0,1-.24-1.05l1-2.38-.45-5.19-.42,0a.69.69,0,0,1-.12-1.37l.42,0L109,5.67a.67.67,0,0,1,.61-.72.68.68,0,0,1,.73.61l.13,1.52h.09a.69.69,0,0,1,.12,1.37h-.09L111,13l1.2,1.79A.78.78,0,0,1,112.17,15.72ZM120.09,12a.57.57,0,0,1-.53.64l-.53.05a.26.26,0,0,1,.13.06.65.65,0,0,1,.29.83l-.58,1.29L120,18a.66.66,0,0,1-.37.83.63.63,0,0,1-.81-.38l-.7-1.91-.8,1.78a.55.55,0,0,1-.77.29.61.61,0,0,1-.28-.81L117.55,15l-.75-2-1.63.14L114.33,15l1.62.76a.66.66,0,0,1,.36.82.52.52,0,0,1-.73.31l-1.74-.79-1,2.3a.62.62,0,0,1-.86.27.76.76,0,0,1-.31-1l2-4.5-1.68.15a.61.61,0,0,1-.67-.56.62.62,0,0,1,.56-.68l3.93-.34-1.67-4.49-.27,1.55a.34.34,0,0,1,.14-.09.52.52,0,0,1,.64.33l.77,2a.49.49,0,0,1-.3.62.52.52,0,0,1-.65-.33l0-.12-2.44.22a.51.51,0,0,1-.55-.48.5.5,0,0,1,.46-.56l.63-.06.21-1.1-1.23.11A.49.49,0,0,1,111,9a.48.48,0,0,1,.44-.52l.55-3a.63.63,0,0,1,.69-.53.54.54,0,0,1,.48.65l-.51,2.79.21,0h.07l.27-1.54a.52.52,0,0,1,.6-.41s0,0,0,0l-.42-1.18a.58.58,0,0,1,.34-.75.61.61,0,0,1,.77.36l1.19,3.24.54-2.93a.69.69,0,0,1,.69-.57.54.54,0,0,1,.5.62L116.88,8l.3,0,.26-1.45a.65.65,0,0,1,.63-.53.46.46,0,0,1,.44.54l-.35,1.92a.53.53,0,0,1,.25-.24.43.43,0,0,1,.6.27l.88,2.33a.5.5,0,0,1-.3.6.53.53,0,0,1-.65-.34l-.07-.16h-.23a.27.27,0,0,1,.07.14l.2.51.55-.05A.58.58,0,0,1,120.09,12Zm-6-1.78-.3-.81-.16.85Zm2.78-.23L117,8.91,116,9l.48,1.28A.48.48,0,0,1,116.82,10Zm0,1,.25.7.86-.07-.09-.25a.48.48,0,0,1,0-.42l-.85.08A.46.46,0,0,1,116.78,11Zm1.35-2.14a.3.3,0,0,1,0-.12l-.21,1.17.61-.05Zm.28,4.19a.53.53,0,0,1,.29-.3l-.6.05.19.51Z" transform="translate(0 -3.01)"/><path class="0f220aed-171b-4d3f-a95a-b8c020f8f48e" d="M128.21,5.87l1.64,1.77a.75.75,0,0,1,0,1,.66.66,0,0,1-.95,0l-.26-.28-4,.35a.62.62,0,0,1-.23-1.21l2.51-3.8a.71.71,0,0,1,.95-.24.62.62,0,0,1,.22.9l-1.91,3,1.44-.13-.31-.33a.75.75,0,0,1,0-1A.64.64,0,0,1,128.21,5.87ZM128.4,9a1,1,0,0,1,1.11.95l.61,7.05a.67.67,0,1,1-1.33.12l-.22-2.55-1.9.17.22,2.56a.65.65,0,1,1-1.3.12L125,10.35a1,1,0,0,1,.91-1.13Zm-.21,1.27-1.9.16.09,1,1.89-.16Zm-1.62,3.27,1.89-.17-.08-.95-1.9.16Zm4.63-4.86a1,1,0,0,1-1.11-.95L129.76,4a.71.71,0,1,1,1.41-.12l.3,3.48,3.14-.27a.64.64,0,0,1,.71.58.68.68,0,0,1-.59.73Zm4.18,7.19a.66.66,0,0,1,.12,1.31l-3.51.31a1,1,0,0,1-1.11-.95l-.57-6.5a.71.71,0,1,1,1.41-.12l.54,6.23ZM132.13,6.4a.71.71,0,0,1-.21-1l1.28-2a.68.68,0,0,1,1-.21.7.7,0,0,1,.21,1l-1.24,1.93A.76.76,0,0,1,132.13,6.4ZM134,10.57a.72.72,0,0,1,1-.25.68.68,0,0,1,.24.95l-1.61,2.46a.68.68,0,0,1-1,.21.72.72,0,0,1-.21-1Z" transform="translate(0 -3.01)"/><path class="0f220aed-171b-4d3f-a95a-b8c020f8f48e" d="M146.94,10.51a.8.8,0,0,1-.72.87l-2.72.24a.8.8,0,0,1-.14-1.6l2.72-.23A.8.8,0,0,1,146.94,10.51Z" transform="translate(0 -3.01)"/></g></g></svg>