<svg id="キャラバンズ" data-name="キャラバンズ" xmlns="http://www.w3.org/2000/svg" viewBox="0 0 209.98 52.69"><defs><style>.cls-1{fill:#fbfae9;}</style></defs><title>キャラバンズ</title><path class="cls-1" d="M72.41.91h2.31l2.89,8.87L80.52.91h2.31l2.08,12.72H82.62l-1.33-8-2.65,8H76.56l-2.62-8-1.37,8H70.26Z" transform="translate(-2.35 -0.59)"/><path class="cls-1" d="M93.34,4.22h2.31v9.41H93.34v-1a4.46,4.46,0,0,1-1.35.95,3.83,3.83,0,0,1-1.48.29,4,4,0,0,1-3.08-1.41,5,5,0,0,1-1.31-3.52,5.12,5.12,0,0,1,1.26-3.57A4,4,0,0,1,90.44,4,3.92,3.92,0,0,1,92,4.3a4.16,4.16,0,0,1,1.34,1ZM90.91,6.16a2.35,2.35,0,0,0-1.78.77,2.85,2.85,0,0,0-.7,2,2.84,2.84,0,0,0,.72,2,2.29,2.29,0,0,0,1.77.79,2.35,2.35,0,0,0,1.81-.78,2.88,2.88,0,0,0,.71-2,2.82,2.82,0,0,0-.71-2A2.39,2.39,0,0,0,90.91,6.16Z" transform="translate(-2.35 -0.59)"/><path class="cls-1" d="M104.78.59h2.31v13h-2.31v-1a4.38,4.38,0,0,1-1.36.95,3.74,3.74,0,0,1-1.47.29,4,4,0,0,1-3.08-1.41,5,5,0,0,1-1.31-3.52,5.12,5.12,0,0,1,1.26-3.57A4,4,0,0,1,101.88,4a3.92,3.92,0,0,1,1.56.32,4.16,4.16,0,0,1,1.34,1Zm-2.43,5.57a2.35,2.35,0,0,0-1.78.77,2.85,2.85,0,0,0-.7,2,2.84,2.84,0,0,0,.72,2,2.29,2.29,0,0,0,1.77.79,2.35,2.35,0,0,0,1.81-.78,2.88,2.88,0,0,0,.71-2,2.82,2.82,0,0,0-.71-2A2.39,2.39,0,0,0,102.35,6.16Z" transform="translate(-2.35 -0.59)"/><path class="cls-1" d="M118.65,9.61h-7.42a2.5,2.5,0,0,0,.86,1.59,2.62,2.62,0,0,0,1.78.59,3,3,0,0,0,2.22-.92l2,.93a4.59,4.59,0,0,1-1.74,1.56,5.32,5.32,0,0,1-2.41.51,4.71,4.71,0,0,1-3.53-1.4A4.79,4.79,0,0,1,109,9a5,5,0,0,1,1.36-3.58A4.51,4.51,0,0,1,113.76,4,4.68,4.68,0,0,1,117.3,5.4a5.24,5.24,0,0,1,1.36,3.76Zm-2.31-1.86a2.33,2.33,0,0,0-.9-1.28A2.57,2.57,0,0,0,113.87,6a2.7,2.7,0,0,0-1.69.55,3.05,3.05,0,0,0-.85,1.22Z" transform="translate(-2.35 -0.59)"/><path class="cls-1" d="M127.66.59V5.26a4.31,4.31,0,0,1,1.35-1A3.92,3.92,0,0,1,130.57,4a4,4,0,0,1,3.06,1.39,5.08,5.08,0,0,1,1.27,3.57,5,5,0,0,1-1.31,3.52,4.08,4.08,0,0,1-3.09,1.41,3.83,3.83,0,0,1-1.48-.29,4.5,4.5,0,0,1-1.36-.95v1h-2.29V.59Zm2.43,5.57a2.37,2.37,0,0,0-1.81.76,2.78,2.78,0,0,0-.72,2,2.84,2.84,0,0,0,.72,2,2.35,2.35,0,0,0,1.81.78,2.31,2.31,0,0,0,1.78-.79,2.84,2.84,0,0,0,.72-2,2.81,2.81,0,0,0-.71-2A2.34,2.34,0,0,0,130.09,6.16Z" transform="translate(-2.35 -0.59)"/><path class="cls-1" d="M135.79,4.22h2.36l2.39,5.9,2.64-5.9h2.36l-5.76,12.85h-2.39l1.9-4.15Z" transform="translate(-2.35 -0.59)"/><path class="cls-1" d="M172,40.17c0-6.93,5-10.85,11-10.56,5.64.27,10,3.63,10,10.67v12a.13.13,0,0,1-.14.13h-4.12a.13.13,0,0,1-.13-.13V40.17h0c0-3.73-2.75-6.8-6.14-6.8s-6.14,3.07-6.14,6.8h0v12.1a.13.13,0,0,1-.13.13h-4.13a.13.13,0,0,1-.13-.13V40.17Z" transform="translate(-2.35 -0.59)"/><path class="cls-1" d="M103.13,29.6a11.84,11.84,0,1,0,7.45,21v1.64a.13.13,0,0,0,.14.13h4.12a.13.13,0,0,0,.13-.13V41.44C115,33.24,109.67,29.6,103.13,29.6Zm0,20c-4.12,0-7.46-3.67-7.46-8.2s3.34-8.2,7.46-8.2,7.45,3.67,7.45,8.2S107.24,49.64,103.13,49.64Z" transform="translate(-2.35 -0.59)"/><path class="cls-1" d="M156.63,29.6a11.84,11.84,0,1,0,7.46,21v1.64a.13.13,0,0,0,.13.13h4.12a.13.13,0,0,0,.13-.13V41.44C168.47,33.24,163.17,29.6,156.63,29.6Zm0,20c-4.12,0-7.45-3.67-7.45-8.2s3.33-8.2,7.45-8.2,7.46,3.67,7.46,8.2S160.75,49.64,156.63,49.64Z" transform="translate(-2.35 -0.59)"/><path class="cls-1" d="M62.78,29.6a11.84,11.84,0,1,0,7.46,21v1.64a.13.13,0,0,0,.13.13h4.12a.13.13,0,0,0,.13-.13V41.44C74.62,33.24,69.32,29.6,62.78,29.6Zm0,20c-4.12,0-7.46-3.67-7.46-8.2s3.34-8.2,7.46-8.2,7.46,3.67,7.46,8.2S66.9,49.64,62.78,49.64Z" transform="translate(-2.35 -0.59)"/><path class="cls-1" d="M78.13,41.44V52.27a.13.13,0,0,0,.13.13h4.12a.13.13,0,0,0,.14-.13V41.44c0-4.64,3.26-8.12,7.32-8.2a.13.13,0,0,0,.13-.13V29.73a.13.13,0,0,0-.13-.13C83.36,29.65,78.13,33.29,78.13,41.44Z" transform="translate(-2.35 -0.59)"/><path class="cls-1" d="M37.34,29.65a10.44,10.44,0,0,0-6.14,2V24.46a.13.13,0,0,0-.13-.13H26.94a.13.13,0,0,0-.13.13V52.27a.13.13,0,0,0,.13.13h4.13a.13.13,0,0,0,.13-.13V40.17h0c0-3.73,2.75-6.75,6.14-6.75s6.14,3,6.14,6.75v12.1a.13.13,0,0,0,.13.13h4.13a.13.13,0,0,0,.13-.13V40.17h0C47.87,33.24,43.15,29.65,37.34,29.65Z" transform="translate(-2.35 -0.59)"/><path class="cls-1" d="M20.87,45.46a.13.13,0,0,0-.21,0,7.37,7.37,0,0,1-6.47,4.13c-4.11,0-7.45-3.68-7.45-8.21s3.34-8.2,7.45-8.2a7.35,7.35,0,0,1,6.47,4.13.13.13,0,0,0,.21,0l2.83-2.83a.13.13,0,0,0,0-.17,11.85,11.85,0,1,0,0,14.09.13.13,0,0,0,0-.17Z" transform="translate(-2.35 -0.59)"/><path class="cls-1" d="M118.48,41.44c0,8.2,5.3,11.84,11.84,11.84a11.84,11.84,0,1,0-7.46-21V24.46a.13.13,0,0,0-.13-.13h-4.12a.13.13,0,0,0-.13.13v17Zm4.38,0h0v0c0-4.51,3.35-8.15,7.46-8.15s7.45,3.67,7.45,8.2-3.33,8.2-7.45,8.2S122.86,46,122.86,41.44Z" transform="translate(-2.35 -0.59)"/><path class="cls-1" d="M204.07,43.17c2,.76,3.88,1.51,3.88,3.38s-1.53,3.07-3.88,3.07a5.29,5.29,0,0,1-4.47-3l-3.14,3a10,10,0,0,0,7.61,3.63c4.91,0,8.26-2.84,8.26-6.71,0-4.33-4.34-5.62-8-6.87-2-.75-3.88-1.51-3.88-3.38s1.53-3.06,3.88-3.06a5.28,5.28,0,0,1,4.47,3l3.14-3a10,10,0,0,0-7.61-3.63c-4.91,0-8.26,2.83-8.26,6.7C196.11,40.63,200.45,41.92,204.07,43.17Z" transform="translate(-2.35 -0.59)"/></svg>