<svg id="キャラバンズ" data-name="キャラバンズ" xmlns="http://www.w3.org/2000/svg" viewBox="0 0 213.49 53.57"><defs><style>.cls-1{fill:#040000;}</style></defs><title>キャラバンズ</title><path d="M146.09,5.34h2.34l2.94,9,3-9h2.34l2.12,12.93h-2.33l-1.35-8.17-2.69,8.17H150.3l-2.67-8.17-1.39,8.17h-2.35Z" transform="translate(-74.85 -5.02)"/><path d="M167.36,8.71h2.35v9.56h-2.35v-1a4.61,4.61,0,0,1-1.38,1,3.72,3.72,0,0,1-1.5.3,4.12,4.12,0,0,1-3.13-1.44A5.09,5.09,0,0,1,160,13.51a5.21,5.21,0,0,1,1.28-3.63,4.05,4.05,0,0,1,3.12-1.42,3.86,3.86,0,0,1,1.58.33,4.27,4.27,0,0,1,1.36,1Zm-2.47,2a2.37,2.37,0,0,0-1.81.78,2.89,2.89,0,0,0-.72,2,2.89,2.89,0,0,0,.74,2,2.36,2.36,0,0,0,1.8.8,2.39,2.39,0,0,0,1.84-.79,2.93,2.93,0,0,0,.73-2.06,2.84,2.84,0,0,0-.73-2A2.42,2.42,0,0,0,164.89,10.68Z" transform="translate(-74.85 -5.02)"/><path d="M179,5h2.35V18.27H179v-1a4.38,4.38,0,0,1-1.38,1,3.71,3.71,0,0,1-1.49.3A4.13,4.13,0,0,1,173,17.08a5.08,5.08,0,0,1-1.32-3.57,5.16,5.16,0,0,1,1.28-3.63,4,4,0,0,1,3.11-1.42,3.86,3.86,0,0,1,1.58.33,4.16,4.16,0,0,1,1.36,1Zm-2.47,5.66a2.35,2.35,0,0,0-1.8.78,2.89,2.89,0,0,0-.72,2,2.88,2.88,0,0,0,.73,2,2.36,2.36,0,0,0,1.8.8,2.39,2.39,0,0,0,1.84-.79,2.93,2.93,0,0,0,.73-2.06,2.84,2.84,0,0,0-.73-2A2.42,2.42,0,0,0,176.52,10.68Z" transform="translate(-74.85 -5.02)"/><path d="M193.09,14.18h-7.54a2.59,2.59,0,0,0,.87,1.62,2.68,2.68,0,0,0,1.81.61,3.15,3.15,0,0,0,2.27-.94l2,1A4.66,4.66,0,0,1,190.7,18a5.47,5.47,0,0,1-2.45.52,4.83,4.83,0,0,1-3.59-1.42,4.92,4.92,0,0,1-1.38-3.56,5,5,0,0,1,1.38-3.63,4.56,4.56,0,0,1,3.46-1.45,4.76,4.76,0,0,1,3.6,1.45,5.28,5.28,0,0,1,1.38,3.82Zm-2.34-1.89a2.51,2.51,0,0,0-.92-1.3,2.66,2.66,0,0,0-1.59-.5,2.82,2.82,0,0,0-1.73.56,3.26,3.26,0,0,0-.86,1.24Z" transform="translate(-74.85 -5.02)"/><path d="M202.26,5V9.76a4.31,4.31,0,0,1,1.37-1,3.86,3.86,0,0,1,1.58-.33,4,4,0,0,1,3.12,1.42,5.21,5.21,0,0,1,1.28,3.63,5.08,5.08,0,0,1-1.32,3.57,4.14,4.14,0,0,1-3.14,1.44,3.8,3.8,0,0,1-1.51-.3,4.49,4.49,0,0,1-1.38-1v1h-2.34V5Zm2.46,5.66a2.42,2.42,0,0,0-1.84.77,2.84,2.84,0,0,0-.73,2,2.93,2.93,0,0,0,.73,2.06,2.5,2.5,0,0,0,3.66,0,2.88,2.88,0,0,0,.73-2,2.89,2.89,0,0,0-.72-2A2.38,2.38,0,0,0,204.72,10.68Z" transform="translate(-74.85 -5.02)"/><path d="M210.52,8.71h2.4l2.43,6,2.68-6h2.41l-5.86,13.06h-2.43l1.92-4.21Z" transform="translate(-74.85 -5.02)"/><path class="cls-1" d="M247.32,45.26c0-7,5.09-11,11.22-10.74,5.73.27,10.18,3.69,10.18,10.85V57.56a.13.13,0,0,1-.13.13H264.4a.14.14,0,0,1-.14-.13V45.26h0c0-3.8-2.79-6.92-6.24-6.92s-6.24,3.12-6.24,6.92h0v12.3a.13.13,0,0,1-.14.13h-4.19a.13.13,0,0,1-.13-.13V45.26Z" transform="translate(-74.85 -5.02)"/><path class="cls-1" d="M177.31,34.51a12,12,0,1,0,7.58,21.39v1.66a.13.13,0,0,0,.14.13h4.19a.13.13,0,0,0,.13-.13v-11C189.35,38.21,184,34.51,177.31,34.51Zm0,20.37c-4.18,0-7.58-3.73-7.58-8.34s3.4-8.33,7.58-8.33,7.58,3.73,7.58,8.33S181.5,54.88,177.31,54.88Z" transform="translate(-74.85 -5.02)"/><path class="cls-1" d="M231.71,34.51a12,12,0,1,0,7.58,21.39v1.66a.13.13,0,0,0,.14.13h4.18a.13.13,0,0,0,.14-.13v-11C243.75,38.21,238.36,34.51,231.71,34.51Zm0,20.37c-4.19,0-7.58-3.73-7.58-8.34s3.39-8.33,7.58-8.33,7.58,3.73,7.58,8.33S235.9,54.88,231.71,54.88Z" transform="translate(-74.85 -5.02)"/><path class="cls-1" d="M136.29,34.51a12,12,0,1,0,7.58,21.39v1.66a.13.13,0,0,0,.13.13h4.2a.13.13,0,0,0,.13-.13v-11C148.33,38.21,142.94,34.51,136.29,34.51Zm0,20.37c-4.19,0-7.58-3.73-7.58-8.34s3.39-8.33,7.58-8.33,7.58,3.73,7.58,8.33S140.48,54.88,136.29,54.88Z" transform="translate(-74.85 -5.02)"/><path class="cls-1" d="M151.9,46.54v11a.13.13,0,0,0,.13.13h4.19a.13.13,0,0,0,.13-.13v-11c0-4.71,3.33-8.25,7.45-8.33a.13.13,0,0,0,.14-.13V34.64a.13.13,0,0,0-.14-.13C157.21,34.55,151.9,38.26,151.9,46.54Z" transform="translate(-74.85 -5.02)"/><path class="cls-1" d="M110.43,34.56a10.65,10.65,0,0,0-6.25,2V29.29a.13.13,0,0,0-.13-.14H99.86a.14.14,0,0,0-.14.14V57.56a.13.13,0,0,0,.14.13h4.19a.13.13,0,0,0,.13-.13V45.26h0c0-3.8,2.79-6.87,6.24-6.87s6.24,3.07,6.24,6.87v12.3a.13.13,0,0,0,.13.13H121a.13.13,0,0,0,.13-.13V45.26h0C121.13,38.21,116.33,34.56,110.43,34.56Z" transform="translate(-74.85 -5.02)"/><path class="cls-1" d="M93.68,50.63a.14.14,0,0,0-.21,0,7.49,7.49,0,0,1-6.58,4.2c-4.18,0-7.58-3.73-7.58-8.34s3.4-8.34,7.58-8.34a7.49,7.49,0,0,1,6.58,4.2.13.13,0,0,0,.21,0l2.87-2.87a.14.14,0,0,0,0-.18,12,12,0,1,0,0,14.32.12.12,0,0,0,0-.17Z" transform="translate(-74.85 -5.02)"/><path class="cls-1" d="M192.92,46.54c0,8.34,5.39,12,12,12a12,12,0,1,0-7.58-21.39v-7.9a.13.13,0,0,0-.13-.14h-4.2a.13.13,0,0,0-.13.14V46.54Zm4.46,0h0v0c0-4.59,3.4-8.29,7.58-8.29s7.58,3.73,7.58,8.33-3.4,8.34-7.58,8.34S197.38,51.15,197.38,46.54Z" transform="translate(-74.85 -5.02)"/><path class="cls-1" d="M279.94,48.31c2.08.77,3.94,1.53,3.94,3.43s-1.55,3.12-3.94,3.12a5.36,5.36,0,0,1-4.54-3.08l-3.2,3.09a10.18,10.18,0,0,0,7.74,3.69c5,0,8.4-2.88,8.4-6.82,0-4.4-4.41-5.71-8.09-7-2.08-.77-3.95-1.54-3.95-3.44s1.56-3.11,3.95-3.11a5.36,5.36,0,0,1,4.54,3.08L288,38.2a10.18,10.18,0,0,0-7.74-3.69c-5,0-8.4,2.87-8.4,6.81C271.85,45.72,276.26,47,279.94,48.31Z" transform="translate(-74.85 -5.02)"/></svg>