<svg id="icon" data-name="icon" xmlns="http://www.w3.org/2000/svg" viewBox="0 0 31.87 31.15"><defs><style>.cls-1{fill:#2c2f30;}</style></defs><title>icon</title><path class="cls-1" d="M24.3,8.44c.5-.59,4.27-5,5-5a4.17,4.17,0,0,1,1.89,2.11.58.58,0,0,1-.17.35c-1.17,1.5-5.61,4.32-5.93,4.47s-.46,0-.76-.3c0,0-.68-.66-.54-1A2.93,2.93,0,0,1,24.3,8.44Z" transform="translate(-2.08 -1.27)"/><path class="cls-1" d="M26,11.48l.05-.05s6-2.94,7-2.55c.35.13.71,1.08.82,1.57s.08.65,0,.8c-1.05.95-6.93,1.9-7.25,1.86s-.46-.39-.56-.67C26,12.32,25.78,11.72,26,11.48Z" transform="translate(-2.08 -1.27)"/><path class="cls-1" d="M22.57,1.4a.22.22,0,0,1,.12-.09c.33-.15,1.64.13,1.85.69.35,1-2.15,6.11-2.18,6.15h0c-.17.21-.51.12-.69.06s-.55-.23-.55-.54S21.93,2.17,22.57,1.4Z" transform="translate(-2.08 -1.27)"/><path class="cls-1" d="M22.86,19.85a1.74,1.74,0,0,0-1-.51l1.46-1.46a1.81,1.81,0,0,0-1.05-3.07h0a1.8,1.8,0,0,0-2.55-2.55h0a1.81,1.81,0,0,0-3.07-1l-4.39,4.4a2.69,2.69,0,0,0,0-.4,2,2,0,0,0-.63-1.49,1.06,1.06,0,0,0-1.55-.07L8.79,14.93,6.53,17.19,4.3,19.41A7.62,7.62,0,0,0,15.08,30.19l7.78-7.79A1.79,1.79,0,0,0,22.86,19.85Zm-8.28,9.84A6.92,6.92,0,0,1,4.8,19.91L7,17.75h0L7,17.68l3.53-3.54c.21-.21.45,0,.58.08a1.34,1.34,0,0,1,.41,1,2.94,2.94,0,0,1-.91,2L8,19.86a.35.35,0,0,0,0,.5.36.36,0,0,0,.49,0l2.68-2.68.15-.16.05,0,5.77-5.77a1.1,1.1,0,1,1,1.56,1.56l-6.21,6.21a.36.36,0,0,0,0,.49.35.35,0,0,0,.5,0l6.2-6.21,1-1a1.1,1.1,0,1,1,1.56,1.56l-1,1-6.21,6.2a.35.35,0,0,0,0,.5A.36.36,0,0,0,15,22l6.21-6.21a1.1,1.1,0,0,1,1.56,1.56l-2.05,2.06-.41.41-3.74,3.74a.35.35,0,1,0,.49.49l3.74-3.74a1.1,1.1,0,0,1,1.56,0,1.12,1.12,0,0,1,0,1.57Z" transform="translate(-2.08 -1.27)"/></svg>