<svg id="icon" data-name="icon" xmlns="http://www.w3.org/2000/svg" viewBox="0 0 31.87 31.15"><defs><style>.cls-1{fill:#fbfae9;}</style></defs><title>icon</title><path class="cls-1" d="M24.89,8.44c.5-.59,4.27-5,5-5a4.13,4.13,0,0,1,1.89,2.11c0,.1,0,.2-.17.35-1.17,1.5-5.6,4.32-5.93,4.47s-.45,0-.76-.3c0,0-.68-.66-.53-1C24.43,9,24.47,8.94,24.89,8.44Z" transform="translate(-2.67 -1.27)"/><path class="cls-1" d="M26.57,11.48l.05-.05c.05,0,6-2.94,7-2.55.35.13.72,1.08.83,1.57s.07.65-.06.8c-1,.95-6.92,1.9-7.25,1.86s-.45-.39-.56-.67C26.58,12.32,26.37,11.72,26.57,11.48Z" transform="translate(-2.67 -1.27)"/><path class="cls-1" d="M23.16,1.4a.31.31,0,0,1,.12-.09c.33-.15,1.65.13,1.85.69C25.49,3,23,8.11,23,8.15h0c-.18.21-.51.12-.7.06S21.7,8,21.7,7.68,22.52,2.17,23.16,1.4Z" transform="translate(-2.67 -1.27)"/><path class="cls-1" d="M23.46,19.85a1.8,1.8,0,0,0-1.05-.51l1.46-1.46a1.81,1.81,0,0,0,0-2.55,1.78,1.78,0,0,0-1.05-.52h0a1.81,1.81,0,0,0,0-2.55,1.79,1.79,0,0,0-2.55,0h0a1.86,1.86,0,0,0-.51-1,1.81,1.81,0,0,0-2.55,0l-4.4,4.4a2.69,2.69,0,0,0,0-.4,2,2,0,0,0-.62-1.49,1.07,1.07,0,0,0-1.56-.07L9.38,14.93,7.13,17.19,4.9,19.41A7.62,7.62,0,0,0,15.67,30.19l7.79-7.79A1.81,1.81,0,0,0,23.46,19.85Zm-8.28,9.84a6.92,6.92,0,0,1-9.79-9.78l2.15-2.16h0l.08-.06,3.54-3.54c.21-.21.45,0,.57.08a1.34,1.34,0,0,1,.41,1,3,3,0,0,1-.9,2L8.56,19.86a.35.35,0,0,0,0,.5.36.36,0,0,0,.49,0l2.68-2.68.15-.16,0,0,5.77-5.77a1.1,1.1,0,1,1,1.56,1.56l-6.2,6.21a.35.35,0,1,0,.49.49l6.21-6.21,1-1a1.1,1.1,0,0,1,1.56,0,1.09,1.09,0,0,1,0,1.56l-1,1-6.21,6.2a.35.35,0,0,0,.5.5l6.2-6.21a1.12,1.12,0,0,1,1.57,0,1.1,1.1,0,0,1,0,1.56l-2.06,2.06-.41.41-3.74,3.74a.35.35,0,1,0,.49.49l3.74-3.74A1.11,1.11,0,0,1,23,21.91Z" transform="translate(-2.67 -1.27)"/></svg>