<svg id="charala" data-name="charala" xmlns="http://www.w3.org/2000/svg" viewBox="0 0 328.08 54.25"><defs><style>.cls-1{fill:#fcfaf0;}.cls-2{fill:#395590;}.cls-3{fill:#c32d1f;}.cls-4{fill:#87b828;}.cls-5{fill:#f4ab16;}.cls-6{fill:#040000;}.cls-7{fill:#1b94d3;}.cls-8{fill:#eb99b4;}</style></defs><title>charala</title><path class="cls-1" d="M322.67,48.41v1H321v4.54h-1.2V49.38H318v-1Zm7.19,0v5.51h-1.15V49.39l-1.81,4.53h-.58l-1.75-4.53v4.53h-1.15V48.41h1.75L326.61,52l1.51-3.55Z" transform="translate(-1.78 -0.08)"/><path class="cls-1" d="M313.94,49.84a4.08,4.08,0,1,1-8.16,0V31.9h0a4.08,4.08,0,0,1,8.16,0Z" transform="translate(-1.78 -0.08)"/><path class="cls-1" d="M304.63,49.84V37.43a13.86,13.86,0,1,1,.86-8.39,5.2,5.2,0,0,1,8.16-.74,22,22,0,1,0-9,21.58Z" transform="translate(-1.78 -0.08)"/><path class="cls-1" d="M256,37.09a5.21,5.21,0,0,1-4.08-2V49.84a4.08,4.08,0,0,0,8.16,0V35.12A5.21,5.21,0,0,1,256,37.09Z" transform="translate(-1.78 -0.08)"/><path class="cls-1" d="M251.94,31.86V4.16a4.08,4.08,0,0,1,8.16,0v27.7a4.08,4.08,0,0,1-8.16,0Z" transform="translate(-1.78 -0.08)"/><circle class="cls-1" cx="236.29" cy="49.76" r="4.08"/><path class="cls-1" d="M224.21,49.84a4.08,4.08,0,0,1-8.16,0V31.9h0a4.08,4.08,0,0,1,8.16,0Z" transform="translate(-1.78 -0.08)"/><path class="cls-1" d="M214.9,49.84V37.43a13.86,13.86,0,1,1,.86-8.39,5.2,5.2,0,0,1,8.16-.74,22,22,0,1,0-9,21.58Z" transform="translate(-1.78 -0.08)"/><path class="cls-1" d="M154.16,37.13a5.21,5.21,0,0,1-4.08-2V49.84a4.08,4.08,0,0,0,8.16,0V35.16A5.21,5.21,0,0,1,154.16,37.13Z" transform="translate(-1.78 -0.08)"/><path class="cls-1" d="M150.08,31.9h0a22,22,0,0,1,22-22h0a4.08,4.08,0,1,1,0,8.15,13.87,13.87,0,0,0-13.87,13.87h0a4.08,4.08,0,0,1-8.16,0Z" transform="translate(-1.78 -0.08)"/><path class="cls-1" d="M140.12,49.84a4.08,4.08,0,0,1-8.16,0V31.9h0a4.08,4.08,0,0,1,8.16,0Z" transform="translate(-1.78 -0.08)"/><path class="cls-1" d="M130.81,49.84V37.43a13.86,13.86,0,1,1,.86-8.39,5.2,5.2,0,0,1,8.16-.74,22,22,0,1,0-9,21.58Z" transform="translate(-1.78 -0.08)"/><path class="cls-1" d="M83.83,37.13a5.21,5.21,0,0,1-4.07-2V50.71a4,4,0,0,0,4.07,3.62,4.08,4.08,0,0,0,4.08-4.08V35.16A5.21,5.21,0,0,1,83.83,37.13Z" transform="translate(-1.78 -0.08)"/><path class="cls-1" d="M68.34,10a19.41,19.41,0,0,0-10.27,2.92V24.54a11.42,11.42,0,0,1,21.69,5h0V31.9a4.08,4.08,0,1,0,8.15,0V29.54h0A19.6,19.6,0,0,0,68.34,10Z" transform="translate(-1.78 -0.08)"/><path class="cls-1" d="M48.76,49.85V4.16a4.08,4.08,0,1,1,8.15,0V49.85a4.08,4.08,0,0,1-8.15,0Z" transform="translate(-1.78 -0.08)"/><path class="cls-1" d="M9.94,31.9a4.08,4.08,0,0,0-8.16,0h0A22,22,0,0,0,39.45,47.4a4.08,4.08,0,0,0-5.77-5.77A13.87,13.87,0,0,1,9.94,31.89Z" transform="translate(-1.78 -0.08)"/><path class="cls-1" d="M5.86,26.67A5.23,5.23,0,0,1,10.24,29a13.86,13.86,0,0,1,23.44-6.88,4.1,4.1,0,0,0,5.79-5.79A22.06,22.06,0,0,0,2.08,28.29,5.23,5.23,0,0,1,5.86,26.67Z" transform="translate(-1.78 -0.08)"/><path class="cls-2" d="M313.94,49.84a4.08,4.08,0,1,1-8.16,0V31.9h0a4.08,4.08,0,0,1,8.16,0Z" transform="translate(-1.78 -0.08)"/><path class="cls-3" d="M256,37.09a5.21,5.21,0,0,1-4.08-2V49.84a4.08,4.08,0,0,0,8.16,0V35.12A5.21,5.21,0,0,1,256,37.09Z" transform="translate(-1.78 -0.08)"/><path class="cls-4" d="M224.21,49.84a4.08,4.08,0,0,1-8.16,0V31.9h0a4.08,4.08,0,0,1,8.16,0Z" transform="translate(-1.78 -0.08)"/><path class="cls-5" d="M154.16,37.13a5.21,5.21,0,0,1-4.08-2V49.84a4.08,4.08,0,0,0,8.16,0V35.16A5.21,5.21,0,0,1,154.16,37.13Z" transform="translate(-1.78 -0.08)"/><path class="cls-6" d="M140.12,49.84a4.08,4.08,0,0,1-8.16,0V31.9h0a4.08,4.08,0,0,1,8.16,0Z" transform="translate(-1.78 -0.08)"/><path class="cls-7" d="M83.83,37.13a5.21,5.21,0,0,1-4.07-2V50.71a4,4,0,0,0,4.07,3.62,4.08,4.08,0,0,0,4.08-4.08V35.16A5.21,5.21,0,0,1,83.83,37.13Z" transform="translate(-1.78 -0.08)"/><path class="cls-8" d="M9.94,31.9a4.08,4.08,0,0,0-8.16,0h0A22,22,0,0,0,39.45,47.4a4.08,4.08,0,0,0-5.77-5.77A13.87,13.87,0,0,1,9.94,31.89Z" transform="translate(-1.78 -0.08)"/><path class="cls-1" d="M322.67,48.41v1H321v4.54h-1.2V49.38H318v-1Zm7.19,0v5.51h-1.15V49.39l-1.81,4.53h-.58l-1.75-4.53v4.53h-1.15V48.41h1.75L326.61,52l1.51-3.55Z" transform="translate(-1.78 -0.08)"/><path class="cls-1" d="M313.94,49.84a4.08,4.08,0,1,1-8.16,0V31.9h0a4.08,4.08,0,0,1,8.16,0Z" transform="translate(-1.78 -0.08)"/><path class="cls-1" d="M304.63,49.84V37.43a13.86,13.86,0,1,1,.86-8.39,5.2,5.2,0,0,1,8.16-.74,22,22,0,1,0-9,21.58Z" transform="translate(-1.78 -0.08)"/><path class="cls-1" d="M256,37.09a5.21,5.21,0,0,1-4.08-2V49.84a4.08,4.08,0,0,0,8.16,0V35.12A5.21,5.21,0,0,1,256,37.09Z" transform="translate(-1.78 -0.08)"/><path class="cls-1" d="M251.94,31.86V4.16a4.08,4.08,0,0,1,8.16,0v27.7a4.08,4.08,0,0,1-8.16,0Z" transform="translate(-1.78 -0.08)"/><circle class="cls-1" cx="236.29" cy="49.76" r="4.08"/><path class="cls-1" d="M224.21,49.84a4.08,4.08,0,0,1-8.16,0V31.9h0a4.08,4.08,0,0,1,8.16,0Z" transform="translate(-1.78 -0.08)"/><path class="cls-1" d="M214.9,49.84V37.43a13.86,13.86,0,1,1,.86-8.39,5.2,5.2,0,0,1,8.16-.74,22,22,0,1,0-9,21.58Z" transform="translate(-1.78 -0.08)"/><path class="cls-1" d="M154.16,37.13a5.21,5.21,0,0,1-4.08-2V49.84a4.08,4.08,0,0,0,8.16,0V35.16A5.21,5.21,0,0,1,154.16,37.13Z" transform="translate(-1.78 -0.08)"/><path class="cls-1" d="M150.08,31.9h0a22,22,0,0,1,22-22h0a4.08,4.08,0,1,1,0,8.15,13.87,13.87,0,0,0-13.87,13.87h0a4.08,4.08,0,0,1-8.16,0Z" transform="translate(-1.78 -0.08)"/><path class="cls-1" d="M140.12,49.84a4.08,4.08,0,0,1-8.16,0V31.9h0a4.08,4.08,0,0,1,8.16,0Z" transform="translate(-1.78 -0.08)"/><path class="cls-1" d="M130.81,49.84V37.43a13.86,13.86,0,1,1,.86-8.39,5.2,5.2,0,0,1,8.16-.74,22,22,0,1,0-9,21.58Z" transform="translate(-1.78 -0.08)"/><path class="cls-1" d="M83.83,37.13a5.21,5.21,0,0,1-4.07-2V50.71a4,4,0,0,0,4.07,3.62,4.08,4.08,0,0,0,4.08-4.08V35.16A5.21,5.21,0,0,1,83.83,37.13Z" transform="translate(-1.78 -0.08)"/><path class="cls-1" d="M68.34,10a19.41,19.41,0,0,0-10.27,2.92V24.54a11.42,11.42,0,0,1,21.69,5h0V31.9a4.08,4.08,0,1,0,8.15,0V29.54h0A19.6,19.6,0,0,0,68.34,10Z" transform="translate(-1.78 -0.08)"/><path class="cls-1" d="M48.76,49.85V4.16a4.08,4.08,0,1,1,8.15,0V49.85a4.08,4.08,0,0,1-8.15,0Z" transform="translate(-1.78 -0.08)"/><path class="cls-1" d="M9.94,31.9a4.08,4.08,0,0,0-8.16,0h0A22,22,0,0,0,39.45,47.4a4.08,4.08,0,0,0-5.77-5.77A13.87,13.87,0,0,1,9.94,31.89Z" transform="translate(-1.78 -0.08)"/><path class="cls-1" d="M5.86,26.67A5.23,5.23,0,0,1,10.24,29a13.86,13.86,0,0,1,23.44-6.88,4.1,4.1,0,0,0,5.79-5.79A22.06,22.06,0,0,0,2.08,28.29,5.23,5.23,0,0,1,5.86,26.67Z" transform="translate(-1.78 -0.08)"/><path class="cls-1" d="M313.94,49.84a4.08,4.08,0,1,1-8.16,0V31.9h0a4.08,4.08,0,0,1,8.16,0Z" transform="translate(-1.78 -0.08)"/><path class="cls-1" d="M256,37.09a5.21,5.21,0,0,1-4.08-2V49.84a4.08,4.08,0,0,0,8.16,0V35.12A5.21,5.21,0,0,1,256,37.09Z" transform="translate(-1.78 -0.08)"/><path class="cls-1" d="M224.21,49.84a4.08,4.08,0,0,1-8.16,0V31.9h0a4.08,4.08,0,0,1,8.16,0Z" transform="translate(-1.78 -0.08)"/><path class="cls-1" d="M154.16,37.13a5.21,5.21,0,0,1-4.08-2V49.84a4.08,4.08,0,0,0,8.16,0V35.16A5.21,5.21,0,0,1,154.16,37.13Z" transform="translate(-1.78 -0.08)"/><path class="cls-1" d="M140.12,49.84a4.08,4.08,0,0,1-8.16,0V31.9h0a4.08,4.08,0,0,1,8.16,0Z" transform="translate(-1.78 -0.08)"/><path class="cls-1" d="M83.83,37.13a5.21,5.21,0,0,1-4.07-2V50.71a4,4,0,0,0,4.07,3.62,4.08,4.08,0,0,0,4.08-4.08V35.16A5.21,5.21,0,0,1,83.83,37.13Z" transform="translate(-1.78 -0.08)"/><path class="cls-1" d="M9.94,31.9a4.08,4.08,0,0,0-8.16,0h0A22,22,0,0,0,39.45,47.4a4.08,4.08,0,0,0-5.77-5.77A13.87,13.87,0,0,1,9.94,31.89Z" transform="translate(-1.78 -0.08)"/></svg>