<svg id="プライバシーポリシー" data-name="プライバシーポリシー" xmlns="http://www.w3.org/2000/svg" viewBox="0 0 350 70"><defs><style>.cls-1{fill:#fdfbff;}.cls-2{fill:#fff;}.cls-3{fill:#040000;}</style></defs><title>プライバシーポリシー</title><path class="cls-1" d="M115.83,67.37a14.57,14.57,0,0,1-14.56-14.55v-13a4.11,4.11,0,0,1,4.21-4.09h.43v-6a5.29,5.29,0,0,1,5.29-5.29h.27a5.29,5.29,0,0,1,8.71,0h.28a5.3,5.3,0,0,1,5.29,5.29V30a5.31,5.31,0,0,1,4.63,5.25V52.82A14.56,14.56,0,0,1,115.83,67.37Z"/><path class="cls-2" d="M102.29,28.45a3,3,0,0,1-1.1-.21A6.38,6.38,0,0,1,99.41,27c-9.73-8.18-9.67-9.69-9.63-10.79.09-2.21,4-5.54,6-5.64h.14a3.34,3.34,0,0,1,2.09.81c3.12,2.45,8.28,10.71,8.56,11.32s.76,2.22-1,4A5,5,0,0,1,102.29,28.45Z"/><path class="cls-2" d="M106.86,24.78a3.17,3.17,0,0,1-2.1-.72l-.19-.19-.08-.08-.2-.24c-.07-.09-6-11.26-4.81-14.64.71-2,3.61-2.78,4.48-3a5.61,5.61,0,0,1,1.29-.16,3.34,3.34,0,0,1,2.22.76l.24.22c2.29,2.52,4.05,13.47,3.87,14.72a3.74,3.74,0,0,1-2.73,2.92A6.26,6.26,0,0,1,106.86,24.78Z"/><path class="cls-2" d="M99.65,33.19c-.09,0-10.36-1.26-12.6-3.12A3,3,0,0,1,86.22,29c-.72-1.64.2-3.86.3-4.11a4.07,4.07,0,0,1,2.32-2.4,3.58,3.58,0,0,1,1.26-.21c3.27,0,11.67,4.27,11.73,4.31l.22.17a3.38,3.38,0,0,1,.81,3.89,3.47,3.47,0,0,1-3.2,2.56Z"/><path class="cls-3" d="M125.09,29.85a2.82,2.82,0,0,0-1.76.61V27.17a2.87,2.87,0,0,0-2.87-2.87,2.82,2.82,0,0,0-1.76.6v0a2.87,2.87,0,0,0-5.74,0v0a2.88,2.88,0,0,0-4.64,2.27v9.89a4.72,4.72,0,0,0-.41-.48,3.27,3.27,0,0,0-2.39-1,1.69,1.69,0,0,0-1.83,1.67v13a12.14,12.14,0,0,0,24.27,0V32.72A2.88,2.88,0,0,0,125.09,29.85Zm1.76,20.41a11,11,0,0,1-22,0V45.41h0a.76.76,0,0,0,0-.16v-8c0-.48.45-.56.73-.56a2.15,2.15,0,0,1,1.59.66,4.68,4.68,0,0,1,1.19,3.23v6a.56.56,0,0,0,1.12,0v-6c0-.11,0-.23,0-.34s0-.07,0-.1v-13a1.76,1.76,0,1,1,3.52,0v14a.55.55,0,0,0,.55.56.56.56,0,0,0,.56-.56V24.88a1.76,1.76,0,0,1,3.52,0V41.14a.55.55,0,0,0,.55.56.56.56,0,0,0,.56-.56v-14a1.76,1.76,0,0,1,3.52,0v14a.56.56,0,1,0,1.11,0V32.72a1.76,1.76,0,1,1,3.52,0Z"/><path class="cls-3" d="M101,22.6c-1-.87-8.82-7.5-8.77-8.84,0-.81,2.76-3.28,3.71-3.33.18,0,.35.09.62.3,2.63,2.06,7.6,9.86,7.86,10.43.16.35,0,.8-.53,1.34,0,0-1.15,1.19-1.77.94A5,5,0,0,1,101,22.6Z"/><path class="cls-3" d="M106.32,19.65l-.08-.09c-.06-.08-5.17-10.49-4.48-12.39.22-.6,1.89-1.25,2.75-1.44a1.66,1.66,0,0,1,1.41.09c1.67,1.84,3.35,12.18,3.27,12.75s-.68.8-1.18,1C107.8,19.63,106.74,20,106.32,19.65Z"/><path class="cls-3" d="M88.6,25.65a.69.69,0,0,1-.17-.22c-.25-.57.24-2.89,1.23-3.25C91.39,21.55,100.4,26,100.48,26h0c.37.31.22.9.11,1.22s-.41,1-.94,1S90,26.77,88.6,25.65Z"/><path class="cls-1" d="M143.62,56.85a3.33,3.33,0,0,1-3.28-3l-1.68-19.15a4,4,0,0,1,3.61-4.31L145,30.1c.22,0,.44,0,.65,0a7,7,0,0,1,4.65,1.73,7.51,7.51,0,0,1,2.54,5l.63,7.14a7.52,7.52,0,0,1-1.62,5.32A7.14,7.14,0,0,1,147,51.87l-.2,0,.11,1.35a3.29,3.29,0,0,1-3,3.59Zm2.55-11.52h.2a.75.75,0,0,0,.61-.82l-.63-7.14a.75.75,0,0,0-.68-.7l-.25,0Z"/><path class="cls-1" d="M156,55.76a3.25,3.25,0,0,1-3.25-3l-1-10.91a4,4,0,0,1,3.6-4.34l.94-.08.74,0a6.22,6.22,0,0,1,6.52,5.26,3.07,3.07,0,0,1-.6,2.38,3.32,3.32,0,0,1-2.32,1.26h-.21a3,3,0,0,1-1.81-.61l.56,6.49a3.25,3.25,0,0,1-2.93,3.53Z"/><path class="cls-1" d="M166,54.89a3.3,3.3,0,0,1-3.28-3.06l-1-11.48a3.34,3.34,0,0,1,.55-2.19A3.67,3.67,0,0,1,161,35.74a3.63,3.63,0,0,1,.77-2.58,3.49,3.49,0,0,1,2.43-1.3l.3,0a3.54,3.54,0,0,1,3.52,3.29,3.64,3.64,0,0,1-.76,2.58,3.46,3.46,0,0,1,.94,2.07l1,11.47a3.4,3.4,0,0,1-.71,2.41,3.27,3.27,0,0,1-2.28,1.22Z"/><path class="cls-1" d="M174.78,54.09A3.4,3.4,0,0,1,171.64,52l-4.8-11.4a3.26,3.26,0,0,1,1.66-4.23,3.19,3.19,0,0,1,4.23,1.69l1.2,2.85.69-3a3.19,3.19,0,0,1,3.12-2.49,3,3,0,0,1,.73.08,3.21,3.21,0,0,1,2.4,3.86l-2.75,12.06A3.44,3.44,0,0,1,174.78,54.09Z"/><path class="cls-1" d="M186.09,53.12a6.81,6.81,0,0,1-6.74-6.22,7,7,0,0,1,2.13-5.63,3.28,3.28,0,0,1-1.1-5,3.21,3.21,0,0,1,2.21-1.17l1.75-.15a5.83,5.83,0,0,1,.59,0,6.89,6.89,0,0,1,6.77,6.3l.59,6.72a4.62,4.62,0,0,1-1,3.39A4.55,4.55,0,0,1,188.1,53l-1.43.12Z"/><path class="cls-1" d="M196.71,52.16a6.75,6.75,0,0,1-6.49-6.3l-.4-4.54a7,7,0,0,1,1.6-5.22,6.4,6.4,0,0,1,4.21-2.17l.58,0a6.56,6.56,0,0,1,6.1,4.69,2.92,2.92,0,0,1-.26,2.36,3.19,3.19,0,0,1-2.1,1.51,3.53,3.53,0,0,1-.72.08,3.43,3.43,0,0,1-3-1.86.36.36,0,0,0,0-.09.91.91,0,0,0,0,.17l.4,4.55a.83.83,0,0,0,.05.2c.83-2.31,2.4-2.67,3.27-2.67l.45,0A3.11,3.11,0,0,1,203,46.33a6.54,6.54,0,0,1-5.76,5.81Z"/><path class="cls-1" d="M207.08,56a3.14,3.14,0,0,1-2.7-1.52,3.16,3.16,0,0,1-.4-2.42l.66-3.2-4.1-11.47a3.22,3.22,0,0,1,1.9-4.08,3,3,0,0,1,1.1-.21,3.22,3.22,0,0,1,3,2.09l.63,1.75.39-1.91a3.27,3.27,0,0,1,3.15-2.55,3.18,3.18,0,0,1,.62.06A3.26,3.26,0,0,1,213.39,34a3.17,3.17,0,0,1,.4,2.42l-3.59,17A3.17,3.17,0,0,1,207.08,56Z"/><path class="cls-1" d="M215.94,51.18a3.61,3.61,0,0,1-.33-7.2h.32a3.61,3.61,0,0,1,.31,7.2Z"/><path class="cls-1" d="M221.93,50a3.34,3.34,0,0,1-3.29-3L217,27.81a4,4,0,0,1,3.6-4.31l2.78-.25c.21,0,.43,0,.64,0A7.07,7.07,0,0,1,228.65,25a7.5,7.5,0,0,1,2.54,5l.62,7.15a7.46,7.46,0,0,1-1.62,5.32A7.12,7.12,0,0,1,225.25,45l-.2,0,.12,1.35a3.29,3.29,0,0,1-3,3.59Zm2.55-11.52.2,0a.74.74,0,0,0,.6-.81l-.62-7.14a.76.76,0,0,0-.69-.7l-.25,0Z"/><path class="cls-1" d="M237.48,48.59a6.83,6.83,0,0,1-6.74-6.24l-.4-4.51a6.81,6.81,0,0,1,6.13-7.42l.58,0a6.86,6.86,0,0,1,6.75,6.27l.4,4.51a6.81,6.81,0,0,1-6.14,7.39ZM237,36.85a.39.39,0,0,0-.31.43l.4,4.51a.36.36,0,0,0,.34.34.36.36,0,0,0,.35-.4l-.39-4.51a.4.4,0,0,0-.36-.37Z"/><path class="cls-1" d="M246.35,47.86a3.29,3.29,0,0,1-3.25-3l-1.78-20.35a3.26,3.26,0,0,1,3-3.53h.28a3.27,3.27,0,0,1,3.23,3l1.78,20.36a3.25,3.25,0,0,1-2.94,3.53Z"/><path class="cls-1" d="M251.67,47.39a3.29,3.29,0,0,1-3.28-3.06l-1-11.48a3.4,3.4,0,0,1,.55-2.19,3.72,3.72,0,0,1-1.19-2.42,3.64,3.64,0,0,1,.78-2.58,3.45,3.45,0,0,1,2.42-1.3h.31a3.55,3.55,0,0,1,3.52,3.28,3.67,3.67,0,0,1-.76,2.58,3.39,3.39,0,0,1,.93,2.07l1,11.48a3.33,3.33,0,0,1-.71,2.4A3.23,3.23,0,0,1,252,47.38Z"/><path class="cls-1" d="M259.72,46.65a6.74,6.74,0,0,1-6.49-6.3l-.4-4.54a6.88,6.88,0,0,1,1.6-5.22,6.38,6.38,0,0,1,4.21-2.17l.58,0a6.57,6.57,0,0,1,6.1,4.69,3,3,0,0,1-.26,2.36,3.23,3.23,0,0,1-2.11,1.5,3,3,0,0,1-.72.09,3.42,3.42,0,0,1-3-1.87l-.06-.08v.17l.4,4.54a1,1,0,0,0,0,.21c.83-2.32,2.41-2.67,3.28-2.67l.45,0A3.11,3.11,0,0,1,266,40.82a6.55,6.55,0,0,1-5.77,5.81Z"/><path class="cls-1" d="M270.08,50.5a3.15,3.15,0,0,1-.61-.06A3.29,3.29,0,0,1,267.4,49a3.22,3.22,0,0,1-.42-2.44l.67-3.2-4.11-11.47a3.25,3.25,0,0,1,1.9-4.09,3.12,3.12,0,0,1,1.11-.2,3.22,3.22,0,0,1,3,2.09l.62,1.74.4-1.91a3.19,3.19,0,0,1,5.85-1,3.19,3.19,0,0,1,.4,2.41L273.2,48A3.17,3.17,0,0,1,270.08,50.5Z"/><path d="M149,31.33A5.51,5.51,0,0,1,150.89,35l.62,7.14a5.44,5.44,0,0,1-1.19,3.9,5.11,5.11,0,0,1-3.55,1.88l-2.19.19.29,3.35a1.29,1.29,0,0,1-1.14,1.42,1.31,1.31,0,0,1-1.4-1.2l-1.68-19.16a2,2,0,0,1,1.79-2.14l2.78-.24A5.06,5.06,0,0,1,149,31.33Zm-.07,11-.63-7.14a2.73,2.73,0,0,0-2.9-2.51l-2.19.19,1.1,12.64,2.2-.19A2.74,2.74,0,0,0,149,42.32Z"/><path d="M156.5,37.45c2.31-.2,4.67.8,5.12,3.56a1.19,1.19,0,0,1-1.12,1.33,1.39,1.39,0,0,1-1.25-1.15c-.23-.95-1.1-1.38-2.53-1.26l-.41,0,.91,10.43a1.24,1.24,0,1,1-2.48.21l-1-10.9a2,2,0,0,1,1.79-2.18Z"/><path d="M166.07,33.3a1.53,1.53,0,1,1-1.66-1.45A1.57,1.57,0,0,1,166.07,33.3Zm1.18,16.13a1.3,1.3,0,1,1-2.58.22l-1-11.47a1.29,1.29,0,1,1,2.57-.23Z"/><path d="M178.92,36.93l-2.75,12a1.42,1.42,0,0,1-2.69.23l-4.8-11.38a1.25,1.25,0,0,1,.62-1.62,1.2,1.2,0,0,1,1.59.64l3.61,8.57,2.07-9.06a1.2,1.2,0,0,1,1.45-.91A1.23,1.23,0,0,1,178.92,36.93Z"/><path d="M184.52,34.91a4.83,4.83,0,0,1,5.19,4.45l.59,6.73A2.64,2.64,0,0,1,187.93,49l-1.43.13a4.81,4.81,0,0,1-5.16-4.4v0a4.82,4.82,0,0,1,4.32-5.22l1.55-.14a2.36,2.36,0,0,0-2.46-1.89l-1.76.15a1.24,1.24,0,0,1-1.34-1.14,1.26,1.26,0,0,1,1.12-1.37Zm1.76,11.74,1.55-.14-.41-4.75-1.55.14a2.38,2.38,0,0,0,.41,4.75Z"/><path d="M201,44.13a4.55,4.55,0,0,1-3.95,4,4.71,4.71,0,0,1-4.84-4.46l-.39-4.54a4.4,4.4,0,0,1,8.57-2,1.05,1.05,0,0,1-.88,1.35,1.39,1.39,0,0,1-1.52-.83,2.08,2.08,0,0,0-2-1.31,2.25,2.25,0,0,0-1.81,2.57l.4,4.54a2.22,2.22,0,0,0,2.22,2.19,2,2,0,0,0,1.65-1.35c.45-1.31,1.08-1.54,1.62-1.47A1.1,1.1,0,0,1,201,44.13Z"/><path d="M208.24,51.05a1.2,1.2,0,0,1-1.39.94,1.23,1.23,0,0,1-.92-1.46l.78-3.8-4.29-12a1.22,1.22,0,0,1,.72-1.54,1.18,1.18,0,0,1,1.51.71l3,8.41,1.85-8.86a1.23,1.23,0,0,1,1.42-.94,1.21,1.21,0,0,1,.92,1.45Z"/><path d="M215.79,44a1.6,1.6,0,1,1-1.41,1.75A1.59,1.59,0,0,1,215.79,44Z"/><path d="M227.34,24.48a5.44,5.44,0,0,1,1.85,3.63l.63,7.14a5.54,5.54,0,0,1-1.19,3.9A5.15,5.15,0,0,1,225.08,41l-2.19.19.29,3.34A1.3,1.3,0,0,1,222,46a1.32,1.32,0,0,1-1.41-1.2L219,25.63a2,2,0,0,1,1.79-2.14l2.77-.25A5.09,5.09,0,0,1,227.34,24.48Zm-.06,11-.63-7.14a2.75,2.75,0,0,0-2.9-2.52l-2.2.2,1.11,12.64,2.19-.19A2.74,2.74,0,0,0,227.28,35.47Z"/><path d="M236.65,30.41a4.83,4.83,0,0,1,5.16,4.43l.39,4.51a4.75,4.75,0,1,1-9.47.83l-.4-4.52A4.82,4.82,0,0,1,236.65,30.41Zm1,11.71a2.36,2.36,0,0,0,2.14-2.56l-.4-4.51a2.35,2.35,0,1,0-4.68.4l.4,4.52A2.34,2.34,0,0,0,237.67,42.12Z"/><path d="M247.58,42.49a1.25,1.25,0,0,1-1.12,1.36,1.28,1.28,0,0,1-1.37-1.14l-1.78-20.35A1.29,1.29,0,0,1,244.46,21a1.26,1.26,0,0,1,1.34,1.15Z"/><path d="M251.78,25.8a1.53,1.53,0,1,1-1.66-1.45A1.57,1.57,0,0,1,251.78,25.8ZM253,41.93a1.29,1.29,0,1,1-2.57.23l-1-11.48a1.29,1.29,0,1,1,2.57-.23Z"/><path d="M264,38.61a4.53,4.53,0,0,1-3.95,4,4.69,4.69,0,0,1-4.84-4.45l-.4-4.54a4.58,4.58,0,0,1,4-5.23,4.52,4.52,0,0,1,4.59,3.24,1.05,1.05,0,0,1-.88,1.34,1.38,1.38,0,0,1-1.52-.83,2.08,2.08,0,0,0-2-1.3,2.24,2.24,0,0,0-1.81,2.57l.4,4.54a2.2,2.2,0,0,0,2.22,2.18,2,2,0,0,0,1.65-1.35c.45-1.3,1.08-1.54,1.61-1.46A1.1,1.1,0,0,1,264,38.61Z"/><path d="M271.25,45.54a1.18,1.18,0,0,1-1.39.93,1.21,1.21,0,0,1-.93-1.45l.79-3.8-4.29-12a1.22,1.22,0,0,1,.72-1.54,1.16,1.16,0,0,1,1.5.71l3,8.41,1.85-8.87a1.23,1.23,0,0,1,1.42-.93,1.22,1.22,0,0,1,.92,1.45Z"/><path d="M145,19.81a.8.8,0,0,1-.72.88l-2.72.23a.8.8,0,0,1-.14-1.59l2.72-.24A.8.8,0,0,1,145,19.81Z"/><path d="M152.37,10.15a.66.66,0,0,1,.5.82l-.48,1.81,1,11.39a.7.7,0,0,1-.63.76.69.69,0,0,1-.72-.64l-.67-7.57-.15.61a.62.62,0,0,1-.84.4.84.84,0,0,1-.47-1l1.59-6.05A.76.76,0,0,1,152.37,10.15Zm7-.31a1,1,0,0,1,1,.89L161.43,23a1,1,0,0,1-.85,1.05l-5.35.47a1,1,0,0,1-1-.89l-1.08-12.31a1,1,0,0,1,.85-1ZM160,22.78l-1-11.55-4.46.39,1,11.55Zm-4.25-7.51a.62.62,0,0,1-.67-.59.61.61,0,0,1,.56-.68l.74-.06-.13-1.48a.64.64,0,1,1,1.28-.11l.13,1.47.74-.06a.61.61,0,0,1,.68.57.63.63,0,0,1-.57.7l-.74.07.15,1.65.26,0a.89.89,0,0,1,.94.81l.31,3.66a.86.86,0,0,1-.78.95l-1.81.16a.87.87,0,0,1-.93-.8l-.32-3.66a.86.86,0,0,1,.78-1l.26,0-.14-1.65Zm2.44,5.79-.28-3.19-1.09.09.28,3.2Z"/><path d="M175.27,22.82a.72.72,0,0,1-1,.05l-4.29-4.21-3.52,4.9a.73.73,0,0,1-1,.16.77.77,0,0,1-.16-1l3.83-5.34-.67-7.65a.72.72,0,1,1,1.44-.12l.66,7.55,4.74,4.61A.82.82,0,0,1,175.27,22.82Z"/><path d="M179.47,8a.72.72,0,0,1,.77.66l1.14,13.08a.69.69,0,0,1-.64.77.71.71,0,0,1-.76-.65l-.75-8.56-.09.26a.65.65,0,0,1-.85.35A.67.67,0,0,1,178,13l.76-1.85a.52.52,0,0,1,.3-.33l-.18-2.07A.73.73,0,0,1,179.47,8ZM181,9.52a.6.6,0,0,1,.65.54l.23,2.56a.61.61,0,0,1-.55.65.59.59,0,0,1-.63-.54l-.23-2.57A.61.61,0,0,1,181,9.52Zm7.33,2.7a.68.68,0,0,1,.12,1.36l-5.76.51a.68.68,0,0,1-.72-.62.67.67,0,0,1,.6-.74l2.18-.19-.06-.76-1.78.16a.62.62,0,0,1-.67-.56.63.63,0,0,1,.56-.68l1.78-.16-.06-.71-2,.17a.67.67,0,0,1-.73-.62.68.68,0,0,1,.61-.74l2-.18,0-.19a.7.7,0,1,1,1.4-.13l0,.2,2-.18a.67.67,0,0,1,.72.63.67.67,0,0,1-.6.73l-2,.18.06.72,1.77-.15a.62.62,0,0,1,.66.57.6.6,0,0,1-.55.66l-1.77.16.06.75Zm-.8,1.74a.94.94,0,0,1,1,.86l.54,6.21a.72.72,0,0,1-.64.78.7.7,0,0,1-.74-.66l-.13-1.49-3,.26.14,1.51a.69.69,0,1,1-1.37.12l-.55-6.22a1,1,0,0,1,.87-1Zm-.24,2.26-.08-.92-3,.27.08.91Zm.19,2.17-.08-.9-3,.26.07.9Z"/><path d="M196.77,10.67h0L196.22,13,197,13a.61.61,0,0,1,.66.55.64.64,0,0,1-.56.69l-1.4.12v0l.13,1.41,1-.09a.66.66,0,0,1,.12,1.31l-1,.09.29,3.32a.7.7,0,1,1-1.4.12l-.29-3.32-1.06.1a.66.66,0,0,1-.11-1.31l1.05-.09-.12-1.42v0l-1.44.13a.62.62,0,0,1-.66-.58.6.6,0,0,1,.55-.66l2.12-.19.52-2.36-1.47.13.36.89a.82.82,0,0,1-.29,1,.57.57,0,0,1-.82-.25L192.53,11a.6.6,0,0,1-.65-.55.61.61,0,0,1,.54-.68l1.42-.13-.07-.79-1.1.1a.6.6,0,0,1-.64-.56.59.59,0,0,1,.53-.64l1.11-.1,0-.21a.71.71,0,0,1,.65-.8.73.73,0,0,1,.79.67l0,.21,1.09-.09a.6.6,0,0,1,.63.54.61.61,0,0,1-.53.66l-1.09.1.07.79,1.39-.13a.65.65,0,0,1,.67.58A.62.62,0,0,1,196.77,10.67ZM204,19.33a.78.78,0,0,1-.25,1,.63.63,0,0,1-.91-.25l-1.41-2.75-.65,3a.55.55,0,0,1-.73.39.93.93,0,0,1-.41-.42.64.64,0,0,1-.58.56.67.67,0,0,1-.71-.62L197.25,7.61a1,1,0,0,1,.86-1.05l3.94-.34a.69.69,0,0,1,.73.85l-.51,2.34a1.3,1.3,0,0,1-1.15,1l-1.05.09A.64.64,0,1,1,200,9.24l.95-.09.34-1.58-2.67.23.31,3.61,3.29-.29a.69.69,0,0,1,.72.86l-.79,3.63Zm-4.39.44.89-4-.94-1.85a.65.65,0,0,1,.24-.84.59.59,0,0,1,.79.26l.46.9.37-1.68-2.42.21Z"/><path d="M217.52,17.59a.82.82,0,0,1,.17,1.08.65.65,0,0,1-1,.14L214.5,17l.16,1.74a.76.76,0,0,1-.67.8.75.75,0,0,1-.79-.68l-.15-1.68-1.85,2.13a.61.61,0,0,1-.95,0,.81.81,0,0,1,0-1.08l2.64-3-.13-1.51-2.44.21a.7.7,0,0,1-.13-1.4l2.44-.21-.09-1.08h0l-1.58.14a1,1,0,0,1-1-.89l-.31-3.57L208.4,8.32l.95,10.92a.73.73,0,0,1-.65.8.74.74,0,0,1-.78-.67l-.84-9.56,0,0a.56.56,0,0,1-.92-.08,1,1,0,0,1,.09-1.22l2.63-3a.7.7,0,0,1,1,0,.76.76,0,0,1,.17.23.77.77,0,0,1,.39-.14l4.67-.41a1,1,0,0,1,1,.89l.34,3.86a1,1,0,0,1-.86,1.05L214,11.1a0,0,0,0,1,0,0l.09,1.07L216.5,12a.7.7,0,0,1,.13,1.4l-2.43.21.13,1.42ZM211,6.86l.28,3.14,3.76-.33-.28-3.14Z"/><path d="M223.6,7.6l-3.11.27a.66.66,0,0,1-.11-1.32l3.1-.28a.66.66,0,0,1,.69.61A.65.65,0,0,1,223.6,7.6Zm-2.95-1.75a.58.58,0,0,1-.1-1.16L223,4.47a.59.59,0,0,1,.1,1.17Zm2.67,2.44a.59.59,0,0,1,.11,1.17L221,9.67a.58.58,0,0,1-.11-1.16Zm.17,1.92a.58.58,0,0,1,.1,1.15l-2.44.21a.57.57,0,0,1-.1-1.14Zm.12,1.93a.87.87,0,0,1,.93.8l.42,4.7a.89.89,0,0,1-.79,1l-2.23.19A.87.87,0,0,1,221,18l-.42-4.7a.88.88,0,0,1,.79-1Zm0,5.25-.35-4-1.32.12.35,4Zm.9-11.89a.59.59,0,0,1-.1-1.17l1.17-.1a.63.63,0,0,1,.56-.5.6.6,0,0,1,.62.39L227.9,4a.61.61,0,0,1,.54-.5.62.62,0,0,1,.64.39l1.07-.09a.59.59,0,0,1,.63.54.57.57,0,0,1-.53.62l-1.07.1a.63.63,0,0,1-.55.5.6.6,0,0,1-.62-.4l-1.13.1a.62.62,0,0,1-.54.5.62.62,0,0,1-.63-.4ZM225,8.56a.68.68,0,0,1-.77.09.51.51,0,0,1-.13-.73l1.34-1.64a1,1,0,0,1,1-.34.39.39,0,0,1,.19.64l-.11.15.9-.08.48-.58a.75.75,0,0,1,.86-.26.39.39,0,0,1,.18.6l-.1.12,1.46-.13a.5.5,0,0,1,.09,1l-1.76.15,0,.49,1.69-.15a.39.39,0,0,1,.42.36.4.4,0,0,1-.35.43l-1.69.15,0,.48,1.69-.15a.4.4,0,0,1,.42.36.38.38,0,0,1-.35.43l-1.69.15.06.7,1.76-.16a.51.51,0,0,1,.52.47.5.5,0,0,1-.43.54l-4.57.4a.87.87,0,0,1-.93-.8Zm6.84,8.37a.65.65,0,0,1,0,.94.78.78,0,0,1-1,0l-2.32-2-1.94,2.41a.75.75,0,0,1-1,.14.68.68,0,0,1-.13-1l1.69-2.09.17-.21-.66-.57a.56.56,0,0,1,0-.84.73.73,0,0,1,1,0l.83.7a.49.49,0,0,1,.07-.11l.79-1-3.34.29a.66.66,0,0,1-.71-.61.64.64,0,0,1,.6-.7l5-.43a.62.62,0,0,1,.53,1L229.66,15Zm-5.61-8.69,1.24-.11,0-.48-1.24.1ZM227.6,9.4l0-.48L226.31,9l0,.48Zm.13,1.49-.06-.7-1.25.11.06.7Z"/><path d="M244,4.06a.69.69,0,0,1,.74.64.68.68,0,0,1-.62.76l-3.49.31L239.83,8l3.25-.29a1,1,0,0,1,1,.87l.64,7.27a1,1,0,0,1-.87,1l-1.65.15a.72.72,0,0,1-.76-.64.7.7,0,0,1,.62-.76l1.13-.1-.56-6.33-3.37.29-2.89,7.79a.68.68,0,0,1-.92.41.77.77,0,0,1-.42-1l4-10.8-4.15.37a.69.69,0,0,1-.74-.64.7.7,0,0,1,.62-.76l3.88-.34-.09-1.06a.76.76,0,0,1,.67-.82.75.75,0,0,1,.8.69l.1,1.06Z"/><path d="M249.22,4.69a.77.77,0,0,1-1.07-.23.79.79,0,0,1,.23-1.07l1.67-1.07a1.75,1.75,0,0,1,1.67-.14l1.62.67a.76.76,0,0,1-.59,1.39L251,3.52Zm4.21,7.87a.75.75,0,0,1,.8,1.27l-3.92,2.51a.68.68,0,0,1-1-.27.84.84,0,0,1,.29-1.08l1.5-1L250.67,9l-1.42.12a.67.67,0,0,1-.12-1.33l1.42-.12-.11-1.35-.79.07A.66.66,0,0,1,249.53,5l2.88-.26a.67.67,0,0,1,.12,1.33l-.74.06.12,1.35,1.28-.11a.67.67,0,0,1,.11,1.33L252,8.84l.38,4.36Zm-2.69.67a.59.59,0,0,1-.52.65.6.6,0,0,1-.62-.55l-.28-3.26a.58.58,0,0,1,.51-.63.59.59,0,0,1,.63.53Zm2.77-3.94A.61.61,0,0,1,254,10l-.4,1.84a.64.64,0,1,1-1.25-.31l.38-1.75A.68.68,0,0,1,253.51,9.29Zm4.89-4a.72.72,0,0,1,.12,1.43l-1.42.13.71,8.07a.73.73,0,1,1-1.46.13L255.64,7l-1.42.12a.72.72,0,0,1-.12-1.43l1.42-.13-.3-3.44A.73.73,0,1,1,256.68,2L257,5.4Z"/><path d="M269.15,9a.79.79,0,0,1-.72.87l-2.72.24a.8.8,0,0,1-.86-.74.78.78,0,0,1,.72-.85l2.72-.24A.8.8,0,0,1,269.15,9Z"/></svg>