<svg id="活用シーン" data-name="活用シーン" xmlns="http://www.w3.org/2000/svg" viewBox="0 0 350 64"><defs><style>.cls-1{fill:#fff;}.cls-2{fill:#040000;}</style></defs><title>活用シーン</title><path class="cls-1" d="M159.23,52.55a7.55,7.55,0,0,1-7.31-5.15,3.46,3.46,0,0,1,.21-2.84,3.13,3.13,0,0,1,2.2-1.55,3.21,3.21,0,0,1,.57,0,3.94,3.94,0,0,1,3.41,2.33.81.81,0,0,0,.87.53h.21a1.23,1.23,0,0,0,.88-.36,1.88,1.88,0,0,0,.22-1.25c-.09-1-1.22-1.72-3.05-2.81-2.46-1.45-5.83-3.45-6.26-7.92a7,7,0,0,1,6.54-7.81l.7,0a7,7,0,0,1,6.13,3.44,3.47,3.47,0,0,1,.31,2.61,3.13,3.13,0,0,1-1.58,1.87,3.42,3.42,0,0,1-1.56.38,4.1,4.1,0,0,1-3-1.55s0,0,0,0a1.33,1.33,0,0,0-.26,0h-.11a.5.5,0,0,0-.38.14.55.55,0,0,0-.08.35c.09,1,1.22,1.7,3.06,2.8,2.47,1.48,5.86,3.51,6.25,8a8.21,8.21,0,0,1-1.82,6.28A7.88,7.88,0,0,1,160,52.51,6.28,6.28,0,0,1,159.23,52.55Z"/><path class="cls-1" d="M178.88,50.5a7.71,7.71,0,0,1-7.51-7.31l-.94-10.67a7.75,7.75,0,0,1,6.77-8.59c.2,0,.41,0,.61,0a7.44,7.44,0,0,1,6.68,4.33A3.19,3.19,0,0,1,183,32.64l-.1,0a3.28,3.28,0,0,1-1.23.24,3.76,3.76,0,0,1-3.21-2,.92.92,0,0,0-.68-.42.84.84,0,0,0-.59.35A1.6,1.6,0,0,0,177,32l.93,10.67c.07.76.59,1.3,1,1.3a1,1,0,0,0,.72-.66A3.62,3.62,0,0,1,183,40.64a3.3,3.3,0,0,1,.82.11,3.14,3.14,0,0,1,2.27,3.87l0,.1A7.76,7.76,0,0,1,184.3,48a7.19,7.19,0,0,1-4.78,2.46C179.31,50.49,179.09,50.5,178.88,50.5Z"/><path class="cls-1" d="M194.52,49a4,4,0,0,1-4-3.64L189,27a4,4,0,0,1,.91-2.91,3.94,3.94,0,0,1,2.7-1.4l6.49-.57h.29a3.23,3.23,0,0,1,3.24,3,3.28,3.28,0,0,1-3,3.56l-3.88.34.5,5.79,3.65-.32h.29a3.29,3.29,0,0,1,.29,6.56l-3.65.32.07.89,3.89-.34h.28a3.23,3.23,0,0,1,3.25,3,3.28,3.28,0,0,1-3,3.56l-6.49.57Z"/><path class="cls-1" d="M211.78,47.52a3.26,3.26,0,0,1-3.25-3l-1.69-19.33a3.68,3.68,0,0,1,3.31-4h.38a4.24,4.24,0,0,1,3.95,2.65l.82,2L215.14,24a3.22,3.22,0,0,1,3-3.53h.28a3.23,3.23,0,0,1,3.22,3l1.7,19.43A3.63,3.63,0,0,1,220,46.81l-.37,0a4.2,4.2,0,0,1-3.87-2.62l-.94-2.29.18,2a3.29,3.29,0,0,1-3,3.57Z"/><path class="cls-1" d="M231.67,45.78a4,4,0,0,1-3.95-3.64l-1.61-18.35a4,4,0,0,1,.91-2.91,3.94,3.94,0,0,1,2.7-1.4l6.49-.57h.29a3.28,3.28,0,0,1,.28,6.54l-3.89.34.51,5.79,3.65-.32.28,0a3.31,3.31,0,0,1,2.53,5.4,3.22,3.22,0,0,1-2.24,1.17l-3.65.32.08.89,3.89-.34h.29a3.23,3.23,0,0,1,3.24,3,3.27,3.27,0,0,1-.73,2.39,3.2,3.2,0,0,1-2.23,1.17l-6.49.57Z"/><path class="cls-1" d="M248.34,45.13a3.6,3.6,0,0,1-.32-7.19l.31,0a3.61,3.61,0,0,1,.32,7.2Z"/><path d="M153.82,44.77a1.26,1.26,0,0,1,.87-1.79,1.91,1.91,0,0,1,1.85,1.25,2.83,2.83,0,0,0,3,1.57c2-.17,3.1-1.59,2.91-3.78-.4-4.54-8.69-4.35-9.31-10.74a5.23,5.23,0,0,1,9.65-3.2,1.2,1.2,0,0,1-.47,1.7c-.87.44-1.63-.13-2.19-.74a2.47,2.47,0,0,0-2-.67A2.39,2.39,0,0,0,155.86,31c.39,4.45,8.76,4.44,9.31,10.75.36,4.09-2.15,6.45-5.36,6.73A5.59,5.59,0,0,1,153.82,44.77Z"/><path d="M182.69,27.1a1.18,1.18,0,0,1-.5,1.73c-.57.23-1.31.11-2-1a2.89,2.89,0,0,0-2.56-1.28,3.17,3.17,0,0,0-2.63,3.6l.93,10.67a3.2,3.2,0,0,0,3.22,3.12,2.92,2.92,0,0,0,2.34-1.86c.42-1,1-1.57,1.83-1.36a1.14,1.14,0,0,1,.81,1.52,5.82,5.82,0,0,1-1.29,2.46,5.22,5.22,0,0,1-3.46,1.81,5.72,5.72,0,0,1-6-5.47l-.94-10.67a5.75,5.75,0,0,1,5-6.42A5.45,5.45,0,0,1,182.69,27.1Z"/><path d="M201,41.91a1.28,1.28,0,0,1,.23,2.54l-6.5.57a2,2,0,0,1-2.13-1.8L191,24.87a2,2,0,0,1,1.78-2.15l6.5-.56a1.25,1.25,0,0,1,1.36,1.14,1.27,1.27,0,0,1-1.14,1.4l-5.88.51.85,9.77,5.65-.49a1.29,1.29,0,0,1,1.37,1.17,1.28,1.28,0,0,1-1.15,1.4l-5.64.49.42,4.87Z"/><path d="M218.28,20.49a1.24,1.24,0,0,1,1.34,1.15l1.69,19.42a1.62,1.62,0,0,1-1.46,1.76,2.18,2.18,0,0,1-2.21-1.37l-5.93-14.54L213,42.12a1.26,1.26,0,1,1-2.52.22L208.83,23a1.66,1.66,0,0,1,1.49-1.81,2.25,2.25,0,0,1,2.31,1.39l5.82,14.34-1.32-15.06A1.25,1.25,0,0,1,218.28,20.49Z"/><path d="M238.11,38.66a1.27,1.27,0,0,1,.22,2.54l-6.49.57a2,2,0,0,1-2.13-1.8L228.1,21.62a2,2,0,0,1,1.79-2.15l6.49-.56a1.25,1.25,0,0,1,1.37,1.14,1.27,1.27,0,0,1-1.14,1.4l-5.88.51.85,9.77,5.65-.49a1.29,1.29,0,0,1,1.37,1.17,1.28,1.28,0,0,1-1.15,1.4l-5.64.49.42,4.87Z"/><path d="M248.19,37.93a1.61,1.61,0,1,1-1.41,1.75A1.59,1.59,0,0,1,248.19,37.93Z"/><path class="cls-1" d="M127.07,62.75A14.57,14.57,0,0,1,112.52,48.2v-13a4.11,4.11,0,0,1,4.21-4.09h.42v-6a5.3,5.3,0,0,1,5.29-5.29h.28a5.29,5.29,0,0,1,8.71,0h.28A5.3,5.3,0,0,1,137,25.1v.31a5.3,5.3,0,0,1,4.63,5.25V48.2A14.57,14.57,0,0,1,127.07,62.75Z"/><path class="cls-1" d="M113.53,23.83a2.93,2.93,0,0,1-1.09-.21,6.63,6.63,0,0,1-1.78-1.23C100.93,14.2,101,12.69,101,11.6c.09-2.21,4-5.55,6-5.65h.14a3.39,3.39,0,0,1,2.09.8c3.12,2.45,8.28,10.71,8.56,11.32s.76,2.22-1,4A5,5,0,0,1,113.53,23.83Z"/><path class="cls-1" d="M118.11,20.15a3.17,3.17,0,0,1-2.1-.72l-.2-.18-.08-.09-.19-.23c-.07-.1-6-11.27-4.81-14.65.71-2,3.61-2.77,4.48-3a5.61,5.61,0,0,1,1.29-.16,3.4,3.4,0,0,1,2.22.76l.24.23c2.28,2.51,4.05,13.46,3.87,14.72a3.73,3.73,0,0,1-2.73,2.91A6,6,0,0,1,118.11,20.15Z"/><path class="cls-1" d="M110.9,28.57c-.09,0-10.36-1.27-12.6-3.13a3,3,0,0,1-.83-1.09c-.72-1.63.19-3.86.3-4.1a4.08,4.08,0,0,1,2.31-2.41,3.66,3.66,0,0,1,1.26-.21c3.28,0,11.68,4.27,11.74,4.32l.22.16a3.39,3.39,0,0,1,.81,3.9,3.5,3.5,0,0,1-3.2,2.56Z"/><path class="cls-2" d="M136.34,25.23a2.82,2.82,0,0,0-1.76.6V22.54a2.88,2.88,0,0,0-2.87-2.87,2.82,2.82,0,0,0-1.76.6h0a2.88,2.88,0,1,0-5.75,0h0a2.82,2.82,0,0,0-1.76-.6,2.88,2.88,0,0,0-2.87,2.87v9.9a3.45,3.45,0,0,0-2.8-1.46,1.7,1.7,0,0,0-1.83,1.67v13a12.14,12.14,0,0,0,24.27,0V28.1A2.87,2.87,0,0,0,136.34,25.23Zm1.76,20.41a11,11,0,0,1-22,0V40.79h0a.88.88,0,0,0,0-.16v-8c0-.48.46-.56.74-.56a2.15,2.15,0,0,1,1.59.66A4.74,4.74,0,0,1,119.57,36v6a.55.55,0,0,0,.56.55.54.54,0,0,0,.55-.55V36c0-.12,0-.23,0-.35a.31.31,0,0,0,0-.1v-13a1.76,1.76,0,0,1,3.52,0v14a.56.56,0,0,0,.56.55.55.55,0,0,0,.55-.55V20.26a1.76,1.76,0,0,1,3.52,0V36.52a.56.56,0,0,0,1.12,0v-14a1.76,1.76,0,1,1,3.52,0v14a.55.55,0,0,0,.55.55.56.56,0,0,0,.56-.55V28.1a1.76,1.76,0,1,1,3.52,0Z"/><path class="cls-2" d="M112.22,18c-1-.87-8.82-7.5-8.77-8.84,0-.8,2.76-3.28,3.71-3.32a.93.93,0,0,1,.61.29c2.64,2.06,7.61,9.86,7.87,10.43.16.35,0,.8-.53,1.34,0,.05-1.15,1.19-1.77.94A5,5,0,0,1,112.22,18Z"/><path class="cls-2" d="M117.57,15l-.08-.08c-.06-.09-5.17-10.5-4.49-12.39.23-.61,1.9-1.25,2.76-1.45a1.66,1.66,0,0,1,1.41.09c1.67,1.84,3.35,12.19,3.26,12.75s-.67.81-1.17,1C119.05,15,118,15.37,117.57,15Z"/><path class="cls-2" d="M99.85,21a.48.48,0,0,1-.17-.21c-.25-.58.24-2.9,1.23-3.26,1.73-.62,10.74,3.79,10.81,3.84h0c.37.32.22.9.1,1.23s-.4,1-.93,1S101.2,22.14,99.85,21Z"/><path class="cls-2" d="M157.07,16.59a.8.8,0,0,1-.72.88l-2.72.23a.8.8,0,0,1-.14-1.59l2.72-.24A.8.8,0,0,1,157.07,16.59Z"/><path class="cls-2" d="M162.64,9.25a.71.71,0,0,1-.77-.65.71.71,0,0,1,.64-.78l1.67-.15a.7.7,0,0,1,.76.66.72.72,0,0,1-.63.78Zm.31,3.63a.72.72,0,0,1-.76-.66.71.71,0,0,1,.64-.78l1.6-.14a.72.72,0,0,1,.12,1.44Zm2.51,2a.76.76,0,0,1,.46.94l-1.82,5.58a.67.67,0,0,1-.9.44.78.78,0,0,1-.45-1l1.8-5.51A.72.72,0,0,1,165.46,14.84Zm7.14-2.27-2.42.22.18,2,1.49-.13a1,1,0,0,1,1,.87l.38,4.36a.94.94,0,0,1-.84,1l-4.45.39a1,1,0,0,1-1-.87l-.38-4.36a1,1,0,0,1,.85-1l1.51-.13-.18-2-2.44.22a.7.7,0,0,1-.74-.64.67.67,0,0,1,.62-.76l2.44-.22-.19-2.11-1.66.85a.66.66,0,0,1-.91-.36.8.8,0,0,1,.37-1l4.47-2.28a.77.77,0,0,1,1,.33.72.72,0,0,1-.28,1l-1.6.81.24,2.69,2.42-.22a.7.7,0,0,1,.12,1.4Zm-1.14,3.48-3.44.31.31,3.58,3.44-.3Z"/><path class="cls-2" d="M185,5.4a.93.93,0,0,1,1,.87l1.11,12.62a.77.77,0,0,1-.69.84.77.77,0,0,1-.81-.71l-.45-5.16-2.65.23.4,4.61a.68.68,0,0,1-.62.76.69.69,0,0,1-.74-.64l-.41-4.61-2.6.23.21,2.4a4.8,4.8,0,0,1-.2,1.88l-.45,1.38a.75.75,0,0,1-.93.49.71.71,0,0,1-.47-.9l.59-1.82a1,1,0,0,0,0-.31l-.91-10.45a1,1,0,0,1,.86-1Zm-4.46,1.8-2.6.22.2,2.23,2.59-.23Zm-2.1,5.93,2.6-.23-.19-2.15-2.6.22Zm6.31-4.06-.19-2.23-2.65.24.19,2.22Zm-2.34,3.71,2.65-.23-.19-2.16-2.65.24Z"/><path class="cls-2" d="M195,6a.92.92,0,0,1,.13.77l-.31,1a.49.49,0,0,1-.6.31.48.48,0,0,1-.3-.61l.08-.3-2.33.21a.73.73,0,0,1-.8-.67.7.7,0,0,1,.63-.8l2.79-.24A.77.77,0,0,1,195,6Zm-2.68,4,2.12-.18a.74.74,0,0,1,.79.69.75.75,0,0,1-.66.8l-2.35.2a.82.82,0,0,1-.8-.45,1.47,1.47,0,0,1-.08-1.05l.21-.7a.48.48,0,0,1,.59-.32.51.51,0,0,1,.32.6Zm7.44-4.12a.83.83,0,0,1,.48,1l-3.49,9.91a2.43,2.43,0,0,1-2.08,1.64l-1.3.12a1,1,0,0,1-1-1.25,1,1,0,0,1,1.55-.64l1,.6,3.84-10.93A.8.8,0,0,1,199.8,5.82Z"/><path class="cls-2" d="M214.82,10.38a.75.75,0,0,1-.67.82l-8.43.74a.76.76,0,0,1-.8-.69.75.75,0,0,1,.67-.82L214,9.69A.75.75,0,0,1,214.82,10.38Z"/><path class="cls-2" d="M219.88,4.3l2.84-.25a.84.84,0,0,1,.79.38,1.1,1.1,0,0,1,.14.93l-.33,1.06a.51.51,0,0,1-.63.33.53.53,0,0,1-.34-.63l.16-.44L220,5.9a.8.8,0,0,1-.14-1.6Zm8-.93a.82.82,0,0,1,.49,1l-3.48,9.9A2.48,2.48,0,0,1,222.75,16l-1.14.1a1,1,0,0,1-1.05-1.27,1,1,0,0,1,1.54-.66l.91.54,3.8-10.81A.78.78,0,0,1,227.83,3.37Z"/><path class="cls-2" d="M239.09,9.41a.8.8,0,0,1-.72.88l-2.72.24a.8.8,0,0,1-.14-1.6l2.72-.24A.8.8,0,0,1,239.09,9.41Z"/></svg>