<svg id="利用規約" data-name="利用規約" xmlns="http://www.w3.org/2000/svg" viewBox="0 0 350 70"><defs><style>.cls-1{fill:#fdfbff;}.cls-2{fill:#fff;}.cls-3{fill:#040000;}</style></defs><title>利用規約</title><path class="cls-1" d="M107.29,66.43A14.57,14.57,0,0,1,92.73,51.87v-13a4.11,4.11,0,0,1,4.21-4.09h.43v-6a5.29,5.29,0,0,1,5.28-5.29h.28a5.29,5.29,0,0,1,8.71,0h.28a5.3,5.3,0,0,1,5.29,5.29v.3a5.31,5.31,0,0,1,4.63,5.25V51.87A14.57,14.57,0,0,1,107.29,66.43Z"/><path class="cls-2" d="M93.75,27.5a3.15,3.15,0,0,1-1.1-.2,6.77,6.77,0,0,1-1.78-1.24c-9.73-8.18-9.67-9.69-9.63-10.79.09-2.2,4-5.54,6-5.64h.14a3.37,3.37,0,0,1,2.09.81C92.6,12.88,97.76,21.14,98,21.75s.76,2.22-1,4A5,5,0,0,1,93.75,27.5Z"/><path class="cls-2" d="M98.32,23.83a3.17,3.17,0,0,1-2.1-.72L96,22.93,96,22.84l-.2-.24c-.07-.09-6-11.26-4.81-14.64.71-2,3.61-2.78,4.48-3a5.61,5.61,0,0,1,1.29-.16,3.34,3.34,0,0,1,2.22.76l.24.22c2.29,2.52,4,13.47,3.87,14.73a3.73,3.73,0,0,1-2.73,2.91A6.32,6.32,0,0,1,98.32,23.83Z"/><path class="cls-2" d="M91.11,32.25c-.09,0-10.36-1.27-12.6-3.13A3,3,0,0,1,77.68,28c-.72-1.64.2-3.86.3-4.11a4.08,4.08,0,0,1,2.31-2.4,3.68,3.68,0,0,1,1.27-.21c3.27,0,11.67,4.27,11.73,4.31l.22.17a3.38,3.38,0,0,1,.81,3.89,3.5,3.5,0,0,1-3.2,2.57Z"/><path class="cls-3" d="M116.55,28.9a2.82,2.82,0,0,0-1.76.61V26.22a2.87,2.87,0,0,0-2.87-2.87,2.82,2.82,0,0,0-1.76.6v0a2.88,2.88,0,0,0-5.75,0v0a2.82,2.82,0,0,0-1.76-.6,2.87,2.87,0,0,0-2.87,2.87v9.9a3.94,3.94,0,0,0-.41-.49,3.27,3.27,0,0,0-2.39-1,1.7,1.7,0,0,0-1.83,1.67v13a12.14,12.14,0,1,0,24.27,0V31.77A2.88,2.88,0,0,0,116.55,28.9Zm1.76,20.41a11,11,0,0,1-22,0V44.46h0a1,1,0,0,0,0-.17v-8c0-.48.46-.56.74-.56a2.15,2.15,0,0,1,1.59.66,4.68,4.68,0,0,1,1.19,3.23v6a.56.56,0,0,0,1.12,0v-6c0-.11,0-.22,0-.34s0-.07,0-.1v-13a1.76,1.76,0,1,1,3.51,0v14a.56.56,0,0,0,1.12,0V23.93a1.76,1.76,0,1,1,3.52,0V40.2a.55.55,0,0,0,.55.55.56.56,0,0,0,.56-.55v-14a1.76,1.76,0,0,1,3.52,0v14a.55.55,0,0,0,.55.55.56.56,0,0,0,.56-.55V31.77a1.76,1.76,0,0,1,3.52,0Z"/><path class="cls-3" d="M92.43,21.65c-1-.87-8.82-7.5-8.77-8.84,0-.8,2.76-3.28,3.71-3.33a1,1,0,0,1,.61.3c2.64,2.06,7.61,9.86,7.87,10.43.16.35,0,.8-.53,1.34,0,0-1.15,1.19-1.77.94A5,5,0,0,1,92.43,21.65Z"/><path class="cls-3" d="M97.78,18.7l-.08-.09c-.06-.08-5.17-10.49-4.48-12.39C93.44,5.62,95.11,5,96,4.78a1.66,1.66,0,0,1,1.41.09c1.67,1.84,3.35,12.18,3.27,12.75s-.68.8-1.18,1C99.26,18.68,98.2,19.05,97.78,18.7Z"/><path class="cls-3" d="M80.06,24.7a.69.69,0,0,1-.17-.22c-.25-.57.24-2.89,1.23-3.25,1.73-.63,10.74,3.78,10.81,3.84h0c.37.31.22.9.11,1.23s-.41,1-.94,1S81.41,25.82,80.06,24.7Z"/><path class="cls-1" d="M136.11,55.78a3.3,3.3,0,0,1-3.28-3.07L131.4,36.45l-1.13.1H130a3.26,3.26,0,0,1-3.25-3,3.3,3.3,0,0,1,3-3.59l8.83-.77h.29a3.31,3.31,0,0,1,3.25,3,3.27,3.27,0,0,1-3,3.56l-1.14.1,1.43,16.27a3.37,3.37,0,0,1-.72,2.4,3.19,3.19,0,0,1-2.27,1.22Z"/><path class="cls-1" d="M147.77,54.71c-3.67,0-6.14-3.18-6.41-6.27L141,43.9a6.64,6.64,0,0,1,5.78-7.36l.57,0c3.81,0,6.14,3.24,6.41,6.28l.12,1.43a3.55,3.55,0,0,1-.57,2.29.64.64,0,0,1,.13.15,2.92,2.92,0,0,1,.65,2.39,6.44,6.44,0,0,1-5.72,5.64A5.24,5.24,0,0,1,147.77,54.71Z"/><path class="cls-1" d="M156,54.07a3.24,3.24,0,0,1-3.25-3l-.95-10.91a4,4,0,0,1,3.6-4.34l.93-.08.75,0A6.22,6.22,0,0,1,163.61,41a3,3,0,0,1-.61,2.38,3.28,3.28,0,0,1-2.31,1.26h-.22a3,3,0,0,1-1.81-.61l.57,6.49a3.24,3.24,0,0,1-2.94,3.53Z"/><path class="cls-1" d="M165.7,53.22a3.27,3.27,0,0,1-3.23-3l-.71-8.13a6.93,6.93,0,0,1,1.54-5,6.66,6.66,0,0,1,4.62-2.44l4.68-.41a5.63,5.63,0,0,1,.58,0,6.9,6.9,0,0,1,6.78,6.3l.71,8.13a3.26,3.26,0,0,1-2.94,3.53h-.29a3.23,3.23,0,0,1-2.91-1.8,3.19,3.19,0,0,1-2.7,2h-.28a3.21,3.21,0,0,1-2.73-1.54,3.52,3.52,0,0,1-.62,1.16A3.26,3.26,0,0,1,166,53.21Z"/><path class="cls-1" d="M185.41,51.44a6.36,6.36,0,0,1-6.33-4.74,3.22,3.22,0,0,1,.24-2.67,3,3,0,0,1,1.07-1.09,5.61,5.61,0,0,1-1.57-3.57,5.69,5.69,0,0,1,5.44-6.23,7.09,7.09,0,0,1,.79,0,5.92,5.92,0,0,1,5.44,3.22,3.15,3.15,0,0,1,.25,2.52,3,3,0,0,1-1.18,1.56A5.72,5.72,0,0,1,192,44.82a6.23,6.23,0,0,1-1.11,4.09,6.15,6.15,0,0,1-4.66,2.49A8.38,8.38,0,0,1,185.41,51.44Z"/><path class="cls-1" d="M205.31,49.71a6.85,6.85,0,0,1-6.74-6.24L198.18,39a6.82,6.82,0,0,1,6.13-7.43l.58,0a6.86,6.86,0,0,1,6.75,6.27l.39,4.51a6.79,6.79,0,0,1-6.13,7.39A5.83,5.83,0,0,1,205.31,49.71ZM204.87,38a.39.39,0,0,0-.31.43l.4,4.51a.35.35,0,1,0,.69-.06l-.39-4.51a.39.39,0,0,0-.36-.37Z"/><path class="cls-1" d="M216.26,48.79a3.26,3.26,0,0,1-3.25-3l-.7-8a3.26,3.26,0,0,1-1.84-5.27,3.13,3.13,0,0,1,1.3-.92l-.28-3.13a6.51,6.51,0,0,1,.9-4.26,4.89,4.89,0,0,1,3.7-2.18l.46,0a5.18,5.18,0,0,1,4.86,3.67,3.13,3.13,0,0,1-1.56,3.93l-.13.07-.14,0a3.28,3.28,0,0,1-1.06.18,2.34,2.34,0,0,1-.38,0l.09,1,.58-.05h.27a3.23,3.23,0,0,1,.29,6.44l-.58,0,.69,7.93a3.27,3.27,0,0,1-2.93,3.56Z"/><path class="cls-1" d="M236.78,47a7.69,7.69,0,0,1-7.5-7.26l-1.35-15.42a3.25,3.25,0,0,1,2.94-3.53h.28a3.26,3.26,0,0,1,3.22,3l1.35,15.42c.07.77.6,1.31,1,1.31a1.27,1.27,0,0,0,.89-1.48L236.3,23.55a3.21,3.21,0,0,1,.74-2.38A3.26,3.26,0,0,1,239.26,20h.28a3.28,3.28,0,0,1,3.23,3l1.35,15.42a7.62,7.62,0,0,1-6.75,8.53A5.68,5.68,0,0,1,236.78,47Z"/><path class="cls-1" d="M249.14,45.87a6.39,6.39,0,0,1-6.33-4.75,3.26,3.26,0,0,1,.25-2.67,3,3,0,0,1,1.07-1.09,5.56,5.56,0,0,1-1.57-3.57A5.7,5.7,0,0,1,248,27.56c.27,0,.53,0,.79,0a5.94,5.94,0,0,1,5.44,3.22,3.17,3.17,0,0,1,.25,2.53,3.1,3.1,0,0,1-1.18,1.56,5.67,5.67,0,0,1,2.47,4.42A6,6,0,0,1,250,45.82,8.46,8.46,0,0,1,249.14,45.87Z"/><path class="cls-1" d="M260.3,44.87c-3.67,0-6.15-3.19-6.42-6.27l-.39-4.54a6.63,6.63,0,0,1,5.78-7.37l.57,0c3.81,0,6.14,3.23,6.41,6.27l.12,1.43a3.59,3.59,0,0,1-.57,2.29l.13.15a2.94,2.94,0,0,1,.65,2.4,6.43,6.43,0,0,1-5.72,5.63Z"/><path class="cls-1" d="M267.93,44.94a3.61,3.61,0,0,1-.32-7.2l.31,0A3.59,3.59,0,0,1,271.49,41a3.53,3.53,0,0,1-.81,2.61,3.57,3.57,0,0,1-2.45,1.28Z"/><path d="M140.07,30.39a1.26,1.26,0,0,1-1.14,1.39l-3.13.27,1.59,18.27a1.29,1.29,0,1,1-2.57.22l-1.6-18.26-3.13.27a1.26,1.26,0,0,1-1.37-1.17A1.3,1.3,0,0,1,129.87,30l8.83-.77A1.29,1.29,0,0,1,140.07,30.39Z"/><path d="M152.08,46.71a4.45,4.45,0,0,1-3.92,4c-2.78.24-4.62-2.19-4.81-4.43l-.4-4.54a4.65,4.65,0,0,1,4-5.2c2.86-.25,4.62,2.25,4.8,4.43l.13,1.44a1.57,1.57,0,0,1-1.41,1.71l-4.86.43.14,1.52A2.24,2.24,0,0,0,148,48.28a1.9,1.9,0,0,0,1.69-1.48A1.56,1.56,0,0,1,151,45.55,1,1,0,0,1,152.08,46.71Zm-6.69-4.41,4-.36-.06-.77a2.06,2.06,0,1,0-4,.35Z"/><path d="M156.52,35.75c2.31-.2,4.66.8,5.11,3.56a1.19,1.19,0,0,1-1.12,1.33,1.37,1.37,0,0,1-1.25-1.15c-.23-1-1.09-1.38-2.53-1.26l-.41,0,.92,10.43a1.25,1.25,0,1,1-2.49.22L153.8,38a2,2,0,0,1,1.78-2.18Z"/><path d="M172.77,34.24A4.83,4.83,0,0,1,178,38.69l.72,8.13a1.25,1.25,0,1,1-2.49.22l-.71-8.13A2.35,2.35,0,0,0,173,36.75l-1.14.1.9,10.25a1.2,1.2,0,1,1-2.4.21l-.9-10.25-1.14.1a2.34,2.34,0,0,0-2.07,2.56l.71,8.13a1.25,1.25,0,1,1-2.49.22l-.71-8.13a4.84,4.84,0,0,1,4.34-5.29Z"/><path d="M190,43a4,4,0,0,1-3.94,4.41A4.47,4.47,0,0,1,181,44.06a1.12,1.12,0,0,1,.72-1.51c.64-.11,1.18.26,1.54,1a2.41,2.41,0,0,0,2.66,1.49,1.75,1.75,0,0,0,1.81-1.85c-.26-3-6.43-1.18-6.89-6a3.7,3.7,0,0,1,3.63-4,4.05,4.05,0,0,1,4.31,2.18,1.07,1.07,0,0,1-.45,1.52,1.3,1.3,0,0,1-1.71-.61,1.9,1.9,0,0,0-1.93-.85A1.53,1.53,0,0,0,183.21,37C183.44,39.57,189.62,38.16,190,43Z"/><path d="M204.49,31.53A4.82,4.82,0,0,1,209.65,36l.39,4.51a4.75,4.75,0,1,1-9.47.83l-.4-4.51A4.82,4.82,0,0,1,204.49,31.53Zm1,11.71a2.35,2.35,0,0,0,2.13-2.57l-.39-4.51a2.35,2.35,0,1,0-4.68.41l.39,4.51A2.36,2.36,0,0,0,205.51,43.24Z"/><path d="M219,30.8a1.23,1.23,0,0,1,.22,2.45l-2.58.22.87,9.93a1.26,1.26,0,0,1-1.11,1.39A1.28,1.28,0,0,1,215,43.61l-.86-9.92-1.11.1a1.23,1.23,0,0,1-.22-2.45l1.11-.1-.43-5a4.58,4.58,0,0,1,.56-3A2.87,2.87,0,0,1,216.27,22a3.21,3.21,0,0,1,3.23,2.25,1.18,1.18,0,0,1-.54,1.55,1.28,1.28,0,0,1-1.56-.61c-.31-.55-.64-.88-1.07-.72s-.43.82-.37,1.41l.45,5.17Z"/><path d="M242.12,36.57a5.46,5.46,0,1,1-10.85,1L229.93,22.1a1.23,1.23,0,1,1,2.45-.21l1.35,15.42a3,3,0,1,0,5.91-.52l-1.35-15.42a1.25,1.25,0,1,1,2.49-.22Z"/><path d="M253.78,37.42a4,4,0,0,1-3.94,4.41,4.46,4.46,0,0,1-5.13-3.34,1.11,1.11,0,0,1,.72-1.51c.64-.12,1.17.26,1.53,1a2.43,2.43,0,0,0,2.67,1.48,1.74,1.74,0,0,0,1.81-1.84c-.26-3-6.44-1.19-6.89-6a3.7,3.7,0,0,1,3.62-4.05,4.06,4.06,0,0,1,4.32,2.18,1.07,1.07,0,0,1-.46,1.52,1.29,1.29,0,0,1-1.7-.6,1.92,1.92,0,0,0-1.93-.86A1.54,1.54,0,0,0,247,31.42C247.18,34,253.36,32.58,253.78,37.42Z"/><path d="M264.61,36.87a4.43,4.43,0,0,1-3.92,4c-2.78.24-4.62-2.18-4.81-4.43l-.4-4.54a4.63,4.63,0,0,1,4-5.19c2.86-.25,4.61,2.24,4.8,4.42l.13,1.44A1.59,1.59,0,0,1,263,34.27l-4.86.42.14,1.53a2.23,2.23,0,0,0,2.22,2.21,1.89,1.89,0,0,0,1.7-1.47,1.57,1.57,0,0,1,1.31-1.26A1,1,0,0,1,264.61,36.87Zm-6.69-4.42,4-.35-.07-.78a2.05,2.05,0,1,0-4,.35Z"/><path d="M267.78,37.73a1.61,1.61,0,1,1-1.41,1.75A1.59,1.59,0,0,1,267.78,37.73Z"/><path d="M150.78,19.17a.8.8,0,0,1-.72.88l-2.72.24a.8.8,0,0,1-.86-.74.79.79,0,0,1,.72-.86l2.72-.24A.8.8,0,0,1,150.78,19.17Z"/><path d="M164.27,14.68l-1.23.11.16,1.85,1.92,2.54a.89.89,0,0,1,0,1.12.59.59,0,0,1-.93,0l-.74-1,.34,3.81a.74.74,0,0,1-.66.79.72.72,0,0,1-.78-.67l-.25-2.87L161.23,22a.69.69,0,0,1-1,.26.88.88,0,0,1-.29-1.11l1.88-3.63-.23-2.6-1.46.12a.73.73,0,0,1-.12-1.45l1.45-.13-.17-2-1.09.33a.72.72,0,0,1-.91-.48.73.73,0,0,1,.47-.93l3.63-1.15a.7.7,0,0,1,.88.5.77.77,0,0,1-.51.93l-1.06.35.2,2.35,1.23-.11a.72.72,0,0,1,.77.66A.72.72,0,0,1,164.27,14.68Zm1.58-4.53a.73.73,0,0,1,.79.67l.8,9.13a.73.73,0,0,1-.66.8.71.71,0,0,1-.78-.67L165.2,11A.72.72,0,0,1,165.85,10.15ZM168.5,8.8a.71.71,0,0,1,.76.66l1.14,13.07a.7.7,0,1,1-1.4.12L167.86,9.58A.71.71,0,0,1,168.5,8.8Z"/><path d="M185.75,7.36a1,1,0,0,1,1,.87l1.1,12.63a.75.75,0,1,1-1.49.13l-.45-5.17-2.65.24.4,4.61a.7.7,0,0,1-.62.76.71.71,0,0,1-.75-.64l-.4-4.61-2.6.22.21,2.41a4.83,4.83,0,0,1-.21,1.88l-.44,1.37a.76.76,0,0,1-.93.5.71.71,0,0,1-.47-.9l.58-1.82a.78.78,0,0,0,0-.31l-.92-10.46A1,1,0,0,1,178,8Zm-4.46,1.8-2.59.23.19,2.22,2.6-.22Zm-2.1,5.93,2.6-.22-.18-2.16-2.6.23ZM185.51,11l-.2-2.23L182.66,9l.2,2.23Zm-2.35,3.71,2.65-.23-.18-2.16-2.66.23Z"/><path d="M199.18,16.94A.83.83,0,0,1,199,18a.68.68,0,0,1-1-.16l-.41-.62-1,2.33a.69.69,0,0,1-1,.34.83.83,0,0,1-.35-1.05l1.3-2.95-.23-2.59-1,.09a.72.72,0,0,1-.12-1.43l1-.09L196,10l-.67.06a.72.72,0,0,1-.77-.66.73.73,0,0,1,.64-.78l.67-.06-.12-1.36a.77.77,0,0,1,.69-.84.79.79,0,0,1,.84.71l.12,1.36.66-.06a.72.72,0,0,1,.13,1.44l-.67,0,.17,1.92,1-.09a.72.72,0,0,1,.12,1.44l-1,.09.17,2Zm6.27,1.88a.64.64,0,0,1,.11,1.27l-1.75.15a1,1,0,0,1-1.11-.95L202.41,16l-1.87,4.27a.67.67,0,0,1-.89.36.7.7,0,0,1-.36-.91l1.8-4.08-.18,0a1,1,0,0,1-1.11-.93l-.65-7.43a1,1,0,0,1,.93-1.11l3.36-.29a1,1,0,0,1,1.1.93l.65,7.43a1,1,0,0,1-.93,1.11l-.52,0v0l.31,3.48ZM203.18,7.28l-2.65.24.11,1.25,2.65-.23Zm.34,3.81-.12-1.31-2.65.23.12,1.31Zm-2.39,3.21,2.65-.24-.15-1.74-2.66.24Z"/><path d="M216.4,13.84l1.64,2.7a.71.71,0,0,1-.22.94.65.65,0,0,1-.91-.23l-1.32-2.16.31,3.48a.69.69,0,1,1-1.37.12L214,12.36l-1.12.1a.67.67,0,0,1-.73-.61.66.66,0,0,1,.56-.73l.2-.51-.78-1.27a1.92,1.92,0,0,1-.15-1.7l.92-2.38a.78.78,0,0,1,.9-.46.59.59,0,0,1,.41.8l-1.1,2.84.39.64,1.32-3.39a.76.76,0,0,1,.89-.48.57.57,0,0,1,.41.76l-2,5,1.23-.11-.5-.8a.65.65,0,0,1,.23-.89.66.66,0,0,1,.9.23L217.53,12a.65.65,0,0,1-.22.89.7.7,0,0,1-.91-.25l-.27-.46-.79.07.12,1.33A.71.71,0,0,1,216.4,13.84ZM213.05,13a.6.6,0,0,1,.65.56l.42,4.77a.6.6,0,0,1-.54.66.59.59,0,0,1-.64-.55l-.41-4.78A.6.6,0,0,1,213.05,13Zm8.55-6.84a.94.94,0,0,1,1,.87l.74,8.38a4,4,0,0,1-.27,1.85l-.43,1.14a.88.88,0,0,1-1,.54.66.66,0,0,1-.47-.85l.68-1.72a1.19,1.19,0,0,0,.08-.55l-.72-8.27-2.85.25-.66,1.72a.7.7,0,0,1-.94.39.75.75,0,0,1-.4-1L217.91,5a1,1,0,0,1,1-.59.61.61,0,0,1,.46.83l-.45,1.14Zm-2.66,4.61,1.43,2.35a.73.73,0,0,1-.22,1,.67.67,0,0,1-.94-.21l-1.5-2.51a.62.62,0,0,1,.25-.9A.75.75,0,0,1,218.94,10.73Z"/><path d="M236.3,11.69a.79.79,0,0,1-.72.87l-2.72.24a.8.8,0,0,1-.86-.74.78.78,0,0,1,.72-.85l2.72-.24A.8.8,0,0,1,236.3,11.69Z"/></svg>